SplineFontDB: 3.0
FontName: IndieFlower
FullName: Indie Flower
FamilyName: Indie Flower
Weight: Book
Copyright: Copyright (c) 2010, Kimberly Geswein (kimberlygeswein.com)
Version: 1.001 2010
ItalicAngle: 0
UnderlinePosition: -52
UnderlineWidth: 51
Ascent: 819
Descent: 205
sfntRevision: 0x00010042
LayerCount: 2
Layer: 0 1 "Back"  1
Layer: 1 1 "Fore"  0
XUID: [1021 496 529952750 57409]
FSType: 4
OS2Version: 3
OS2_WeightWidthSlopeOnly: 0
OS2_UseTypoMetrics: 1
CreationTime: 1297184023
ModificationTime: 1299376614
PfmFamily: 17
TTFWeight: 400
TTFWidth: 5
LineGap: 0
VLineGap: 0
Panose: 2 0 0 0 0 0 0 0 0 0
OS2TypoAscent: 994
OS2TypoAOffset: 0
OS2TypoDescent: -500
OS2TypoDOffset: 0
OS2TypoLinegap: 0
OS2WinAscent: 994
OS2WinAOffset: 0
OS2WinDescent: 500
OS2WinDOffset: 0
HheadAscent: 994
HheadAOffset: 0
HheadDescent: -500
HheadDOffset: 0
OS2SubXSize: 717
OS2SubYSize: 666
OS2SubXOff: 0
OS2SubYOff: 143
OS2SupXSize: 717
OS2SupYSize: 666
OS2SupXOff: 0
OS2SupYOff: 488
OS2StrikeYSize: 51
OS2StrikeYPos: 256
OS2Vendor: '    '
OS2CodePages: 00000093.00000000
OS2UnicodeRanges: a000002f.5000004a.00000000.00000000
MarkAttachClasses: 1
DEI: 91125
TtTable: prep
PUSHW_1
 0
CALL
SVTCA[y-axis]
PUSHW_3
 1
 4
 7
CALL
PUSHW_1
 0
DUP
RCVT
RDTG
ROUND[Black]
RTG
WCVTP
EndTTInstrs
TtTable: fpgm
PUSHW_1
 0
FDEF
MPPEM
PUSHW_1
 9
LT
IF
PUSHB_2
 1
 1
INSTCTRL
EIF
PUSHW_1
 511
SCANCTRL
PUSHW_1
 132
SCVTCI
PUSHW_2
 9
 3
SDS
SDB
ENDF
PUSHW_1
 1
FDEF
DUP
DUP
RCVT
ROUND[Black]
WCVTP
PUSHB_1
 1
ADD
ENDF
PUSHW_1
 2
FDEF
PUSHW_1
 1
LOOPCALL
POP
ENDF
PUSHW_1
 3
FDEF
DUP
GC[cur]
PUSHB_1
 3
CINDEX
GC[cur]
GT
IF
SWAP
EIF
DUP
ROLL
DUP
ROLL
MD[grid]
ABS
ROLL
DUP
GC[cur]
DUP
ROUND[Grey]
SUB
ABS
PUSHB_1
 4
CINDEX
GC[cur]
DUP
ROUND[Grey]
SUB
ABS
GT
IF
SWAP
NEG
ROLL
EIF
MDAP[rnd]
DUP
PUSHB_1
 0
GTEQ
IF
ROUND[Black]
DUP
PUSHB_1
 0
EQ
IF
POP
PUSHB_1
 64
EIF
ELSE
ROUND[Black]
DUP
PUSHB_1
 0
EQ
IF
POP
PUSHB_1
 64
NEG
EIF
EIF
MSIRP[no-rp0]
ENDF
PUSHW_1
 4
FDEF
DUP
GC[cur]
PUSHB_1
 4
CINDEX
GC[cur]
GT
IF
SWAP
ROLL
EIF
DUP

StartChar: exclam
Encoding: 33 33 4
Width: 153
VWidth: 768
Flags: HW
LayerCount: 2
Fore
SplineSet
16 49 m 0,0,1
 16 79 16 79 38.5 92.5 c 0,2,3
 62 106 62 106 92 106 c 0,4,5
 102 106 102 106 110 100 c 128,-1,6
 118 94 118 94 124 85.5 c 128,-1,7
 130 77 130 77 132.5 67.5 c 128,-1,8
 135 58 135 58 135 49 c 0,9,10
 135 38 135 38 127 29 c 128,-1,11
 119 20 119 20 108 13 c 128,-1,12
 97 6 97 6 84 2.5 c 128,-1,13
 71 -1 71 -1 62 -1 c 0,14,15
 37 -1 37 -1 26.5 12.5 c 128,-1,16
 16 26 16 26 16 49 c 0,0,1
47 274 m 1,17,18
 43 300 43 300 41.5 344.5 c 128,-1,19
 40 389 40 389 39.5 442.5 c 128,-1,20
 39 496 39 496 39.5 554.5 c 128,-1,21
 40 613 40 613 40 666.5 c 128,-1,22
 40 720 40 720 40 764.5 c 0,23,24
 40 810 40 810 38 836 c 1,25,-1
 87 844 l 1,26,-1
 87.5 826 l 0,27,28
 88 808 88 808 88.5 779 c 128,-1,29
 89 750 89 750 89.5 712 c 128,-1,30
 90 674 90 674 91 633 c 128,-1,31
 92 592 92 592 92 550.5 c 128,-1,32
 92 509 92 509 93 473 c 128,-1,33
 94 437 94 437 94.5 409.5 c 128,-1,34
 95 382 95 382 96 370 c 0,35,36
 96 368 96 368 96 362.5 c 128,-1,37
 96 357 96 357 96.5 349.5 c 128,-1,38
 97 342 97 342 97 335 c 128,-1,39
 97 328 97 328 97 324 c 0,40,41
 97 316 97 316 97.5 305.5 c 128,-1,42
 98 295 98 295 96.5 285 c 128,-1,43
 95 275 95 275 90 268.5 c 128,-1,44
 85 262 85 262 73 262 c 0,45,46
 66 262 66 262 58 263 c 128,-1,47
 50 264 50 264 47 274 c 1,17,18
EndSplineSet
EndChar

StartChar: quotedbl
Encoding: 34 34 5
Width: 240
VWidth: 768
Flags: HW
LayerCount: 2
Fore
SplineSet
154 548 m 0,0,1
 152 582 152 582 150 610 c 128,-1,2
 148 638 148 638 147 663.5 c 128,-1,3
 146 689 146 689 145.5 714 c 128,-1,4
 145 739 145 739 145 768 c 2,5,-1
 145 806 l 1,6,7
 146 808 146 808 149.5 811.5 c 0,8,9
 152 815 152 815 154 817 c 1,10,-1
 157 817 l 2,11,12
 158 817 158 817 158 817.5 c 128,-1,13
 158 818 158 818 159 818 c 0,14,15
 172 818 172 818 181 799 c 128,-1,16
 190 780 190 780 196 752 c 128,-1,17
 202 724 202 724 205 690.5 c 128,-1,18
 208 657 208 657 210 627.5 c 128,-1,19
 212 598 212 598 212 577 c 128,-1,20
 212 556 212 556 212 552 c 2,21,-1
 212 518 l 1,22,23
 210 515 210 515 203 508 c 0,24,25
 196 502 196 502 193 500 c 0,26,-1
 190 499 l 2,27,-1
 188 499 l 2,28,29
 181 499 181 499 175.5 506 c 128,-1,30
 170 513 170 513 165 522 c 128,-1,31
 160 531 160 531 157 538.5 c 128,-1,32
 154 546 154 546 154 548 c 0,0,1
10 778 m 1,33,34
 13 786 13 786 18.5 787 c 128,-1,35
 24 788 24 788 30 788 c 0,36,37
 40 788 40 788 48 773.5 c 128,-1,38
 56 759 56 759 63 735.5 c 128,-1,39
 70 712 70 712 76.5 684 c 128,-1,40
 83 656 83 656 89.5 628 c 128,-1,41
 96 600 96 600 102.5 576 c 128,-1,42
 109 552 109 552 116 538 c 1,43,44
 110 526 110 526 104 522 c 128,-1,45
 98 518 98 518 87 518 c 0,46,47
 73 518 73 518 62 534 c 128,-1,48
 51 550 51 550 42.5 575 c 128,-1,49
 34 600 34 600 28 631 c 128,-1,50
 22 662 22 662 18 690.5 c 128,-1,51
 14 719 14 719 12.5 743 c 128,-1,52
 11 767 11 767 10 778 c 1,33,34
EndSplineSet
EndChar

StartChar: numbersign
Encoding: 35 35 6
Width: 787
VWidth: 768
Flags: HW
LayerCount: 2
Fore
SplineSet
394 154 m 1,0,-1
 394 68 l 2,1,2
 394 66 394 66 390 62.5 c 128,-1,3
 386 59 386 59 385 58 c 0,4,5
 382 56 382 56 374.5 52.5 c 128,-1,6
 367 49 367 49 365 49 c 0,7,8
 353 49 353 49 348 56 c 128,-1,9
 343 63 343 63 340.5 74 c 128,-1,10
 338 85 338 85 338 97.5 c 128,-1,11
 338 110 338 110 336.5 120.5 c 128,-1,12
 335 131 335 131 331.5 138.5 c 128,-1,13
 328 146 328 146 318 146 c 0,14,15
 316 146 316 146 312.5 145.5 c 128,-1,16
 309 145 309 145 308 145 c 0,17,18
 304 144 304 144 289 142 c 128,-1,19
 274 140 274 140 254 137 c 128,-1,20
 234 134 234 134 212 130.5 c 128,-1,21
 190 127 190 127 170 124 c 128,-1,22
 150 121 150 121 135.5 118.5 c 128,-1,23
 121 116 121 116 116 116 c 1,24,-1
 110 116 l 2,25,26
 100 116 100 116 93 125 c 128,-1,27
 86 134 86 134 86 145 c 0,28,29
 86 147 86 147 86.5 150 c 128,-1,30
 87 153 87 153 87 154 c 0,31,32
 137 165 137 165 183.5 174.5 c 128,-1,33
 230 184 230 184 279 192 c 0,34,35
 283 193 283 193 289.5 194.5 c 128,-1,36
 296 196 296 196 302 197.5 c 128,-1,37
 308 199 308 199 312.5 200 c 128,-1,38
 317 201 317 201 317 202 c 2,39,-1
 317 268 l 1,40,-1
 308 279 l 2,41,42
 307 279 307 279 303.5 279.5 c 128,-1,43
 300 280 300 280 295.5 280 c 128,-1,44
 291 280 291 280 286.5 280 c 128,-1,45
 282 280 282 280 280 280 c 0,46,47
 247 280 247 280 214 271 c 128,-1,48
 181 262 181 262 149.5 250 c 128,-1,49
 118 238 118 238 88.5 229 c 128,-1,50
 59 220 59 220 34 220 c 0,51,52
 23 220 23 220 16 224 c 128,-1,53
 9 228 9 228 9 242 c 0,54,55
 9 261 9 261 31 274 c 128,-1,56
 53 287 53 287 86.5 297 c 128,-1,57
 120 307 120 307 158.5 314 c 128,-1,58
 197 321 197 321 230.5 326.5 c 128,-1,59
 264 332 264 332 286 336 c 128,-1,60
 308 340 308 340 308 346 c 2,61,-1
 308 480 l 2,62,63
 308 484 308 484 312 488.5 c 128,-1,64
 316 493 316 493 321.5 496.5 c 128,-1,65
 327 500 327 500 333.5 502 c 128,-1,66
 340 504 340 504 344 504 c 1,67,68
 344 488 344 488 346 470 c 128,-1,69
 348 452 348 452 351 433.5 c 128,-1,70
 354 415 354 415 358 397.5 c 128,-1,71
 362 380 362 380 365 364 c 1,72,73
 381 358 381 358 392.5 356 c 128,-1,74
 404 354 404 354 419 354 c 0,75,76
 424 354 424 354 431.5 356 c 128,-1,77
 439 358 439 358 445.5 362.5 c 128,-1,78
 452 367 452 367 457 372 c 128,-1,79
 462 377 462 377 462 383 c 0,80,81
 462 393 462 393 459 402.5 c 128,-1,82
 456 412 456 412 452 422 c 128,-1,83
 448 432 448 432 445 441.5 c 0,84,85
 442 450 442 450 442 460 c 0,86,87
 442 474 442 474 449 487 c 128,-1,88
 456 500 456 500 471 500 c 0,89,90
 473 500 473 500 476 500 c 128,-1,91
 479 500 479 500 481 500 c 1,92,93
 482 492 482 492 486 471.5 c 128,-1,94
 490 451 490 451 496 429.5 c 128,-1,95
 502 408 502 408 508 391.5 c 128,-1,96
 514 375 514 375 519 375 c 2,97,-1
 682 375 l 2,98,99
 683 375 683 375 687.5 370.5 c 128,-1,100
 692 366 692 366 698 360 c 128,-1,101
 704 354 704 354 710.5 347.5 c 128,-1,102
 717 341 717 341 721 337 c 1,103,-1
 721 334 l 2,104,105
 721 332 721 332 721.5 332 c 128,-1,106
 722 332 722 332 722 331 c 0,107,108
 722 327 722 327 718.5 323 c 128,-1,109
 715 319 715 319 710 315.5 c 128,-1,110
 705 312 705 312 700 310 c 128,-1,111
 695 308 695 308 692 308 c 0,112,113
 691 308 691 308 688.5 309 c 128,-1,114
 686 310 686 310 682.5 312 c 128,-1,115
 679 314 679 314 676.5 315 c 128,-1,116
 674 316 674 316 673 317 c 1,117,118
 671 317 671 317 665 318.5 c 128,-1,119
 659 320 659 320 651.5 321.5 c 128,-1,120
 644 323 644 323 636 324.5 c 128,-1,121
 628 326 628 326 625 326 c 1,122,-1
 620 326 l 1,123,-1
 615 326 l 1,124,125
 605 324 605 324 590 323 c 128,-1,126
 575 322 575 322 562 320 c 0,127,128
 546 318 546 318 529 317 c 1,129,-1
 529 250 l 1,130,-1
 538 241 l 1,131,132
 558 244 558 244 574 246 c 128,-1,133
 590 248 590 248 603.5 249 c 128,-1,134
 617 250 617 250 631.5 250 c 128,-1,135
 646 250 646 250 664 250 c 0,136,137
 680 250 680 250 697.5 250.5 c 128,-1,138
 715 251 715 251 728.5 247 c 128,-1,139
 742 243 742 243 751 232.5 c 128,-1,140
 760 222 760 222 760 200 c 0,141,142
 760 183 760 183 740 183 c 2,143,-1
 730 183 l 2,144,145
 726 183 726 183 713.5 184.5 c 128,-1,146
 701 186 701 186 686.5 187.5 c 128,-1,147
 672 189 672 189 659 190.5 c 128,-1,148
 646 192 646 192 644 192 c 2,149,-1
 639 192 l 2,150,151
 631 192 631 192 615.5 189 c 128,-1,152
 600 186 600 186 583.5 182 c 128,-1,153
 567 178 567 178 554 175 c 0,154,155
 540 172 540 172 538 172 c 1,156,157
 538 170 538 170 538 165.5 c 128,-1,158
 538 161 538 161 538 156 c 128,-1,159
 538 151 538 151 537.5 146 c 128,-1,160
 537 141 537 141 537 139 c 0,161,162
 537 115 537 115 542.5 92.5 c 128,-1,163
 548 70 548 70 548 46 c 0,164,165
 548 44 548 44 548 43.5 c 128,-1,166
 548 43 548 43 548 41 c 2,167,-1
 548 38 l 1,168,169
 546 36 546 36 541 31 c 128,-1,170
 536 26 536 26 530 20 c 128,-1,171
 524 14 524 14 518 8 c 128,-1,172
 512 2 512 2 509 0 c 0,173,-1
 507 -1 l 2,174,-1
 505 -1 l 2,175,176
 500 -1 500 -1 496 10.5 c 128,-1,177
 492 22 492 22 489 39.5 c 128,-1,178
 486 57 486 57 484 77.5 c 128,-1,179
 482 98 482 98 480 116 c 128,-1,180
 478 134 478 134 476 147 c 128,-1,181
 474 160 474 160 471 164 c 2,182,-1
 461 172 l 1,183,-1
 394 154 l 1,0,-1
375 268 m 0,184,185
 375 265 375 265 376 257 c 128,-1,186
 377 249 377 249 378.5 240 c 128,-1,187
 380 231 380 231 381.5 222.5 c 128,-1,188
 383 214 383 214 385 212 c 1,189,-1
 471 230 l 1,190,191
 471 234 471 234 472 238 c 256,192,193
 473 242 473 242 473 245 c 128,-1,194
 473 248 473 248 473 250 c 256,195,196
 473 252 473 252 472.5 257 c 128,-1,197
 472 262 472 262 472 266.5 c 128,-1,198
 472 271 472 271 471.5 274.5 c 128,-1,199
 471 278 471 278 471 279 c 0,200,201
 470 283 470 283 466.5 290.5 c 128,-1,202
 463 298 463 298 461 298 c 2,203,-1
 394 298 l 2,204,205
 393 298 393 298 389.5 294 c 128,-1,206
 386 290 386 290 385 288 c 0,207,208
 383 285 383 285 379 277.5 c 128,-1,209
 375 270 375 270 375 268 c 0,184,185
EndSplineSet
EndChar

StartChar: dollar
Encoding: 36 36 7
Width: 595
VWidth: 768
Flags: HW
LayerCount: 2
Fore
SplineSet
292 110 m 1,0,1
 290 106 290 106 288 89 c 128,-1,2
 286 72 286 72 282 54.5 c 128,-1,3
 278 37 278 37 272.5 22.5 c 128,-1,4
 267 8 267 8 260 8 c 0,5,6
 239 8 239 8 232 23.5 c 128,-1,7
 225 39 225 39 224 59.5 c 128,-1,8
 223 80 223 80 224 99 c 128,-1,9
 225 118 225 118 221 125 c 0,10,11
 215 135 215 135 196.5 148.5 c 128,-1,12
 178 162 178 162 153 176.5 c 128,-1,13
 128 191 128 191 101.5 206.5 c 128,-1,14
 75 222 75 222 53.5 238 c 128,-1,15
 32 254 32 254 19 269 c 128,-1,16
 6 284 6 284 10 298 c 0,17,18
 13 310 13 310 21 314 c 128,-1,19
 29 318 29 318 39 318 c 0,20,21
 60 318 60 318 79 300 c 128,-1,22
 98 282 98 282 118 260 c 128,-1,23
 138 238 138 238 158 220 c 128,-1,24
 178 202 178 202 202 202 c 0,25,26
 216 202 216 202 225 219.5 c 128,-1,27
 234 237 234 237 240.5 264 c 128,-1,28
 247 291 247 291 251 324.5 c 128,-1,29
 255 358 255 358 257 389 c 128,-1,30
 259 420 259 420 259.5 446 c 128,-1,31
 260 472 260 472 260 484 c 0,32,33
 260 486 260 486 260 491 c 128,-1,34
 260 496 260 496 260 501.5 c 128,-1,35
 260 507 260 507 260 512 c 128,-1,36
 260 517 260 517 260 518 c 1,37,38
 246 536 246 536 227 550.5 c 128,-1,39
 208 565 208 565 192 580 c 128,-1,40
 176 595 176 595 164.5 613 c 128,-1,41
 153 631 153 631 153 658 c 0,42,43
 153 661 153 661 153.5 670 c 128,-1,44
 154 679 154 679 154 682 c 1,45,46
 178 717 178 717 213 741 c 128,-1,47
 248 765 248 765 289 778 c 1,48,49
 291 798 291 798 291.5 824 c 128,-1,50
 292 850 292 850 297 875 c 128,-1,51
 302 900 302 900 313 921 c 128,-1,52
 324 942 324 942 346 951 c 1,53,54
 346 935 346 935 349.5 922 c 0,55,56
 354 909 354 909 356 893 c 0,57,58
 356 892 356 892 354 889 c 128,-1,59
 352 886 352 886 351 883 c 128,-1,60
 350 880 350 880 348 877 c 0,61,-1
 346 874 l 256,62,63
 346 873 346 873 346 869 c 128,-1,64
 346 865 346 865 346 859.5 c 128,-1,65
 346 854 346 854 345.5 848.5 c 128,-1,66
 345 843 345 843 345 840 c 0,67,68
 345 838 345 838 345.5 833.5 c 128,-1,69
 346 829 346 829 346 823.5 c 128,-1,70
 346 818 346 818 346 813 c 128,-1,71
 346 808 346 808 346 806 c 1,72,73
 359 799 359 799 367.5 797.5 c 128,-1,74
 376 796 376 796 389 796 c 0,75,76
 391 796 391 796 397 796.5 c 128,-1,77
 403 797 403 797 404 797 c 1,78,79
 404 811 404 811 403.5 832 c 128,-1,80
 403 853 403 853 406.5 872 c 128,-1,81
 410 891 410 891 419.5 905 c 0,82,83
 430 919 430 919 452 919 c 1,84,-1
 452 768 l 1,85,86
 455 761 455 761 462.5 757 c 128,-1,87
 470 753 470 753 478 749 c 128,-1,88
 486 745 486 745 492.5 740.5 c 128,-1,89
 499 736 499 736 499 730 c 0,90,91
 499 726 499 726 493 720.5 c 128,-1,92
 487 715 487 715 478.5 710.5 c 128,-1,93
 470 706 470 706 460 703 c 128,-1,94
 450 700 450 700 442 701 c 1,95,96
 438 661 438 661 430 626 c 128,-1,97
 422 591 422 591 422 552 c 0,98,99
 422 550 422 550 422 543.5 c 128,-1,100
 422 537 422 537 422 530.5 c 128,-1,101
 422 524 422 524 422.5 518 c 128,-1,102
 423 512 423 512 423 509 c 1,103,104
 444 483 444 483 470.5 461 c 128,-1,105
 497 439 497 439 520.5 414.5 c 128,-1,106
 544 390 544 390 560.5 361 c 128,-1,107
 577 332 577 332 577 292 c 0,108,109
 577 187 577 187 521.5 130.5 c 128,-1,110
 466 74 466 74 365 68 c 1,111,112
 367 58 367 58 367 46 c 128,-1,113
 367 34 367 34 363.5 23.5 c 128,-1,114
 360 13 360 13 352 6 c 128,-1,115
 344 -1 344 -1 332 -1 c 0,116,117
 330 -1 330 -1 324.5 -0.5 c 128,-1,118
 319 0 319 0 317 0 c 1,119,120
 314 28 314 28 311 52 c 1,121,122
 307 72 307 72 302.5 89 c 128,-1,123
 298 106 298 106 292 110 c 1,0,1
375 134 m 1,124,125
 377 132 377 132 384.5 129 c 128,-1,126
 392 126 392 126 394 125 c 1,127,-1
 398 125 l 2,128,129
 430 125 430 125 453 139.5 c 128,-1,130
 476 154 476 154 491 176.5 c 128,-1,131
 506 199 506 199 513 226.5 c 128,-1,132
 520 254 520 254 520 280 c 0,133,134
 520 336 520 336 494 373 c 128,-1,135
 468 410 468 410 423 442 c 1,136,137
 410 435 410 435 401.5 417.5 c 128,-1,138
 393 400 393 400 387.5 376 c 128,-1,139
 382 352 382 352 379 325 c 128,-1,140
 376 298 376 298 375 272 c 128,-1,141
 374 246 374 246 374 223.5 c 0,142,143
 374 202 374 202 374 188 c 0,144,145
 374 185 374 185 374 177.5 c 128,-1,146
 374 170 374 170 374.5 161 c 128,-1,147
 375 152 375 152 375 144.5 c 128,-1,148
 375 137 375 137 375 134 c 1,124,125
350 477 m 1,149,150
 352 480 352 480 348.5 482 c 128,-1,151
 345 484 345 484 340 484 c 128,-1,152
 335 484 335 484 330.5 483 c 128,-1,153
 326 482 326 482 327 480 c 1,154,155
 323 457 323 457 315 424 c 128,-1,156
 307 391 307 391 298.5 356 c 128,-1,157
 290 321 290 321 284 287 c 128,-1,158
 278 253 278 253 277 226.5 c 128,-1,159
 276 200 276 200 283 185.5 c 128,-1,160
 290 171 290 171 308 175 c 1,161,162
 308 177 308 177 311.5 198.5 c 128,-1,163
 315 220 315 220 319.5 252 c 128,-1,164
 324 284 324 284 329 321 c 128,-1,165
 334 358 334 358 339 390 c 128,-1,166
 344 422 344 422 347 444 c 128,-1,167
 350 466 350 466 350 468 c 2,168,-1
 350 477 l 1,149,150
326 584 m 0,169,170
 326 576 326 576 325.5 565 c 128,-1,171
 325 554 325 554 326.5 543 c 128,-1,172
 328 532 328 532 333 523 c 128,-1,173
 338 514 338 514 346 509 c 1,174,175
 360 519 360 519 370 536 c 128,-1,176
 380 553 380 553 385 573.5 c 128,-1,177
 390 594 390 594 392 617 c 128,-1,178
 394 640 394 640 394.5 661.5 c 128,-1,179
 395 683 395 683 394.5 702 c 0,180,181
 394 722 394 722 394 734 c 1,182,183
 392 734 392 734 385.5 733.5 c 128,-1,184
 379 733 379 733 371 732 c 128,-1,185
 363 731 363 731 356.5 730.5 c 128,-1,186
 350 730 350 730 346 730 c 0,187,188
 344 730 344 730 340.5 726 c 128,-1,189
 337 722 337 722 337 721 c 0,190,191
 333 699 333 699 331 682 c 128,-1,192
 329 665 329 665 327.5 649.5 c 128,-1,193
 326 634 326 634 326 618.5 c 128,-1,194
 326 603 326 603 326 584 c 0,169,170
211 641 m 0,195,196
 211 633 211 633 211.5 626.5 c 128,-1,197
 212 620 212 620 215 614.5 c 128,-1,198
 218 609 218 609 224 604.5 c 128,-1,199
 230 600 230 600 241 596 c 1,200,-1
 243.5 593.5 l 0,201,202
 246 591 246 591 249.5 588.5 c 128,-1,203
 253 586 253 586 256.5 585 c 128,-1,204
 260 584 260 584 261 585 c 0,205,206
 269 590 269 590 272.5 600 c 128,-1,207
 276 610 276 610 277.5 622.5 c 128,-1,208
 279 635 279 635 279 647 c 0,209,210
 279 660 279 660 279 668 c 0,211,212
 279 672 279 672 277 677.5 c 128,-1,213
 275 683 275 683 271.5 688.5 c 128,-1,214
 268 694 268 694 264 697.5 c 128,-1,215
 260 701 260 701 255 701 c 0,216,217
 243 701 243 701 234.5 695.5 c 128,-1,218
 226 690 226 690 221 681 c 128,-1,219
 216 672 216 672 213.5 661.5 c 128,-1,220
 211 651 211 651 211 641 c 0,195,196
EndSplineSet
EndChar

StartChar: percent
Encoding: 37 37 8
Width: 652
VWidth: 768
Flags: HW
LayerCount: 2
Fore
SplineSet
145 29 m 0,0,1
 145 48 145 48 160.5 84 c 128,-1,2
 176 120 176 120 201 165.5 c 128,-1,3
 226 211 226 211 259.5 262.5 c 128,-1,4
 293 314 293 314 328 365 c 128,-1,5
 363 416 363 416 398 463 c 128,-1,6
 433 510 433 510 461.5 546 c 128,-1,7
 490 582 490 582 511 603.5 c 128,-1,8
 532 625 532 625 538 625 c 0,9,10
 542 625 542 625 545 620.5 c 128,-1,11
 548 616 548 616 548.5 611.5 c 128,-1,12
 549 607 549 607 548.5 602 c 0,13,14
 548 598 548 598 548 596 c 1,15,16
 524 556 524 556 497 523.5 c 128,-1,17
 470 491 470 491 443 458.5 c 128,-1,18
 416 426 416 426 391 390 c 128,-1,19
 366 354 366 354 346 308 c 1,20,21
 340 298 340 298 327 271 c 128,-1,22
 314 244 314 244 296 210 c 128,-1,23
 278 176 278 176 258 138.5 c 128,-1,24
 238 101 238 101 219.5 70 c 128,-1,25
 201 39 201 39 186 19 c 0,26,27
 172 -1 172 -1 164 -1 c 0,28,29
 152 -1 152 -1 148.5 9 c 128,-1,30
 145 19 145 19 145 29 c 0,0,1
364 100 m 0,31,32
 364 118 364 118 369.5 141 c 128,-1,33
 375 164 375 164 385.5 186.5 c 128,-1,34
 396 209 396 209 410 231.5 c 128,-1,35
 424 254 424 254 441.5 270.5 c 128,-1,36
 459 287 459 287 478.5 297.5 c 128,-1,37
 498 308 498 308 519 308 c 0,38,39
 541 308 541 308 560.5 296 c 128,-1,40
 580 284 580 284 594.5 265.5 c 128,-1,41
 609 247 609 247 617.5 224.5 c 128,-1,42
 626 202 626 202 626 182 c 0,43,44
 626 153 626 153 612 122 c 128,-1,45
 598 91 598 91 575.5 65.5 c 128,-1,46
 553 40 553 40 524.5 24 c 128,-1,47
 496 8 496 8 466 8 c 0,48,49
 444 8 444 8 425.5 14 c 128,-1,50
 407 20 407 20 393.5 31 c 128,-1,51
 380 42 380 42 372 59 c 128,-1,52
 364 76 364 76 364 100 c 0,31,32
413 76 m 1,53,54
 421 68 421 68 430.5 67 c 128,-1,55
 440 66 440 66 452 66 c 0,56,57
 474 66 474 66 494.5 74.5 c 128,-1,58
 515 83 515 83 531.5 98 c 128,-1,59
 548 113 548 113 558 133 c 0,60,61
 568 154 568 154 568 176 c 0,62,63
 568 186 568 186 565 198.5 c 128,-1,64
 562 211 562 211 556 222.5 c 128,-1,65
 550 234 550 234 541 242 c 128,-1,66
 532 250 532 250 519 250 c 0,67,68
 497 250 497 250 477 233.5 c 128,-1,69
 457 217 457 217 442.5 193.5 c 128,-1,70
 428 170 428 170 420 144 c 128,-1,71
 412 118 412 118 412 100 c 0,72,73
 412 97 412 97 412 88.5 c 128,-1,74
 412 80 412 80 413 76 c 1,53,54
9 413 m 0,75,76
 9 438 9 438 18.5 464 c 128,-1,77
 28 490 28 490 45 510.5 c 128,-1,78
 62 531 62 531 84.5 544 c 0,79,80
 108 557 108 557 134 557 c 0,81,82
 157 557 157 557 181.5 547.5 c 128,-1,83
 206 538 206 538 225.5 521.5 c 128,-1,84
 245 505 245 505 257.5 482.5 c 128,-1,85
 270 460 270 460 270 434 c 0,86,87
 270 407 270 407 259 382 c 128,-1,88
 248 357 248 357 229 338 c 128,-1,89
 210 319 210 319 185.5 307.5 c 128,-1,90
 161 296 161 296 135 296 c 0,91,92
 113 296 113 296 90.5 305.5 c 128,-1,93
 68 315 68 315 50 331 c 128,-1,94
 32 347 32 347 20.5 368 c 128,-1,95
 9 389 9 389 9 413 c 0,75,76
67 418 m 0,96,97
 67 409 67 409 68.5 397.5 c 128,-1,98
 70 386 70 386 75 375.5 c 128,-1,99
 80 365 80 365 87 357 c 128,-1,100
 94 349 94 349 106 346 c 0,101,102
 120 342 120 342 140 347 c 128,-1,103
 160 352 160 352 178 363 c 128,-1,104
 196 374 196 374 208.5 389.5 c 128,-1,105
 221 405 221 405 221 422 c 0,106,107
 221 437 221 437 214 451 c 128,-1,108
 207 465 207 465 195 476 c 128,-1,109
 183 487 183 487 168.5 493.5 c 128,-1,110
 154 500 154 500 140 500 c 0,111,112
 124 500 124 500 110 492 c 128,-1,113
 96 484 96 484 86.5 472 c 128,-1,114
 77 460 77 460 72 446 c 128,-1,115
 67 432 67 432 67 418 c 0,96,97
EndSplineSet
EndChar

StartChar: ampersand
Encoding: 38 38 9
Width: 468
VWidth: 768
Flags: HW
LayerCount: 2
Fore
SplineSet
10 76 m 0,0,1
 10 127 10 127 28 170.5 c 128,-1,2
 46 214 46 214 69 254.5 c 128,-1,3
 92 295 92 295 114 335.5 c 128,-1,4
 136 376 136 376 145 422 c 0,5,6
 145 424 145 424 145 433 c 128,-1,7
 145 442 145 442 145 451.5 c 128,-1,8
 145 461 145 461 145 469.5 c 128,-1,9
 145 478 145 478 145 480 c 0,10,11
 145 490 145 490 146.5 516 c 128,-1,12
 148 542 148 542 149.5 571.5 c 128,-1,13
 151 601 151 601 152.5 626.5 c 128,-1,14
 154 652 154 652 154 663 c 0,15,16
 154 667 154 667 156.5 674.5 c 128,-1,17
 159 682 159 682 162.5 689.5 c 128,-1,18
 166 697 166 697 171.5 703 c 128,-1,19
 177 709 177 709 183 710 c 0,20,21
 207 714 207 714 224 704 c 128,-1,22
 241 694 241 694 251 677 c 128,-1,23
 261 660 261 660 265.5 639.5 c 0,24,25
 270 620 270 620 270 602 c 0,26,27
 270 570 270 570 266 544.5 c 128,-1,28
 262 519 262 519 253 495.5 c 128,-1,29
 244 472 244 472 231.5 447.5 c 128,-1,30
 219 423 219 423 202 394 c 1,31,32
 202 392 202 392 201.5 389 c 128,-1,33
 201 386 201 386 201 384 c 0,34,35
 201 368 201 368 205.5 350.5 c 128,-1,36
 210 333 210 333 217 315.5 c 128,-1,37
 224 298 224 298 233 281 c 128,-1,38
 242 264 242 264 250 250 c 1,39,-1
 269 250 l 1,40,41
 279 255 279 255 286 266.5 c 128,-1,42
 293 278 293 278 297.5 293 c 128,-1,43
 302 308 302 308 304 325 c 128,-1,44
 306 342 306 342 307 357.5 c 128,-1,45
 308 373 308 373 308 385.5 c 128,-1,46
 308 398 308 398 308 404 c 1,47,48
 313 410 313 410 322.5 412 c 128,-1,49
 332 414 332 414 341 415 c 128,-1,50
 350 416 350 416 359 415 c 128,-1,51
 368 414 368 414 374 414 c 0,52,53
 386 414 386 414 399 416.5 c 128,-1,54
 412 419 412 419 423 418.5 c 128,-1,55
 434 418 434 418 441 411 c 128,-1,56
 448 404 448 404 448 385 c 0,57,58
 448 375 448 375 444.5 370.5 c 128,-1,59
 441 366 441 366 428 365 c 0,60,61
 423 364 423 364 415 363 c 128,-1,62
 407 362 407 362 399.5 361.5 c 128,-1,63
 392 361 392 361 384 360 c 128,-1,64
 376 359 376 359 371 360 c 1,65,66
 357 331 357 331 351.5 307.5 c 128,-1,67
 346 284 346 284 341.5 263.5 c 128,-1,68
 337 243 337 243 330.5 223.5 c 128,-1,69
 324 204 324 204 308 183 c 1,70,71
 308 180 308 180 308 178 c 0,72,73
 307 176 307 176 307 172 c 0,74,75
 307 158 307 158 318 137.5 c 128,-1,76
 329 117 329 117 343.5 95.5 c 128,-1,77
 358 74 358 74 373 55 c 128,-1,78
 388 36 388 36 394 26 c 1,79,80
 390 16 390 16 382 15.5 c 0,81,82
 374 14 374 14 364 16 c 1,83,-1
 279 116 l 1,84,-1
 277 116 l 1,85,-1
 275 116 l 2,86,-1
 274 116 l 1,87,88
 263 116 263 116 253 107.5 c 128,-1,89
 243 99 243 99 233 85.5 c 128,-1,90
 223 72 223 72 211.5 57 c 128,-1,91
 200 42 200 42 185 28.5 c 128,-1,92
 170 15 170 15 152 6.5 c 128,-1,93
 134 -2 134 -2 110 -2 c 0,94,95
 108 -2 108 -2 102 -2 c 128,-1,96
 96 -2 96 -2 89 -1.5 c 128,-1,97
 82 -1 82 -1 76 -0.5 c 128,-1,98
 70 0 70 0 68 0 c 1,99,100
 60 6 60 6 50 15 c 128,-1,101
 40 24 40 24 31 34 c 128,-1,102
 22 44 22 44 16 55 c 128,-1,103
 10 66 10 66 10 76 c 0,0,1
67 96 m 0,104,105
 67 91 67 91 70.5 82.5 c 128,-1,106
 74 74 74 74 79 66 c 128,-1,107
 84 58 84 58 91 52.5 c 128,-1,108
 98 47 98 47 106 49 c 0,109,110
 120 51 120 51 142 65.5 c 128,-1,111
 164 80 164 80 183.5 98.5 c 128,-1,112
 203 117 203 117 217.5 137.5 c 128,-1,113
 232 158 232 158 232 172 c 256,114,115
 232 187 232 187 225 204 c 128,-1,116
 218 221 218 221 208 238.5 c 128,-1,117
 198 256 198 256 188 274 c 128,-1,118
 178 292 178 292 173 308 c 1,119,120
 161 306 161 306 148.5 290.5 c 128,-1,121
 136 275 136 275 124 253.5 c 128,-1,122
 112 232 112 232 102 206.5 c 128,-1,123
 92 181 92 181 84 158 c 128,-1,124
 76 135 76 135 71.5 117.5 c 128,-1,125
 67 100 67 100 67 96 c 0,104,105
EndSplineSet
EndChar

StartChar: quotesingle
Encoding: 39 39 10
Width: 105
VWidth: 768
Flags: HW
LayerCount: 2
Fore
SplineSet
20 712 m 0,0,1
 20 718 20 718 20 722.5 c 128,-1,2
 20 727 20 727 22 730.5 c 128,-1,3
 24 734 24 734 28 738 c 128,-1,4
 32 742 32 742 38 748 c 1,5,6
 49 742 49 742 57.5 727 c 128,-1,7
 66 712 66 712 71.5 692.5 c 128,-1,8
 77 673 77 673 80 649.5 c 128,-1,9
 83 626 83 626 85 603.5 c 128,-1,10
 87 581 87 581 87.5 562 c 128,-1,11
 88 543 88 543 88 531 c 0,12,13
 88 517 88 517 85.5 508 c 0,14,15
 84 499 84 499 68 499 c 0,16,17
 55 499 55 499 46.5 514 c 128,-1,18
 38 529 38 529 32.5 551.5 c 128,-1,19
 27 574 27 574 24.5 601 c 128,-1,20
 22 628 22 628 21 652 c 128,-1,21
 20 676 20 676 20 692.5 c 128,-1,22
 20 709 20 709 20 712 c 0,0,1
EndSplineSet
EndChar

StartChar: parenleft
Encoding: 40 40 11
Width: 432
VWidth: 768
Flags: HW
LayerCount: 2
Fore
SplineSet
20 196 m 0,0,1
 20 228 20 228 35 271 c 128,-1,2
 50 314 50 314 76 358.5 c 128,-1,3
 102 403 102 403 136 445.5 c 128,-1,4
 170 488 170 488 207 521.5 c 128,-1,5
 244 555 244 555 282.5 575.5 c 0,6,7
 322 596 322 596 356 596 c 0,8,9
 365 596 365 596 375 592 c 128,-1,10
 385 588 385 588 393.5 581 c 128,-1,11
 402 574 402 574 408 565.5 c 128,-1,12
 414 557 414 557 414 548 c 0,13,14
 414 540 414 540 411 529 c 128,-1,15
 408 518 408 518 398 518 c 0,16,17
 391 518 391 518 386 521 c 128,-1,18
 381 524 381 524 375.5 528 c 128,-1,19
 370 532 370 532 364.5 535 c 128,-1,20
 359 538 359 538 352 538 c 0,21,22
 318 538 318 538 284 520 c 128,-1,23
 250 502 250 502 219 472 c 128,-1,24
 188 442 188 442 162 403.5 c 128,-1,25
 136 365 136 365 117 324.5 c 128,-1,26
 98 284 98 284 87 245.5 c 128,-1,27
 76 207 76 207 76 177 c 0,28,29
 76 129 76 129 92.5 98.5 c 128,-1,30
 109 68 109 68 137 50 c 128,-1,31
 165 32 165 32 201.5 23.5 c 128,-1,32
 238 15 238 15 279 10 c 1,33,34
 287 7 287 7 288 2 c 128,-1,35
 289 -3 289 -3 289 -9 c 0,36,37
 289 -23 289 -23 278.5 -29.5 c 128,-1,38
 268 -36 268 -36 255 -38 c 128,-1,39
 242 -40 242 -40 228 -39.5 c 128,-1,40
 214 -39 214 -39 207 -39 c 0,41,42
 160 -39 160 -39 124.5 -18 c 128,-1,43
 89 3 89 3 66 36.5 c 128,-1,44
 43 70 43 70 31.5 112 c 128,-1,45
 20 154 20 154 20 196 c 0,0,1
EndSplineSet
EndChar

StartChar: parenright
Encoding: 41 41 12
Width: 297
VWidth: 768
Flags: HW
LayerCount: 2
Fore
SplineSet
9 -20 m 0,0,1
 9 -12 9 -12 24.5 4 c 128,-1,2
 40 20 40 20 64 43.5 c 128,-1,3
 88 67 88 67 115.5 96 c 128,-1,4
 143 125 143 125 166.5 159 c 128,-1,5
 190 193 190 193 206 230.5 c 128,-1,6
 222 268 222 268 222 308 c 0,7,8
 222 346 222 346 211 380 c 128,-1,9
 200 414 200 414 181.5 445.5 c 128,-1,10
 163 477 163 477 138.5 504.5 c 128,-1,11
 114 532 114 532 87 556 c 1,12,13
 80 552 80 552 73 554 c 128,-1,14
 66 556 66 556 60.5 561 c 128,-1,15
 55 566 55 566 51 572.5 c 128,-1,16
 47 579 47 579 47 586 c 0,17,18
 47 601 47 601 56 603.5 c 128,-1,19
 65 606 65 606 78 606 c 0,20,21
 108 606 108 606 134.5 591.5 c 128,-1,22
 161 577 161 577 183.5 553 c 128,-1,23
 206 529 206 529 224 498 c 128,-1,24
 242 467 242 467 254.5 435 c 128,-1,25
 267 403 267 403 273.5 372 c 128,-1,26
 280 341 280 341 280 317 c 256,27,28
 280 293 280 293 269 256 c 128,-1,29
 258 219 258 219 239 177.5 c 128,-1,30
 220 136 220 136 195.5 93.5 c 128,-1,31
 171 51 171 51 143.5 17.5 c 128,-1,32
 116 -16 116 -16 87.5 -37 c 128,-1,33
 59 -58 59 -58 34 -58 c 0,34,35
 28 -58 28 -58 23.5 -54 c 128,-1,36
 19 -50 19 -50 15.5 -44 c 128,-1,37
 12 -38 12 -38 10.5 -31 c 128,-1,38
 9 -24 9 -24 9 -20 c 0,0,1
EndSplineSet
EndChar

StartChar: asterisk
Encoding: 42 42 13
Width: 422
VWidth: 768
Flags: HW
LayerCount: 2
Fore
SplineSet
183 404 m 0,0,1
 182 404 182 404 179.5 401.5 c 128,-1,2
 177 399 177 399 174 396 c 128,-1,3
 171 393 171 393 168 389.5 c 0,4,5
 166 386 166 386 164 384 c 0,6,7
 160 380 160 380 151.5 368 c 128,-1,8
 143 356 143 356 134 342 c 128,-1,9
 125 328 125 328 117 315.5 c 128,-1,10
 109 303 109 303 106 298 c 0,11,12
 104 296 104 296 100 294.5 c 128,-1,13
 96 293 96 293 91.5 291.5 c 128,-1,14
 87 290 87 290 83 289 c 0,15,16
 78 288 78 288 76 288 c 0,17,18
 72 288 72 288 70 291 c 128,-1,19
 68 294 68 294 67 298 c 128,-1,20
 66 302 66 302 66 306 c 128,-1,21
 66 310 66 310 66 312 c 0,22,23
 66 326 66 326 70 338 c 128,-1,24
 74 350 74 350 78.5 361 c 128,-1,25
 83 372 83 372 87.5 384 c 128,-1,26
 92 396 92 396 92 410 c 1,27,28
 82 410 82 410 76 408.5 c 128,-1,29
 70 407 70 407 65.5 406 c 128,-1,30
 61 405 61 405 56 404 c 128,-1,31
 51 403 51 403 42 403 c 0,32,33
 38 403 38 403 33 403.5 c 128,-1,34
 28 404 28 404 24.5 405.5 c 128,-1,35
 21 407 21 407 19 411 c 0,36,37
 18 415 18 415 20 422 c 0,38,39
 22 431 22 431 30.5 438.5 c 128,-1,40
 39 446 39 446 50.5 451 c 128,-1,41
 62 456 62 456 73 458.5 c 128,-1,42
 84 461 84 461 92 461 c 256,43,44
 100 461 100 461 103 458 c 128,-1,45
 106 455 106 455 108 451 c 128,-1,46
 110 447 110 447 112 444 c 128,-1,47
 114 441 114 441 120 441 c 2,48,-1
 123 441 l 2,49,50
 124 441 124 441 125 442 c 0,51,52
 127 444 127 444 130.5 447 c 128,-1,53
 134 450 134 450 134 452 c 0,54,55
 134 470 134 470 119.5 485.5 c 128,-1,56
 105 501 105 501 88 515.5 c 128,-1,57
 71 530 71 530 58 542 c 128,-1,58
 45 554 45 554 49 567 c 0,59,60
 50 569 50 569 57 576 c 128,-1,61
 64 583 64 583 68 586 c 1,62,-1
 70 586 l 2,63,-1
 71 586 l 0,64,-1
 72 586 l 1,65,66
 72 585 72 585 73 586 c 2,67,-1
 74 586 l 1,68,-1
 76 586 l 1,69,-1
 172 529 l 1,70,71
 170 534 170 534 170.5 542.5 c 128,-1,72
 171 551 171 551 173 559 c 128,-1,73
 175 567 175 567 179.5 572.5 c 128,-1,74
 184 578 184 578 193 578 c 0,75,76
 195 578 195 578 198.5 577.5 c 128,-1,77
 202 577 202 577 202 576 c 2,78,-1
 230 529 l 1,79,80
 244 538 244 538 262 553 c 128,-1,81
 280 568 280 568 300 583 c 128,-1,82
 320 598 320 598 341 610 c 128,-1,83
 362 622 362 622 384 625 c 1,84,85
 390 617 390 617 392 610.5 c 128,-1,86
 394 604 394 604 394 596 c 0,87,88
 394 586 394 586 379 573 c 128,-1,89
 364 560 364 560 344 546 c 128,-1,90
 324 532 324 532 305 520 c 128,-1,91
 286 508 286 508 279 500 c 1,92,93
 287 501 287 501 301 501.5 c 128,-1,94
 315 502 315 502 329.5 500 c 128,-1,95
 344 498 344 498 354 493.5 c 128,-1,96
 364 489 364 489 364 480 c 0,97,98
 364 466 364 466 355 460.5 c 128,-1,99
 346 455 346 455 335.5 451 c 128,-1,100
 325 447 325 447 316 441.5 c 128,-1,101
 307 436 307 436 307 423 c 0,102,103
 307 408 307 408 314 393.5 c 128,-1,104
 321 379 321 379 330.5 364.5 c 128,-1,105
 340 350 340 350 349.5 336 c 0,106,107
 358 322 358 322 364 308 c 1,108,109
 362 295 362 295 353 287 c 128,-1,110
 344 279 344 279 331 279 c 2,111,-1
 326 279 l 1,112,113
 324 281 324 281 319 284.5 c 128,-1,114
 314 288 314 288 308 292.5 c 128,-1,115
 302 297 302 297 296 301 c 0,116,117
 290 306 290 306 288 308 c 1,118,119
 290 286 290 286 281 264 c 128,-1,120
 272 242 272 242 250 230 c 1,121,122
 245 237 245 237 240.5 252.5 c 128,-1,123
 236 268 236 268 232.5 288.5 c 128,-1,124
 229 309 229 309 224.5 330.5 c 128,-1,125
 220 352 220 352 214 369 c 128,-1,126
 208 386 208 386 200.5 396 c 128,-1,127
 193 406 193 406 183 404 c 0,0,1
EndSplineSet
EndChar

StartChar: plus
Encoding: 43 43 14
Width: 471
VWidth: 768
Flags: HW
LayerCount: 2
Fore
SplineSet
183 192 m 2,0,1
 163 192 163 192 143.5 189 c 128,-1,2
 124 186 124 186 105 182 c 128,-1,3
 86 178 86 178 67 175 c 128,-1,4
 48 172 48 172 29 172 c 0,5,6
 14 172 14 172 11 179.5 c 0,7,8
 8 186 8 186 8 196 c 0,9,10
 8 209 8 209 11 213.5 c 128,-1,11
 14 218 14 218 29 221 c 0,12,13
 37 223 37 223 57.5 227 c 128,-1,14
 78 231 78 231 101 235.5 c 128,-1,15
 124 240 124 240 144.5 244 c 128,-1,16
 165 248 165 248 173 250 c 0,17,18
 178 251 178 251 180.5 255.5 c 128,-1,19
 183 260 183 260 183.5 265.5 c 128,-1,20
 184 271 184 271 184 275.5 c 128,-1,21
 184 280 184 280 184 283 c 0,22,23
 184 299 184 299 181 314.5 c 128,-1,24
 178 330 178 330 174 346 c 128,-1,25
 170 362 170 362 167 377.5 c 0,26,27
 164 394 164 394 164 410 c 2,28,-1
 164 413 l 1,29,30
 166 416 166 416 173 423 c 128,-1,31
 180 430 180 430 183 433 c 1,32,-1
 185 433 l 2,33,34
 186 433 186 433 186.5 433.5 c 0,35,-1
 188 434 l 256,36,37
 189 434 189 434 189 433.5 c 0,38,39
 188 433 188 433 190 433 c 2,40,-1
 193 433 l 1,41,-1
 212 413 l 1,42,-1
 250 279 l 1,43,-1
 260 268 l 1,44,-1
 276.5 265.5 l 0,45,46
 293 263 293 263 316 260 c 128,-1,47
 339 257 339 257 363.5 254 c 128,-1,48
 388 251 388 251 404 250 c 0,49,50
 407 250 407 250 415 249 c 128,-1,51
 423 248 423 248 431.5 246.5 c 128,-1,52
 440 245 440 245 446 241 c 128,-1,53
 452 237 452 237 452 230 c 0,54,55
 452 227 452 227 448 220.5 c 128,-1,56
 444 214 444 214 439.5 208 c 128,-1,57
 435 202 435 202 430 197 c 128,-1,58
 425 192 425 192 423 192 c 2,59,-1
 269 192 l 1,60,-1
 269 20 l 1,61,-1
 265.5 17 l 0,62,63
 262 14 262 14 258 11 c 128,-1,64
 254 8 254 8 249 5 c 128,-1,65
 244 2 244 2 241 0 c 0,66,67
 240 -1 240 -1 238 -1 c 2,68,-1
 236 -1 l 2,69,70
 225 -1 225 -1 219.5 9.5 c 128,-1,71
 214 20 214 20 213 33 c 128,-1,72
 212 46 212 46 212.5 58.5 c 0,73,74
 213 70 213 70 212 76 c 0,75,76
 211 83 211 83 208.5 99.5 c 128,-1,77
 206 116 206 116 203 134.5 c 128,-1,78
 200 153 200 153 197 169 c 128,-1,79
 194 185 194 185 193 192 c 1,80,-1
 183 192 l 2,0,1
EndSplineSet
EndChar

StartChar: comma
Encoding: 44 44 15
Width: 134
VWidth: 768
Flags: HW
LayerCount: 2
Fore
SplineSet
9 -158 m 0,0,1
 9 -134 9 -134 14 -110 c 128,-1,2
 19 -86 19 -86 24.5 -61 c 128,-1,3
 30 -36 30 -36 35 -11 c 128,-1,4
 40 14 40 14 40 38 c 0,5,6
 40 40 40 40 40 46 c 128,-1,7
 40 52 40 52 39.5 58 c 128,-1,8
 39 64 39 64 39 69 c 128,-1,9
 39 74 39 74 39 76 c 1,10,11
 25 75 25 75 22 81 c 128,-1,12
 19 87 19 87 19 95 c 0,13,14
 19 115 19 115 26 130.5 c 128,-1,15
 33 146 33 146 55 146 c 0,16,17
 75 146 75 146 83.5 132 c 128,-1,18
 92 118 92 118 95.5 99 c 128,-1,19
 99 80 99 80 98.5 60.5 c 128,-1,20
 98 41 98 41 98 29 c 0,21,22
 98 21 98 21 95.5 1.5 c 128,-1,23
 93 -18 93 -18 89.5 -43 c 128,-1,24
 86 -68 86 -68 80 -95 c 128,-1,25
 74 -122 74 -122 66 -144 c 128,-1,26
 58 -166 58 -166 49 -180 c 128,-1,27
 40 -194 40 -194 29 -194 c 0,28,29
 22 -194 22 -194 18 -190.5 c 128,-1,30
 14 -187 14 -187 12 -181.5 c 128,-1,31
 10 -176 10 -176 9.5 -169.5 c 128,-1,32
 9 -163 9 -163 9 -158 c 0,0,1
EndSplineSet
EndChar

StartChar: hyphen
Encoding: 45 45 16
Width: 384
VWidth: 768
Flags: HW
LayerCount: 2
Fore
SplineSet
254 327 m 0,0,1
 268 327 268 327 284 326.5 c 128,-1,2
 300 326 300 326 314 321 c 128,-1,3
 328 316 328 316 337 306.5 c 128,-1,4
 346 297 346 297 346 279 c 0,5,6
 346 258 346 258 327 258 c 0,7,8
 305 258 305 258 286.5 263.5 c 128,-1,9
 268 269 268 269 245 269 c 0,10,11
 216 269 216 269 187.5 265.5 c 128,-1,12
 159 262 159 262 130 258 c 128,-1,13
 101 254 101 254 72.5 250.5 c 128,-1,14
 44 247 44 247 15 247 c 1,15,16
 15 271 15 271 26 285 c 128,-1,17
 37 299 37 299 55 307.5 c 128,-1,18
 73 316 73 316 95.5 319 c 128,-1,19
 118 322 118 322 142 322.5 c 128,-1,20
 166 323 166 323 189 323.5 c 128,-1,21
 212 324 212 324 230 326 c 1,22,23
 233 326 l 0,24,25
 236 326 236 326 240 326.5 c 128,-1,26
 244 327 244 327 248 327 c 128,-1,27
 252 327 252 327 254 327 c 0,0,1
EndSplineSet
EndChar

StartChar: period
Encoding: 46 46 17
Width: 209
VWidth: 768
Flags: HW
LayerCount: 2
Fore
SplineSet
45 96 m 0,0,1
 45 104 45 104 51.5 120 c 128,-1,2
 58 136 58 136 67 152.5 c 128,-1,3
 76 169 76 169 85.5 181 c 128,-1,4
 95 193 95 193 102 193 c 0,5,6
 122 193 122 193 137 182.5 c 128,-1,7
 152 172 152 172 161.5 156 c 128,-1,8
 171 140 171 140 176 121 c 128,-1,9
 181 102 181 102 181 86 c 0,10,11
 181 74 181 74 174 59 c 128,-1,12
 167 44 167 44 156.5 31 c 128,-1,13
 146 18 146 18 133 9 c 128,-1,14
 120 0 120 0 107 0 c 0,15,16
 92 0 92 0 81 10.5 c 128,-1,17
 70 21 70 21 61.5 36.5 c 128,-1,18
 53 52 53 52 49 68.5 c 128,-1,19
 45 85 45 85 45 96 c 0,0,1
EndSplineSet
EndChar

StartChar: slash
Encoding: 47 47 18
Width: 317
VWidth: 768
Flags: HW
LayerCount: 2
Fore
SplineSet
10 34 m 0,0,1
 10 48 10 48 16.5 68.5 c 128,-1,2
 23 89 23 89 32.5 111 c 128,-1,3
 42 133 42 133 52 152.5 c 128,-1,4
 62 172 62 172 68 183 c 1,5,-1
 231 634 l 1,6,7
 234 648 234 648 237 669 c 128,-1,8
 240 690 240 690 245 710 c 128,-1,9
 250 730 250 730 258 747 c 128,-1,10
 266 764 266 764 279 768 c 1,11,12
 288 766 288 766 292 761 c 128,-1,13
 296 756 296 756 297.5 749 c 128,-1,14
 299 742 299 742 298.5 735 c 128,-1,15
 298 728 298 728 298 722 c 0,16,17
 298 707 298 707 289 667.5 c 128,-1,18
 280 628 280 628 264.5 574.5 c 128,-1,19
 249 521 249 521 228.5 457.5 c 128,-1,20
 208 394 208 394 186 330 c 128,-1,21
 164 266 164 266 141 206.5 c 128,-1,22
 118 147 118 147 98.5 101.5 c 128,-1,23
 79 56 79 56 63 28 c 128,-1,24
 47 0 47 0 39 0 c 0,25,26
 26 0 26 0 18 12 c 128,-1,27
 10 24 10 24 10 34 c 0,0,1
EndSplineSet
EndChar

StartChar: zero
Encoding: 48 48 19
Width: 441
VWidth: 768
Flags: HW
LayerCount: 2
Fore
SplineSet
19 223 m 0,0,1
 19 257 19 257 37.5 295.5 c 128,-1,2
 56 334 56 334 85.5 366.5 c 128,-1,3
 115 399 115 399 152 420.5 c 128,-1,4
 189 442 189 442 226 442 c 0,5,6
 249 442 249 442 271.5 431.5 c 128,-1,7
 294 421 294 421 315 403.5 c 128,-1,8
 336 386 336 386 354 363.5 c 128,-1,9
 372 341 372 341 385.5 316.5 c 128,-1,10
 399 292 399 292 406.5 267.5 c 128,-1,11
 414 243 414 243 414 222 c 0,12,13
 414 184 414 184 403 145 c 128,-1,14
 392 106 392 106 370 73.5 c 128,-1,15
 348 41 348 41 315 20 c 128,-1,16
 282 -1 282 -1 238 -1 c 0,17,18
 192 -1 192 -1 152 16.5 c 128,-1,19
 112 34 112 34 82 64.5 c 128,-1,20
 52 95 52 95 35.5 136 c 128,-1,21
 19 177 19 177 19 223 c 0,0,1
68 230 m 0,22,23
 64 195 64 195 74 164 c 128,-1,24
 84 133 84 133 105.5 109 c 128,-1,25
 127 85 127 85 157 71 c 128,-1,26
 187 57 187 57 222 57 c 0,27,28
 235 57 235 57 244.5 58.5 c 128,-1,29
 254 60 254 60 263.5 63.5 c 128,-1,30
 273 67 273 67 283.5 73 c 128,-1,31
 294 79 294 79 308 87 c 1,32,33
 310 101 310 101 317.5 111.5 c 128,-1,34
 325 122 325 122 333.5 134 c 128,-1,35
 342 146 342 146 349 162 c 128,-1,36
 356 178 356 178 356 203 c 0,37,38
 356 236 356 236 345.5 267 c 128,-1,39
 335 298 335 298 315 322 c 128,-1,40
 295 346 295 346 266 360.5 c 128,-1,41
 237 375 237 375 200 375 c 0,42,43
 174 375 174 375 151 361.5 c 128,-1,44
 128 348 128 348 110.5 326.5 c 128,-1,45
 93 305 93 305 82 279.5 c 128,-1,46
 71 254 71 254 68 230 c 0,22,23
EndSplineSet
EndChar

StartChar: one
Encoding: 49 49 20
Width: 326
VWidth: 768
Flags: HW
LayerCount: 2
Fore
SplineSet
183 20 m 0,0,1
 183 22 183 22 183 26.5 c 128,-1,2
 183 31 183 31 182.5 36.5 c 128,-1,3
 182 42 182 42 182 47 c 128,-1,4
 182 52 182 52 182 53 c 0,5,6
 182 63 182 63 183 82 c 128,-1,7
 184 101 184 101 186 124.5 c 128,-1,8
 188 148 188 148 190 174 c 128,-1,9
 192 200 192 200 194 223.5 c 128,-1,10
 196 247 196 247 197 265.5 c 128,-1,11
 198 284 198 284 198 295 c 0,12,13
 198 301 198 301 198 307 c 128,-1,14
 198 313 198 313 196.5 318 c 128,-1,15
 195 323 195 323 191 327.5 c 0,16,17
 186 332 186 332 178 334 c 1,18,19
 174 330 174 330 164 318.5 c 128,-1,20
 154 307 154 307 142 292 c 128,-1,21
 130 277 130 277 115 260.5 c 128,-1,22
 100 244 100 244 86.5 230.5 c 128,-1,23
 73 217 73 217 60 208 c 128,-1,24
 47 199 47 199 38 199 c 0,25,26
 14 199 14 199 14 224 c 2,27,-1
 14 230 l 1,28,29
 16 232 16 232 18.5 236 c 128,-1,30
 21 240 21 240 24 244.5 c 128,-1,31
 27 249 27 249 29.5 252.5 c 128,-1,32
 32 256 32 256 34 258 c 2,33,-1
 217 450 l 2,34,35
 225 458 225 458 230 473 c 128,-1,36
 235 488 235 488 238.5 505.5 c 128,-1,37
 242 523 242 523 245 540.5 c 128,-1,38
 248 558 248 558 252.5 572 c 128,-1,39
 257 586 257 586 264.5 595 c 128,-1,40
 272 604 272 604 283 604 c 0,41,42
 289 604 289 604 294 603 c 128,-1,43
 299 602 299 602 302 595 c 1,44,45
 302 593 302 593 302 588 c 128,-1,46
 302 583 302 583 302.5 577.5 c 128,-1,47
 303 572 303 572 303 567 c 128,-1,48
 303 562 303 562 303 561 c 0,49,50
 303 557 303 557 300.5 530.5 c 128,-1,51
 298 504 298 504 293.5 464 c 128,-1,52
 289 424 289 424 283 373.5 c 128,-1,53
 277 323 277 323 269.5 271.5 c 128,-1,54
 262 220 262 220 255 171 c 128,-1,55
 248 122 248 122 240 84 c 128,-1,56
 232 46 232 46 225 22.5 c 128,-1,57
 218 -1 218 -1 212 -1 c 0,58,59
 202 -1 202 -1 195.5 3.5 c 128,-1,60
 189 8 189 8 183 20 c 0,0,1
EndSplineSet
EndChar

StartChar: two
Encoding: 50 50 21
Width: 509
VWidth: 768
Flags: HW
LayerCount: 2
Fore
SplineSet
280 30 m 0,0,1
 244 30 244 30 210.5 24.5 c 128,-1,2
 177 19 177 19 140 19 c 0,3,4
 120 19 120 19 98.5 23.5 c 128,-1,5
 77 28 77 28 58.5 38.5 c 128,-1,6
 40 49 40 49 26.5 65.5 c 128,-1,7
 13 82 13 82 10 106 c 0,8,9
 8 121 8 121 14.5 130.5 c 128,-1,10
 21 140 21 140 31.5 145.5 c 128,-1,11
 42 151 42 151 55 152.5 c 128,-1,12
 68 154 68 154 77 154 c 0,13,14
 100 154 100 154 122.5 147 c 128,-1,15
 145 140 145 140 166.5 130.5 c 128,-1,16
 188 121 188 121 210 113.5 c 128,-1,17
 232 106 232 106 256 106 c 0,18,19
 277 106 277 106 295 120 c 128,-1,20
 313 134 313 134 327.5 156.5 c 128,-1,21
 342 179 342 179 353 207.5 c 128,-1,22
 364 236 364 236 371 263 c 128,-1,23
 378 290 378 290 382 313.5 c 128,-1,24
 386 337 386 337 386 350 c 0,25,26
 386 364 386 364 382 391 c 128,-1,27
 378 418 378 418 369 444 c 128,-1,28
 360 470 360 470 345.5 489.5 c 128,-1,29
 331 509 331 509 308 509 c 0,30,31
 287 509 287 509 276.5 494 c 128,-1,32
 266 479 266 479 260 460.5 c 128,-1,33
 254 442 254 442 248.5 425 c 128,-1,34
 243 408 243 408 231 404 c 1,35,36
 216 414 216 414 213.5 430 c 128,-1,37
 211 446 211 446 211 460 c 0,38,39
 211 480 211 480 218.5 497.5 c 128,-1,40
 226 515 226 515 240 528.5 c 128,-1,41
 254 542 254 542 273 549 c 128,-1,42
 292 556 292 556 313 556 c 0,43,44
 348 556 348 556 373 535 c 128,-1,45
 398 514 398 514 413.5 483 c 128,-1,46
 429 452 429 452 436.5 417 c 128,-1,47
 444 382 444 382 444 356 c 128,-1,48
 444 330 444 330 442.5 310 c 128,-1,49
 441 290 441 290 436.5 271 c 128,-1,50
 432 252 432 252 424 231.5 c 128,-1,51
 416 211 416 211 404 183 c 1,52,53
 397 178 397 178 387 166.5 c 128,-1,54
 377 155 377 155 368 142 c 128,-1,55
 359 129 359 129 352.5 116.5 c 128,-1,56
 346 104 346 104 346 96 c 0,57,58
 346 86 346 86 356.5 80.5 c 128,-1,59
 367 75 367 75 382 72 c 128,-1,60
 397 69 397 69 414 67 c 128,-1,61
 431 65 431 65 446 61.5 c 128,-1,62
 461 58 461 58 471.5 50.5 c 128,-1,63
 482 43 482 43 482 29 c 0,64,65
 482 19 482 19 472.5 9.5 c 0,66,67
 464 0 464 0 452 0 c 0,68,69
 430 0 430 0 408.5 4.5 c 128,-1,70
 387 9 387 9 365.5 14.5 c 128,-1,71
 344 20 344 20 323 25 c 128,-1,72
 302 30 302 30 280 30 c 0,0,1
EndSplineSet
EndChar

StartChar: three
Encoding: 51 51 22
Width: 441
VWidth: 768
Flags: HW
LayerCount: 2
Fore
SplineSet
20 125 m 0,0,1
 19 127 19 127 19 128 c 2,2,-1
 19 134 l 2,3,4
 19 151 19 151 28.5 162 c 128,-1,5
 38 173 38 173 55 173 c 0,6,7
 62 173 62 173 76.5 155 c 128,-1,8
 91 137 91 137 115.5 115 c 128,-1,9
 140 93 140 93 174.5 75 c 128,-1,10
 209 57 209 57 256 57 c 0,11,12
 274 57 274 57 292 59.5 c 128,-1,13
 310 62 310 62 324 69 c 128,-1,14
 338 76 338 76 347 88 c 128,-1,15
 356 100 356 100 356 119 c 0,16,17
 356 161 356 161 335 188 c 128,-1,18
 314 215 314 215 281.5 232.5 c 128,-1,19
 249 250 249 250 211 259 c 128,-1,20
 173 268 173 268 141 276 c 128,-1,21
 109 284 109 284 87.5 291 c 128,-1,22
 66 298 66 298 66 312 c 0,23,24
 66 314 66 314 67 315 c 128,-1,25
 68 316 68 316 68 317 c 0,26,27
 70 320 70 320 77 327 c 128,-1,28
 84 334 84 334 87 337 c 1,29,30
 97 339 97 339 117 342.5 c 128,-1,31
 137 346 137 346 160.5 351.5 c 128,-1,32
 184 357 184 357 208 365 c 128,-1,33
 232 373 232 373 252 383.5 c 128,-1,34
 272 394 272 394 285 408.5 c 128,-1,35
 298 423 298 423 298 442 c 0,36,37
 298 457 298 457 286 466.5 c 128,-1,38
 274 476 274 476 258.5 481.5 c 128,-1,39
 243 487 243 487 226.5 488.5 c 128,-1,40
 210 490 210 490 200 490 c 128,-1,41
 190 490 190 490 171 489.5 c 128,-1,42
 152 489 152 489 133.5 486.5 c 128,-1,43
 115 484 115 484 101 480.5 c 128,-1,44
 87 477 87 477 87 471 c 2,45,-1
 87 449 l 1,46,47
 64 449 64 449 51 460 c 128,-1,48
 38 471 38 471 38 494 c 0,49,50
 38 504 38 504 43.5 512 c 128,-1,51
 49 520 49 520 58 526 c 128,-1,52
 67 532 67 532 77 535 c 128,-1,53
 87 538 87 538 96 538 c 2,54,-1
 241 538 l 2,55,56
 264 538 264 538 283.5 527.5 c 128,-1,57
 303 517 303 517 317 500.5 c 128,-1,58
 331 484 331 484 338.5 463 c 128,-1,59
 346 442 346 442 346 421 c 256,60,61
 346 400 346 400 332.5 386 c 128,-1,62
 319 372 319 372 302.5 361 c 128,-1,63
 286 350 286 350 272 339 c 128,-1,64
 258 328 258 328 258 312 c 0,65,66
 258 311 258 311 259 309.5 c 0,67,-1
 260 308 l 0,68,69
 291 297 291 297 318.5 278 c 128,-1,70
 346 259 346 259 367.5 234 c 128,-1,71
 389 209 389 209 401.5 179 c 0,72,73
 414 150 414 150 414 116 c 0,74,75
 414 85 414 85 400.5 62.5 c 128,-1,76
 387 40 387 40 365.5 26.5 c 128,-1,77
 344 13 344 13 317.5 6 c 128,-1,78
 291 -1 291 -1 265 -1 c 1,79,80
 240 1 240 1 217.5 3.5 c 128,-1,81
 195 6 195 6 168 17.5 c 128,-1,82
 141 29 141 29 106 54 c 128,-1,83
 71 79 71 79 20 125 c 0,0,1
EndSplineSet
EndChar

StartChar: four
Encoding: 52 52 23
Width: 422
VWidth: 768
Flags: HW
LayerCount: 2
Fore
SplineSet
303 222 m 1,0,1
 289 214 289 214 271.5 202.5 c 128,-1,2
 254 191 254 191 235 181 c 128,-1,3
 216 171 216 171 196.5 165.5 c 128,-1,4
 177 160 177 160 158 164 c 1,5,6
 119 164 119 164 92.5 185.5 c 128,-1,7
 66 207 66 207 49.5 239.5 c 128,-1,8
 33 272 33 272 26 308 c 128,-1,9
 19 344 19 344 19 374 c 0,10,11
 19 407 19 407 22 433 c 128,-1,12
 25 459 25 459 31.5 484 c 128,-1,13
 38 509 38 509 47 535.5 c 128,-1,14
 56 562 56 562 68 596 c 1,15,16
 70 606 70 606 79 611 c 128,-1,17
 88 616 88 616 99 616.5 c 128,-1,18
 110 617 110 617 119 613 c 128,-1,19
 128 609 128 609 126 600 c 1,20,21
 126 574 126 574 116.5 547 c 128,-1,22
 107 520 107 520 96 492.5 c 128,-1,23
 85 465 85 465 75.5 436.5 c 128,-1,24
 66 408 66 408 66 379 c 0,25,26
 66 358 66 358 71.5 333 c 128,-1,27
 77 308 77 308 88.5 287 c 128,-1,28
 100 266 100 266 118 252 c 128,-1,29
 136 238 136 238 161 238 c 0,30,31
 195 238 195 238 222.5 254.5 c 128,-1,32
 250 271 250 271 272.5 295.5 c 128,-1,33
 295 320 295 320 311.5 349 c 128,-1,34
 328 378 328 378 339.5 403 c 128,-1,35
 351 428 351 428 357 444 c 0,36,37
 362 460 362 460 364 460 c 0,38,39
 388 460 388 460 395.5 452.5 c 0,40,41
 403 444 403 444 403 430 c 0,42,43
 403 410 403 410 398.5 385 c 128,-1,44
 394 360 394 360 388 334 c 128,-1,45
 382 308 382 308 378 282.5 c 128,-1,46
 374 257 374 257 374 236 c 0,47,48
 374 212 374 212 377 188 c 128,-1,49
 380 164 380 164 384 140 c 128,-1,50
 388 116 388 116 391 92.5 c 128,-1,51
 394 69 394 69 394 46 c 0,52,53
 394 26 394 26 382 12 c 128,-1,54
 370 -2 370 -2 350 -2 c 0,55,56
 337 -2 337 -2 331.5 14.5 c 128,-1,57
 326 31 326 31 323.5 56 c 128,-1,58
 321 81 321 81 321 110 c 128,-1,59
 321 139 321 139 320.5 164 c 128,-1,60
 320 189 320 189 316 205.5 c 128,-1,61
 312 222 312 222 303 222 c 1,0,1
EndSplineSet
EndChar

StartChar: five
Encoding: 53 53 24
Width: 585
VWidth: 768
Flags: HW
LayerCount: 2
Fore
SplineSet
19 145 m 1,0,1
 17 173 17 173 25 191.5 c 128,-1,2
 33 210 33 210 42.5 211.5 c 128,-1,3
 52 213 52 213 58.5 193 c 128,-1,4
 65 173 65 173 62 125 c 0,5,6
 62 115 62 115 75 106.5 c 128,-1,7
 88 98 88 98 108 92 c 128,-1,8
 128 86 128 86 152 81 c 128,-1,9
 176 76 176 76 197 72.5 c 128,-1,10
 218 69 218 69 234 67.5 c 128,-1,11
 250 66 250 66 254 66 c 0,12,13
 287 66 287 66 321 72 c 128,-1,14
 355 78 355 78 382.5 93.5 c 128,-1,15
 410 109 410 109 427 134.5 c 128,-1,16
 444 160 444 160 444 198 c 0,17,18
 444 240 444 240 429 269 c 128,-1,19
 414 298 414 298 389 317 c 128,-1,20
 364 336 364 336 332 347 c 128,-1,21
 300 358 300 358 265.5 364.5 c 128,-1,22
 231 371 231 371 197 375 c 128,-1,23
 163 379 163 379 134 384 c 1,24,25
 128 392 128 392 126 398.5 c 128,-1,26
 124 405 124 405 124 413 c 0,27,28
 124 415 124 415 124.5 418.5 c 0,29,-1
 125 422 l 0,30,31
 129 430 129 430 140.5 450.5 c 128,-1,32
 152 471 152 471 164 494.5 c 128,-1,33
 176 518 176 518 187 538.5 c 128,-1,34
 198 559 198 559 202 567 c 0,35,36
 203 568 203 568 204.5 571.5 c 128,-1,37
 206 575 206 575 207 579.5 c 128,-1,38
 208 584 208 584 210 588.5 c 0,39,40
 212 594 212 594 212 596 c 128,-1,41
 212 598 212 598 211.5 601 c 128,-1,42
 211 604 211 604 211 605 c 1,43,-1
 188 605 l 1,44,45
 188 625 188 625 199 637.5 c 128,-1,46
 210 650 210 650 227 657.5 c 128,-1,47
 244 665 244 665 266 668.5 c 128,-1,48
 288 672 288 672 310 673 c 128,-1,49
 332 674 332 674 351 673.5 c 128,-1,50
 370 673 370 673 384 673 c 0,51,52
 404 673 404 673 428 674 c 128,-1,53
 452 675 452 675 476 672.5 c 128,-1,54
 500 670 500 670 521 661 c 128,-1,55
 542 652 542 652 556 634 c 0,56,57
 556 633 556 633 556.5 631.5 c 128,-1,58
 557 630 557 630 557 629 c 0,59,60
 557 625 557 625 553.5 620.5 c 128,-1,61
 550 616 550 616 546 613 c 128,-1,62
 542 610 542 610 537 607.5 c 128,-1,63
 532 605 532 605 529 605 c 0,64,65
 527 605 527 605 518 606.5 c 128,-1,66
 509 608 509 608 499.5 609.5 c 128,-1,67
 490 611 490 611 481.5 612.5 c 128,-1,68
 473 614 473 614 471 614 c 256,69,70
 469 614 469 614 455.5 614.5 c 128,-1,71
 442 615 442 615 426 615.5 c 128,-1,72
 410 616 410 616 394 616 c 128,-1,73
 378 616 378 616 369 616 c 0,74,75
 362 616 362 616 351 616 c 128,-1,76
 340 616 340 616 328.5 615.5 c 128,-1,77
 317 615 317 615 308 614.5 c 128,-1,78
 299 614 299 614 298 614 c 2,79,-1
 268 605 l 1,80,81
 265 588 265 588 256 567.5 c 128,-1,82
 247 547 247 547 236.5 526 c 128,-1,83
 226 505 226 505 218.5 485.5 c 128,-1,84
 211 466 211 466 211 452 c 0,85,86
 211 450 211 450 211.5 446 c 0,87,-1
 212 442 l 0,88,89
 267 433 267 433 318.5 414 c 128,-1,90
 370 395 370 395 411 364 c 128,-1,91
 452 333 452 333 476 287.5 c 128,-1,92
 500 242 500 242 500 178 c 1,93,94
 504 140 504 140 486.5 108.5 c 128,-1,95
 469 77 469 77 439.5 53.5 c 128,-1,96
 410 30 410 30 373 16 c 128,-1,97
 336 2 336 2 303 0 c 1,98,99
 280 0 280 0 249.5 1 c 128,-1,100
 219 2 219 2 187.5 7 c 128,-1,101
 156 12 156 12 125.5 21.5 c 128,-1,102
 95 31 95 31 71.5 47 c 128,-1,103
 48 63 48 63 33.5 87 c 128,-1,104
 19 111 19 111 19 145 c 1,0,1
EndSplineSet
EndChar

StartChar: six
Encoding: 54 54 25
Width: 451
VWidth: 768
Flags: HW
LayerCount: 2
Fore
SplineSet
19 212 m 0,0,1
 19 251 19 251 31.5 295.5 c 128,-1,2
 44 340 44 340 66 383 c 128,-1,3
 88 426 88 426 119 466 c 128,-1,4
 150 506 150 506 186.5 537.5 c 128,-1,5
 223 569 223 569 263.5 589.5 c 128,-1,6
 304 610 304 610 346 614 c 0,7,8
 356 615 356 615 369 612.5 c 128,-1,9
 382 610 382 610 394 604 c 128,-1,10
 406 598 406 598 414.5 589 c 128,-1,11
 423 580 423 580 423 567 c 0,12,13
 423 561 423 561 421.5 554.5 c 128,-1,14
 420 548 420 548 417 541.5 c 128,-1,15
 414 535 414 535 409.5 530.5 c 128,-1,16
 405 526 405 526 398 526 c 0,17,18
 396 526 396 526 389 530.5 c 128,-1,19
 382 535 382 535 373.5 540.5 c 128,-1,20
 365 546 365 546 357.5 550.5 c 0,21,22
 350 554 350 554 346 556 c 1,23,-1
 341 556 l 2,24,25
 321 556 321 556 296.5 545.5 c 128,-1,26
 272 535 272 535 245.5 516.5 c 128,-1,27
 219 498 219 498 194.5 474.5 c 128,-1,28
 170 451 170 451 150 425.5 c 128,-1,29
 130 400 130 400 118 375.5 c 128,-1,30
 106 351 106 351 106 331 c 2,31,-1
 106 326 l 1,32,33
 127 334 127 334 143 338 c 128,-1,34
 159 342 159 342 174.5 344 c 128,-1,35
 190 346 190 346 205.5 346 c 0,36,37
 222 346 222 346 242 346 c 0,38,39
 281 346 281 346 314 333 c 128,-1,40
 347 320 347 320 371 296.5 c 128,-1,41
 395 273 395 273 409 240.5 c 128,-1,42
 423 208 423 208 423 168 c 0,43,44
 423 122 423 122 402 89.5 c 128,-1,45
 381 57 381 57 347.5 37 c 128,-1,46
 314 17 314 17 273 8 c 128,-1,47
 232 -1 232 -1 191 -1 c 0,48,49
 145 -1 145 -1 112.5 17.5 c 128,-1,50
 80 36 80 36 59 66 c 128,-1,51
 38 96 38 96 28.5 134 c 128,-1,52
 19 172 19 172 19 212 c 0,0,1
68 192 m 1,53,54
 81 130 81 130 116.5 100 c 128,-1,55
 152 70 152 70 206 66 c 1,56,57
 234 66 234 66 262 71 c 128,-1,58
 290 76 290 76 313 89 c 128,-1,59
 336 102 336 102 350.5 124 c 128,-1,60
 365 146 365 146 365 180 c 0,61,62
 365 198 365 198 353.5 219 c 128,-1,63
 342 240 342 240 325 258 c 128,-1,64
 308 276 308 276 287.5 287.5 c 128,-1,65
 267 299 267 299 249 299 c 0,66,67
 213 299 213 299 179 292.5 c 128,-1,68
 145 286 145 286 119 273 c 128,-1,69
 93 260 93 260 78.5 239.5 c 128,-1,70
 64 219 64 219 68 192 c 1,53,54
EndSplineSet
EndChar

StartChar: seven
Encoding: 55 55 26
Width: 422
VWidth: 768
Flags: HW
LayerCount: 2
Fore
SplineSet
183 29 m 1,0,1
 197 84 197 84 208 133 c 128,-1,2
 219 182 219 182 219 237 c 1,3,4
 186 237 186 237 150 240 c 128,-1,5
 114 243 114 243 84 243 c 1,6,7
 73 263 73 263 76.5 273.5 c 128,-1,8
 80 284 80 284 92 289 c 128,-1,9
 104 294 104 294 122 294.5 c 128,-1,10
 140 295 140 295 160.5 294.5 c 128,-1,11
 181 294 181 294 199.5 294 c 128,-1,12
 218 294 218 294 230 298 c 1,13,14
 231.5 301 l 0,15,16
 233 304 233 304 234.5 309 c 128,-1,17
 236 314 236 314 237.5 318.5 c 128,-1,18
 239 323 239 323 241 326 c 0,19,20
 246 346 246 346 249 364 c 128,-1,21
 252 382 252 382 252.5 401.5 c 128,-1,22
 253 421 253 421 252 442.5 c 128,-1,23
 251 464 251 464 250 490 c 1,24,25
 231 492 231 492 204.5 491 c 128,-1,26
 178 490 178 490 150 489 c 128,-1,27
 122 488 122 488 96 489 c 128,-1,28
 70 490 70 490 52.5 496 c 128,-1,29
 35 502 35 502 29.5 514 c 128,-1,30
 24 526 24 526 38 548 c 1,31,32
 57 546 57 546 89.5 543 c 128,-1,33
 122 540 122 540 160 538.5 c 128,-1,34
 198 537 198 537 237 536.5 c 128,-1,35
 276 536 276 536 308 538 c 1,36,37
 308 534 308 534 308 523.5 c 128,-1,38
 308 513 308 513 308 501.5 c 128,-1,39
 308 490 308 490 308 480 c 128,-1,40
 308 470 308 470 308 466 c 0,41,42
 308 422 308 422 303 380 c 128,-1,43
 298 338 298 338 298 296 c 1,44,45
 310 296 310 296 328 296 c 128,-1,46
 346 296 346 296 363 292.5 c 128,-1,47
 380 289 380 289 392 279.5 c 128,-1,48
 404 270 404 270 404 250 c 0,49,50
 404 240 404 240 401 230 c 128,-1,51
 398 220 398 220 385 220 c 0,52,53
 375 220 375 220 364.5 223 c 128,-1,54
 354 226 354 226 344 231 c 128,-1,55
 334 236 334 236 324 239 c 128,-1,56
 314 242 314 242 303 242 c 0,57,58
 299 242 299 242 293.5 242 c 128,-1,59
 288 242 288 242 288 241 c 2,60,-1
 241 20 l 1,61,62
 237 7 237 7 228.5 3 c 128,-1,63
 220 -1 220 -1 212 -1 c 0,64,65
 199 -1 199 -1 193 8.5 c 128,-1,66
 187 18 187 18 183 29 c 1,0,1
EndSplineSet
EndChar

StartChar: eight
Encoding: 56 56 27
Width: 384
VWidth: 768
Flags: HW
LayerCount: 2
Fore
SplineSet
49 221 m 1,0,1
 59 242 59 242 76.5 262.5 c 0,2,3
 94 284 94 284 116 308 c 1,4,-1
 116 310 l 2,5,-1
 116 311 l 0,6,-1
 116 312 l 0,7,8
 116 314 116 314 116 315 c 128,-1,9
 116 316 116 316 116 317 c 1,10,11
 102 329 102 329 84.5 341 c 128,-1,12
 67 353 67 353 52 367 c 128,-1,13
 37 381 37 381 27 397 c 128,-1,14
 17 413 17 413 19 433 c 1,15,16
 13 445 13 445 17.5 461.5 c 128,-1,17
 22 478 22 478 34 496 c 128,-1,18
 46 514 46 514 63 531 c 128,-1,19
 80 548 80 548 99 561 c 128,-1,20
 118 574 118 574 137 581.5 c 0,21,22
 156 588 156 588 172 586 c 1,23,24
 191 586 191 586 213 579.5 c 128,-1,25
 235 573 235 573 254 560.5 c 128,-1,26
 273 548 273 548 285.5 530.5 c 0,27,28
 298 512 298 512 298 490 c 0,29,30
 298 464 298 464 285 443 c 128,-1,31
 272 422 272 422 255 402 c 128,-1,32
 238 382 238 382 225 363 c 128,-1,33
 212 344 212 344 212 322 c 0,34,35
 212 311 212 311 222.5 298.5 c 128,-1,36
 233 286 233 286 249 272.5 c 128,-1,37
 265 259 265 259 284 243 c 128,-1,38
 303 227 303 227 318.5 208 c 128,-1,39
 334 189 334 189 345 166 c 0,40,41
 356 144 356 144 356 116 c 0,42,43
 356 62 356 62 325.5 30.5 c 0,44,45
 296 -1 296 -1 242 -1 c 0,46,47
 202 -1 202 -1 162 17 c 128,-1,48
 122 35 122 35 92.5 65.5 c 128,-1,49
 63 96 63 96 49.5 136 c 128,-1,50
 36 176 36 176 49 221 c 1,0,1
104 177 m 0,51,52
 104 151 104 151 114.5 127.5 c 128,-1,53
 125 104 125 104 143 86 c 128,-1,54
 161 68 161 68 184.5 57 c 128,-1,55
 208 46 208 46 235 46 c 0,56,57
 245 46 245 46 258 50 c 128,-1,58
 271 54 271 54 281.5 61 c 128,-1,59
 292 68 292 68 300 78 c 128,-1,60
 308 88 308 88 308 100 c 0,61,62
 308 129 308 129 295.5 156.5 c 128,-1,63
 283 184 283 184 263.5 207 c 128,-1,64
 244 230 244 230 220 248 c 128,-1,65
 196 266 196 266 172 279 c 0,66,67
 171 279 171 279 168 279.5 c 0,68,69
 166 280 166 280 164 280 c 0,70,71
 154 280 154 280 142.5 267.5 c 128,-1,72
 131 255 131 255 123 237.5 c 128,-1,73
 115 220 115 220 109.5 203 c 128,-1,74
 104 186 104 186 104 177 c 0,51,52
68 442 m 1,75,76
 65 428 65 428 75.5 414 c 128,-1,77
 86 400 86 400 101 388 c 128,-1,78
 116 376 116 376 131.5 367.5 c 0,79,80
 147 360 147 360 154 356 c 1,81,82
 158 360 158 360 169 370 c 128,-1,83
 180 380 180 380 192 392.5 c 128,-1,84
 204 405 204 405 213 417.5 c 128,-1,85
 222 430 222 430 222 437 c 1,86,87
 232 446 232 446 236.5 460.5 c 128,-1,88
 241 475 241 475 236.5 488.5 c 128,-1,89
 232 502 232 502 216.5 512.5 c 128,-1,90
 201 523 201 523 172 524 c 1,91,92
 152 524 152 524 135.5 516 c 128,-1,93
 119 508 119 508 106 495.5 c 128,-1,94
 93 483 93 483 83.5 468.5 c 128,-1,95
 74 454 74 454 68 442 c 1,75,76
EndSplineSet
EndChar

StartChar: nine
Encoding: 57 57 28
Width: 308
VWidth: 768
Flags: HW
LayerCount: 2
Fore
SplineSet
10 452 m 0,0,1
 10 485 10 485 20 514.5 c 128,-1,2
 30 544 30 544 49 566.5 c 128,-1,3
 68 589 68 589 95 602 c 128,-1,4
 122 615 122 615 156 615 c 0,5,6
 184 615 184 615 209.5 604.5 c 128,-1,7
 235 594 235 594 254.5 576 c 128,-1,8
 274 558 274 558 286 533 c 128,-1,9
 298 508 298 508 298 480 c 1,10,11
 289 439 289 439 283.5 391.5 c 128,-1,12
 278 344 278 344 273.5 296 c 128,-1,13
 269 248 269 248 267.5 202.5 c 128,-1,14
 266 157 266 157 266 120.5 c 128,-1,15
 266 84 266 84 267 59 c 128,-1,16
 268 34 268 34 272 26 c 1,17,18
 272 14 272 14 261 11 c 128,-1,19
 250 8 250 8 232 8 c 0,20,21
 221 8 221 8 217 29 c 128,-1,22
 213 50 213 50 212 81.5 c 128,-1,23
 211 113 211 113 212.5 150.5 c 128,-1,24
 214 188 214 188 214 220.5 c 128,-1,25
 214 253 214 253 211.5 274.5 c 128,-1,26
 209 296 209 296 202 298 c 0,27,28
 166 304 166 304 131.5 310 c 128,-1,29
 97 316 97 316 70 331 c 128,-1,30
 43 346 43 346 26.5 374 c 128,-1,31
 10 402 10 402 10 452 c 0,0,1
67 459 m 0,32,33
 67 441 67 441 72.5 422.5 c 128,-1,34
 78 404 78 404 89 388.5 c 128,-1,35
 100 373 100 373 116 363.5 c 128,-1,36
 132 354 132 354 153 354 c 0,37,38
 163 354 163 354 173.5 355 c 128,-1,39
 184 356 184 356 193 364 c 1,40,41
 194 375 194 375 200 399 c 128,-1,42
 206 423 206 423 213 448 c 128,-1,43
 220 473 220 473 226 493.5 c 128,-1,44
 232 514 232 514 232 518 c 0,45,46
 232 528 232 528 224.5 537 c 128,-1,47
 217 546 217 546 206.5 553 c 128,-1,48
 196 560 196 560 184 564 c 128,-1,49
 172 568 172 568 164 568 c 0,50,51
 114 568 114 568 90.5 537.5 c 128,-1,52
 67 507 67 507 67 459 c 0,32,33
EndSplineSet
EndChar

StartChar: colon
Encoding: 58 58 29
Width: 87
VWidth: 768
Flags: HW
LayerCount: 2
Fore
SplineSet
20 100 m 0,0,1
 20 112 20 112 29 119 c 128,-1,2
 38 126 38 126 49 126 c 0,3,4
 61 126 61 126 64.5 119 c 128,-1,5
 68 112 68 112 68 100 c 0,6,7
 68 86 68 86 62.5 81 c 128,-1,8
 57 76 57 76 42 76 c 0,9,10
 20 75 20 75 20 100 c 0,0,1
19 322 m 0,11,12
 19 330 19 330 21 338 c 128,-1,13
 23 346 23 346 34 346 c 0,14,15
 43 346 43 346 51.5 340 c 128,-1,16
 60 334 60 334 66 325.5 c 128,-1,17
 72 317 72 317 75.5 307 c 0,18,19
 78 297 78 297 76 288 c 0,20,21
 76 286 76 286 69 279 c 128,-1,22
 62 272 62 272 58 268 c 0,23,24
 56 267 56 267 56 268 c 2,25,-1
 53 268 l 2,26,27
 45 268 45 268 38.5 274 c 128,-1,28
 32 280 32 280 27.5 288.5 c 128,-1,29
 23 297 23 297 21 306 c 128,-1,30
 19 315 19 315 19 322 c 0,11,12
EndSplineSet
EndChar

StartChar: semicolon
Encoding: 59 59 30
Width: 132
VWidth: 768
Flags: HW
LayerCount: 2
Fore
SplineSet
-15 -158 m 0,0,1
 -15 -125 -15 -125 -7 -103.5 c 128,-1,2
 1 -82 1 -82 11.5 -63 c 128,-1,3
 22 -44 22 -44 32.5 -23 c 128,-1,4
 43 -2 43 -2 49 29 c 0,5,6
 51 39 51 39 50.5 54.5 c 128,-1,7
 50 70 50 70 52 87 c 128,-1,8
 54 104 54 104 59 120 c 128,-1,9
 64 136 64 136 76 145 c 1,10,11
 97 132 97 132 101.5 110.5 c 128,-1,12
 106 89 106 89 106 68 c 0,13,14
 106 52 106 52 103 26 c 128,-1,15
 100 0 100 0 94 -28.5 c 128,-1,16
 88 -57 88 -57 78.5 -85.5 c 128,-1,17
 69 -114 69 -114 57.5 -137 c 128,-1,18
 46 -160 46 -160 31 -174 c 128,-1,19
 16 -188 16 -188 0 -188 c 0,20,21
 -7 -188 -7 -188 -10.5 -185 c 128,-1,22
 -14 -182 -14 -182 -15 -177 c 128,-1,23
 -16 -172 -16 -172 -15.5 -167 c 128,-1,24
 -15 -162 -15 -162 -15 -158 c 0,0,1
20 384 m 1,25,26
 19 396 19 396 29.5 398.5 c 128,-1,27
 40 401 40 401 51.5 398.5 c 128,-1,28
 63 396 63 396 71.5 391 c 128,-1,29
 80 386 80 386 76 384 c 1,30,31
 84 364 84 364 85.5 351 c 128,-1,32
 87 338 87 338 83.5 329 c 128,-1,33
 80 320 80 320 74 315 c 128,-1,34
 68 310 68 310 62 308 c 1,35,36
 48 308 48 308 39 315 c 128,-1,37
 30 322 30 322 25 333 c 128,-1,38
 20 344 20 344 19 357 c 128,-1,39
 18 370 18 370 20 384 c 1,25,26
EndSplineSet
EndChar

StartChar: less
Encoding: 60 60 31
Width: 499
VWidth: 768
Flags: HW
LayerCount: 2
Fore
SplineSet
77 183 m 2,0,1
 79 184 79 184 93 194.5 c 128,-1,2
 107 205 107 205 130 220.5 c 128,-1,3
 153 236 153 236 181 256 c 128,-1,4
 209 276 209 276 237.5 296 c 128,-1,5
 266 316 266 316 292 334 c 128,-1,6
 318 352 318 352 337 364 c 0,7,8
 347 372 347 372 360.5 380 c 128,-1,9
 374 388 374 388 388 396 c 128,-1,10
 402 404 402 404 416 410.5 c 128,-1,11
 430 417 430 417 442 422 c 1,12,13
 444 420 444 420 448.5 416.5 c 128,-1,14
 453 413 453 413 457.5 408.5 c 128,-1,15
 462 404 462 404 466 400 c 128,-1,16
 470 396 470 396 471 394 c 0,17,18
 471 393 471 393 459 384 c 128,-1,19
 447 375 447 375 428 362.5 c 128,-1,20
 409 350 409 350 386.5 334.5 c 128,-1,21
 364 319 364 319 343.5 305.5 c 128,-1,22
 323 292 323 292 307.5 282 c 128,-1,23
 292 272 292 272 289 268 c 0,24,25
 267 253 267 253 242.5 238.5 c 128,-1,26
 218 224 218 224 194 207.5 c 128,-1,27
 170 191 170 191 147 173 c 128,-1,28
 124 155 124 155 106 134 c 1,29,30
 108 130 108 130 121 125.5 c 128,-1,31
 134 121 134 121 152 117 c 128,-1,32
 170 113 170 113 190.5 109.5 c 128,-1,33
 211 106 211 106 229.5 103 c 128,-1,34
 248 100 248 100 261.5 98 c 128,-1,35
 275 96 275 96 279 96 c 0,36,37
 292 94 292 94 318 90 c 128,-1,38
 344 86 344 86 370 78 c 128,-1,39
 396 70 396 70 415.5 57 c 128,-1,40
 435 44 435 44 435 24 c 0,41,42
 435 0 435 0 409 0 c 0,43,44
 399 0 399 0 388.5 4 c 128,-1,45
 378 8 378 8 367.5 12.5 c 128,-1,46
 357 17 357 17 347 22 c 128,-1,47
 337 27 337 27 327 29 c 0,48,49
 319 31 319 31 299 33 c 128,-1,50
 279 35 279 35 252 38 c 128,-1,51
 225 41 225 41 193.5 45 c 128,-1,52
 162 49 162 49 131 53.5 c 128,-1,53
 100 58 100 58 73 64.5 c 128,-1,54
 46 71 46 71 28.5 78.5 c 128,-1,55
 11 86 11 86 4.5 95 c 128,-1,56
 -2 104 -2 104 10 116 c 2,57,-1
 77 183 l 2,0,1
EndSplineSet
EndChar

StartChar: equal
Encoding: 61 61 32
Width: 537
VWidth: 768
Flags: HW
LayerCount: 2
Fore
SplineSet
20 172 m 0,0,1
 20 174 20 174 23.5 178.5 c 128,-1,2
 27 183 27 183 29 183 c 0,3,4
 72 186 72 186 104.5 188 c 128,-1,5
 137 190 137 190 167 191 c 128,-1,6
 197 192 197 192 227.5 192.5 c 128,-1,7
 258 193 258 193 296 193 c 0,8,9
 312 193 312 193 340 195 c 128,-1,10
 368 197 368 197 396.5 195.5 c 128,-1,11
 425 194 425 194 448.5 185 c 128,-1,12
 472 176 472 176 480 154 c 1,13,-1
 442 134 l 1,14,-1
 76 134 l 2,15,16
 63 134 63 134 53 135 c 128,-1,17
 43 136 43 136 35.5 139.5 c 128,-1,18
 28 143 28 143 24 150.5 c 128,-1,19
 20 158 20 158 20 172 c 0,0,1
406 346 m 0,20,21
 384 346 384 346 359 343 c 128,-1,22
 334 340 334 340 296.5 336.5 c 128,-1,23
 259 333 259 333 201.5 331.5 c 128,-1,24
 144 330 144 330 55 334 c 0,25,26
 43 334 43 334 31 339 c 128,-1,27
 19 344 19 344 19 360 c 1,28,29
 27 373 27 373 47.5 380 c 128,-1,30
 68 387 68 387 98.5 390.5 c 128,-1,31
 129 394 129 394 165.5 395 c 128,-1,32
 202 396 202 396 241 395.5 c 128,-1,33
 280 395 280 395 319 394.5 c 128,-1,34
 358 394 358 394 394 394 c 0,35,36
 409 394 409 394 428.5 394 c 128,-1,37
 448 394 448 394 466 388.5 c 128,-1,38
 484 383 484 383 496.5 371 c 128,-1,39
 509 359 509 359 509 337 c 0,40,41
 509 335 509 335 501.5 327.5 c 128,-1,42
 494 320 494 320 490 317 c 0,43,44
 488 316 l 0,45,46
 486 315 486 315 484 316 c 0,47,48
 474 316 474 316 464.5 321 c 128,-1,49
 455 326 455 326 445.5 331.5 c 128,-1,50
 436 337 436 337 426.5 341.5 c 128,-1,51
 417 346 417 346 406 346 c 0,20,21
EndSplineSet
EndChar

StartChar: greater
Encoding: 62 62 33
Width: 413
VWidth: 768
Flags: HW
LayerCount: 2
Fore
SplineSet
28 34 m 1,0,1
 30 43 30 43 47.5 58.5 c 128,-1,2
 65 74 65 74 90.5 92.5 c 128,-1,3
 116 111 116 111 147.5 132.5 c 128,-1,4
 179 154 179 154 209 175 c 128,-1,5
 239 196 239 196 265.5 217 c 128,-1,6
 292 238 292 238 307 256 c 128,-1,7
 322 274 322 274 324 287.5 c 0,8,9
 326 302 326 302 308 308 c 1,10,11
 290 309 290 309 263.5 314.5 c 128,-1,12
 237 320 237 320 207.5 330.5 c 128,-1,13
 178 341 178 341 148 354.5 c 128,-1,14
 118 368 118 368 93 383 c 128,-1,15
 68 398 68 398 51 413 c 128,-1,16
 34 428 34 428 29 442 c 0,17,18
 29 443 29 443 28.5 446.5 c 128,-1,19
 28 450 28 450 28 452 c 0,20,21
 28 465 28 465 37.5 468.5 c 0,22,23
 46 472 46 472 58 472 c 0,24,25
 74 472 74 472 85.5 465 c 128,-1,26
 97 458 97 458 107 448.5 c 128,-1,27
 117 439 117 439 128.5 428.5 c 128,-1,28
 140 418 140 418 154 413 c 0,29,30
 206 393 206 393 266.5 373.5 c 128,-1,31
 327 354 327 354 385 346 c 1,32,33
 401 341 401 341 403 331.5 c 128,-1,34
 405 322 405 322 405 310 c 1,35,36
 409 292 409 292 403 277 c 128,-1,37
 397 262 397 262 386 249.5 c 128,-1,38
 375 237 375 237 361.5 225.5 c 128,-1,39
 348 214 348 214 337 202 c 1,40,41
 332 198 332 198 309 181 c 128,-1,42
 286 164 286 164 255.5 141 c 128,-1,43
 225 118 225 118 190.5 93.5 c 128,-1,44
 156 69 156 69 126.5 48 c 128,-1,45
 97 27 97 27 76.5 13 c 128,-1,46
 56 -1 56 -1 52 -1 c 0,47,48
 35 -1 35 -1 31.5 9.5 c 128,-1,49
 28 20 28 20 28 34 c 1,0,1
EndSplineSet
EndChar

StartChar: question
Encoding: 63 63 34
Width: 279
VWidth: 768
Flags: HW
LayerCount: 2
Fore
SplineSet
182 38 m 0,0,1
 182 56 182 56 193 66.5 c 128,-1,2
 204 77 204 77 221 77 c 0,3,4
 237 77 237 77 244 62.5 c 128,-1,5
 251 48 251 48 251 34 c 0,6,7
 251 23 251 23 243.5 11.5 c 128,-1,8
 236 0 236 0 221 0 c 0,9,10
 201 0 201 0 191.5 10.5 c 128,-1,11
 182 21 182 21 182 38 c 0,0,1
77 384 m 0,12,13
 77 414 77 414 86.5 442 c 128,-1,14
 96 470 96 470 110 497 c 128,-1,15
 124 524 124 524 140 551 c 128,-1,16
 156 578 156 578 170 605.5 c 128,-1,17
 184 633 184 633 193 662 c 128,-1,18
 202 691 202 691 202 723 c 0,19,20
 202 775 202 775 174 800.5 c 128,-1,21
 146 826 146 826 95 826 c 0,22,23
 75 826 75 826 53 815.5 c 0,24,25
 31 806 31 806 20 788 c 1,26,27
 14 789 14 789 11.5 794 c 128,-1,28
 9 799 9 799 8.5 805 c 128,-1,29
 8 811 8 811 8.5 816 c 128,-1,30
 9 821 9 821 9 823 c 0,31,32
 9 839 9 839 19 850.5 c 128,-1,33
 29 862 29 862 44 869 c 128,-1,34
 59 876 59 876 75.5 880 c 128,-1,35
 92 884 92 884 106 884 c 0,36,37
 144 884 144 884 172.5 868.5 c 128,-1,38
 201 853 201 853 220.5 827.5 c 128,-1,39
 240 802 240 802 250 770.5 c 128,-1,40
 260 739 260 739 260 706 c 0,41,42
 260 668 260 668 247.5 627 c 128,-1,43
 235 586 235 586 215.5 546.5 c 128,-1,44
 196 507 196 507 174.5 470.5 c 128,-1,45
 153 434 153 434 135 404 c 1,46,47
 137 400 137 400 140 395 c 128,-1,48
 143 390 143 390 153 386 c 128,-1,49
 163 382 163 382 181.5 378 c 128,-1,50
 200 374 200 374 231 370 c 0,51,52
 236 370 236 370 240 366 c 128,-1,53
 244 362 244 362 246.5 356.5 c 128,-1,54
 249 351 249 351 250 345 c 0,55,56
 251 338 251 338 251 334 c 0,57,58
 251 325 251 325 244.5 321.5 c 128,-1,59
 238 318 238 318 228 316.5 c 128,-1,60
 218 315 218 315 208.5 315.5 c 128,-1,61
 199 316 199 316 193 316 c 0,62,63
 178 316 178 316 158 318.5 c 128,-1,64
 138 321 138 321 120 328.5 c 128,-1,65
 102 336 102 336 89.5 349 c 128,-1,66
 77 362 77 362 77 384 c 0,12,13
EndSplineSet
EndChar

StartChar: at
Encoding: 64 64 35
Width: 835
VWidth: 768
Flags: HW
LayerCount: 2
Fore
SplineSet
384 0 m 1,0,1
 302 34 302 34 235 84.5 c 128,-1,2
 168 135 168 135 121 200 c 128,-1,3
 74 265 74 265 47 344.5 c 128,-1,4
 20 424 20 424 19 517 c 1,5,6
 19 564 19 564 32.5 612 c 128,-1,7
 46 660 46 660 70.5 704 c 128,-1,8
 95 748 95 748 129.5 786.5 c 128,-1,9
 164 825 164 825 205 853 c 128,-1,10
 246 881 246 881 293 897.5 c 128,-1,11
 340 914 340 914 392 914 c 0,12,13
 424 914 424 914 460 904.5 c 128,-1,14
 496 895 496 895 533.5 878.5 c 128,-1,15
 571 862 571 862 607 840 c 128,-1,16
 643 818 643 818 675 793.5 c 128,-1,17
 707 769 707 769 733.5 742.5 c 128,-1,18
 760 716 760 716 778 692 c 0,19,20
 788 678 788 678 794 656 c 128,-1,21
 800 634 800 634 803 611.5 c 128,-1,22
 806 589 806 589 806.5 566.5 c 128,-1,23
 807 544 807 544 807 529 c 0,24,25
 807 506 807 506 803.5 476.5 c 128,-1,26
 800 447 800 447 792.5 417 c 128,-1,27
 785 387 785 387 772.5 358.5 c 128,-1,28
 760 330 760 330 742 308 c 128,-1,29
 724 286 724 286 699.5 273 c 0,30,31
 676 260 676 260 644 260 c 0,32,33
 630 260 630 260 616 264.5 c 128,-1,34
 602 269 602 269 590 277.5 c 128,-1,35
 578 286 578 286 567 296.5 c 128,-1,36
 556 307 556 307 548 317 c 1,37,38
 534 299 534 299 514 280.5 c 128,-1,39
 494 262 494 262 471.5 246.5 c 128,-1,40
 449 231 449 231 424.5 221.5 c 128,-1,41
 400 212 400 212 375 212 c 0,42,43
 339 212 339 212 310.5 225.5 c 128,-1,44
 282 239 282 239 262 262.5 c 128,-1,45
 242 286 242 286 231 316 c 128,-1,46
 220 346 220 346 220 379 c 0,47,48
 220 430 220 430 238 478 c 128,-1,49
 256 526 256 526 288.5 563 c 128,-1,50
 321 600 321 600 366.5 622 c 128,-1,51
 412 644 412 644 466 644 c 0,52,53
 482 644 482 644 512 636.5 c 128,-1,54
 542 629 542 629 571 615 c 128,-1,55
 600 601 600 601 622 581.5 c 128,-1,56
 644 562 644 562 644 538 c 0,57,58
 644 524 644 524 635 510.5 c 128,-1,59
 626 497 626 497 614 490 c 1,60,61
 600 515 600 515 584 534.5 c 128,-1,62
 568 554 568 554 549 567.5 c 128,-1,63
 530 581 530 581 506 588.5 c 128,-1,64
 482 596 482 596 452 596 c 0,65,66
 407 596 407 596 372.5 577 c 128,-1,67
 338 558 338 558 315 527 c 128,-1,68
 292 496 292 496 280 457 c 128,-1,69
 268 418 268 418 268 379 c 0,70,71
 268 355 268 355 274 334.5 c 128,-1,72
 280 314 280 314 292 299.5 c 128,-1,73
 304 285 304 285 324 276.5 c 128,-1,74
 344 268 344 268 370 268 c 0,75,76
 390 268 390 268 410.5 277 c 128,-1,77
 431 286 431 286 450.5 300.5 c 128,-1,78
 470 315 470 315 485 332 c 0,79,80
 500 348 500 348 509 364 c 1,81,82
 508 367 508 367 507 379.5 c 128,-1,83
 506 392 506 392 506 408 c 128,-1,84
 506 424 506 424 507 442 c 128,-1,85
 508 460 508 460 512.5 475 c 128,-1,86
 517 490 517 490 525 500 c 0,87,88
 534 510 534 510 548 510 c 128,-1,89
 562 510 562 510 570 500 c 128,-1,90
 578 490 578 490 582 475 c 128,-1,91
 586 460 586 460 588 442 c 128,-1,92
 590 424 590 424 589.5 408 c 128,-1,93
 589 392 589 392 587.5 380 c 128,-1,94
 586 368 586 368 586 364 c 1,95,96
 588 362 588 362 595 353.5 c 128,-1,97
 602 345 602 345 612 336 c 128,-1,98
 622 327 622 327 633 321 c 128,-1,99
 644 315 644 315 652 317 c 0,100,101
 680 325 680 325 700 351 c 128,-1,102
 720 377 720 377 733 409.5 c 128,-1,103
 746 442 746 442 752.5 474 c 128,-1,104
 759 506 759 506 759 526 c 1,105,106
 761 582 761 582 743 627 c 128,-1,107
 725 672 725 672 694.5 708 c 128,-1,108
 664 744 664 744 624 770.5 c 128,-1,109
 584 797 584 797 541.5 816.5 c 128,-1,110
 499 836 499 836 457.5 847.5 c 128,-1,111
 416 859 416 859 384 864 c 1,112,113
 322 860 322 860 263 828.5 c 128,-1,114
 204 797 204 797 158 749.5 c 128,-1,115
 112 702 112 702 84.5 642.5 c 128,-1,116
 57 583 57 583 57 521 c 0,117,118
 57 468 57 468 73 412 c 128,-1,119
 89 356 89 356 117.5 303 c 128,-1,120
 146 250 146 250 185.5 203.5 c 128,-1,121
 225 157 225 157 272.5 121.5 c 128,-1,122
 320 86 320 86 372 66 c 128,-1,123
 424 46 424 46 480 46 c 0,124,125
 517 46 517 46 552.5 54 c 128,-1,126
 588 62 588 62 623 71.5 c 128,-1,127
 658 81 658 81 693 89 c 128,-1,128
 728 97 728 97 764 97 c 1,129,130
 774 80 774 80 762 65 c 128,-1,131
 750 50 750 50 723 38 c 128,-1,132
 696 26 696 26 656.5 17 c 128,-1,133
 617 8 617 8 571.5 3 c 128,-1,134
 526 -2 526 -2 477.5 -2.5 c 128,-1,135
 429 -3 429 -3 384 0 c 1,0,1
EndSplineSet
EndChar

StartChar: A
Encoding: 65 65 36
Width: 576
VWidth: 768
Flags: HW
LayerCount: 2
Fore
SplineSet
470 23 m 0,0,1
 470 40 470 40 473 57.5 c 128,-1,2
 476 75 476 75 480 92.5 c 128,-1,3
 484 110 484 110 487 128 c 128,-1,4
 490 146 490 146 490 164 c 0,5,6
 490 192 490 192 488 224 c 128,-1,7
 486 256 486 256 478 285 c 1,8,9
 450 279 450 279 420.5 280.5 c 128,-1,10
 391 282 391 282 361.5 286 c 128,-1,11
 332 290 332 290 302 294 c 128,-1,12
 272 298 272 298 242 298 c 0,13,14
 233 298 233 298 213.5 298 c 128,-1,15
 194 298 194 298 173.5 297 c 128,-1,16
 153 296 153 296 136 294 c 0,17,18
 120 292 120 292 116 288 c 2,19,-1
 106 279 l 2,20,21
 106 278 106 278 105.5 274.5 c 128,-1,22
 105 271 105 271 105 266 c 128,-1,23
 105 261 105 261 104.5 256 c 128,-1,24
 104 251 104 251 104 248 c 0,25,26
 104 219 104 219 108.5 189.5 c 128,-1,27
 113 160 113 160 118.5 132 c 128,-1,28
 124 104 124 104 129 75.5 c 0,29,30
 134 48 134 48 134 20 c 2,31,-1
 134 10 l 1,32,33
 119 -4 119 -4 107 0.5 c 128,-1,34
 95 5 95 5 85.5 22.5 c 128,-1,35
 76 40 76 40 69.5 67.5 c 128,-1,36
 63 95 63 95 59.5 127.5 c 128,-1,37
 56 160 56 160 55.5 194 c 128,-1,38
 55 228 55 228 58 260 c 1,39,40
 56 262 56 262 50 268.5 c 128,-1,41
 44 275 44 275 38 282.5 c 128,-1,42
 32 290 32 290 26.5 297 c 0,43,44
 22 304 22 304 20 308 c 0,45,-1
 19 310 l 2,46,-1
 19 312 l 2,47,48
 19 319 19 319 22.5 322 c 128,-1,49
 26 325 26 325 31 326.5 c 128,-1,50
 36 328 36 328 41 330 c 128,-1,51
 46 332 46 332 49 337 c 0,52,53
 49 338 49 338 49 342 c 128,-1,54
 49 346 49 346 49 350.5 c 128,-1,55
 49 355 49 355 49 359 c 0,56,57
 49 362 49 362 49 364 c 0,58,59
 53 406 53 406 55.5 453.5 c 128,-1,60
 58 501 58 501 64.5 546.5 c 128,-1,61
 71 592 71 592 84.5 634 c 128,-1,62
 98 676 98 676 122 708 c 128,-1,63
 146 740 146 740 183 759 c 128,-1,64
 220 778 220 778 276 778 c 0,65,66
 320 778 320 778 355.5 757 c 128,-1,67
 391 736 391 736 418.5 700.5 c 128,-1,68
 446 665 446 665 466.5 618.5 c 128,-1,69
 487 572 487 572 501 520 c 128,-1,70
 515 468 515 468 524.5 415 c 128,-1,71
 534 362 534 362 539 314 c 128,-1,72
 544 266 544 266 546 226 c 128,-1,73
 548 186 548 186 548 160 c 0,74,75
 548 141 548 141 548 126 c 128,-1,76
 548 111 548 111 546.5 96.5 c 128,-1,77
 545 82 545 82 543.5 66 c 128,-1,78
 542 50 542 50 538 29 c 1,79,80
 530 18 530 18 517.5 8.5 c 128,-1,81
 505 -1 505 -1 490 -1 c 0,82,83
 477 -1 477 -1 473.5 5.5 c 128,-1,84
 470 12 470 12 470 23 c 0,0,1
446 326 m 2,85,86
 449 326 449 326 453.5 326.5 c 128,-1,87
 458 327 458 327 461 331.5 c 128,-1,88
 464 336 464 336 467 346 c 128,-1,89
 470 356 470 356 472 374 c 1,90,91
 472 403 472 403 466.5 440.5 c 128,-1,92
 461 478 461 478 450 518 c 128,-1,93
 439 558 439 558 421.5 596 c 128,-1,94
 404 634 404 634 380 664 c 128,-1,95
 356 694 356 694 324.5 712 c 128,-1,96
 293 730 293 730 254 730 c 0,97,98
 213 730 213 730 185 708.5 c 128,-1,99
 157 687 157 687 139.5 652.5 c 128,-1,100
 122 618 122 618 112.5 575 c 128,-1,101
 103 532 103 532 99 489 c 128,-1,102
 95 446 95 446 94.5 408 c 128,-1,103
 94 370 94 370 94 346 c 1,104,-1
 446 326 l 2,85,86
EndSplineSet
EndChar

StartChar: B
Encoding: 66 66 37
Width: 759
VWidth: 768
Flags: HW
LayerCount: 2
Fore
SplineSet
308 29 m 0,0,1
 306 30 306 30 292.5 37 c 128,-1,2
 279 44 279 44 264.5 54 c 128,-1,3
 250 64 250 64 239 75 c 128,-1,4
 228 86 228 86 230 96 c 1,5,6
 234 107 234 107 242.5 111.5 c 128,-1,7
 251 116 251 116 259.5 120 c 128,-1,8
 268 124 268 124 274 131 c 128,-1,9
 280 138 280 138 279 154 c 1,10,11
 262 273 262 273 248 364.5 c 128,-1,12
 234 456 234 456 218.5 518 c 128,-1,13
 203 580 203 580 184.5 612 c 128,-1,14
 166 644 166 644 139 644 c 0,15,16
 138 644 138 644 137.5 644 c 0,17,-1
 136 644 l 2,18,-1
 134 644 l 1,19,20
 126 639 126 639 112.5 633.5 c 128,-1,21
 99 628 99 628 83.5 622.5 c 128,-1,22
 68 617 68 617 53 612.5 c 128,-1,23
 38 608 38 608 29 605 c 0,24,25
 27 605 27 605 24 604.5 c 0,26,27
 22 604 22 604 20 604 c 1,28,-1
 20 634 l 2,29,30
 20 644 20 644 38 653 c 128,-1,31
 56 662 56 662 83.5 670.5 c 128,-1,32
 111 679 111 679 144 686.5 c 128,-1,33
 177 694 177 694 207.5 699 c 128,-1,34
 238 704 238 704 262 707 c 128,-1,35
 286 710 286 710 294 710 c 0,36,37
 312 710 312 710 337 706 c 128,-1,38
 362 702 362 702 389.5 694 c 128,-1,39
 417 686 417 686 443.5 673.5 c 128,-1,40
 470 661 470 661 491 645 c 128,-1,41
 512 629 512 629 525 609 c 0,42,43
 538 590 538 590 538 566 c 0,44,45
 538 540 538 540 527.5 518 c 128,-1,46
 517 496 517 496 503.5 478.5 c 128,-1,47
 490 461 490 461 479.5 447.5 c 128,-1,48
 469 434 469 434 469 422 c 0,49,50
 469 420 469 420 488.5 410.5 c 128,-1,51
 508 401 508 401 538.5 384 c 128,-1,52
 569 367 569 367 604 342 c 128,-1,53
 639 317 639 317 669.5 286.5 c 128,-1,54
 700 256 700 256 720 220.5 c 128,-1,55
 740 185 740 185 740 145 c 0,56,57
 740 103 740 103 721.5 75 c 128,-1,58
 703 47 703 47 674 30.5 c 128,-1,59
 645 14 645 14 609.5 6.5 c 128,-1,60
 574 -1 574 -1 541 -1 c 128,-1,61
 508 -1 508 -1 482.5 0.5 c 128,-1,62
 457 2 457 2 431.5 5.5 c 128,-1,63
 406 9 406 9 377 14.5 c 128,-1,64
 348 20 348 20 308 29 c 0,0,1
337 148 m 1,65,66
 324 128 324 128 329 113 c 128,-1,67
 334 98 334 98 351 87 c 128,-1,68
 368 76 368 76 392 69.5 c 128,-1,69
 416 63 416 63 440 59.5 c 128,-1,70
 464 56 464 56 484.5 56 c 0,71,72
 504 56 504 56 514 57 c 1,73,74
 544 57 544 57 573 59.5 c 128,-1,75
 602 62 602 62 624 72.5 c 128,-1,76
 646 83 646 83 659 103 c 128,-1,77
 672 123 672 123 672 158 c 0,78,79
 672 207 672 207 646.5 239.5 c 128,-1,80
 621 272 621 272 582.5 295 c 128,-1,81
 544 318 544 318 499 333.5 c 128,-1,82
 454 349 454 349 415 362.5 c 128,-1,83
 376 376 376 376 351 391 c 128,-1,84
 326 406 326 406 326 427 c 0,85,86
 326 438 326 438 337.5 444.5 c 128,-1,87
 349 451 349 451 366.5 456 c 128,-1,88
 384 461 384 461 404 466.5 c 128,-1,89
 424 472 424 472 442 482.5 c 128,-1,90
 460 493 460 493 471.5 509 c 128,-1,91
 483 525 483 525 483 552 c 0,92,93
 483 574 483 574 471 591 c 128,-1,94
 459 608 459 608 440.5 620 c 128,-1,95
 422 632 422 632 400.5 638 c 128,-1,96
 379 644 379 644 360 644 c 0,97,98
 332 644 332 644 302 638 c 128,-1,99
 272 632 272 632 250 614 c 1,100,101
 262 563 262 563 277 502 c 128,-1,102
 292 441 292 441 305.5 378.5 c 128,-1,103
 319 316 319 316 328 256 c 128,-1,104
 337 196 337 196 337 148 c 1,65,66
EndSplineSet
EndChar

StartChar: C
Encoding: 67 67 38
Width: 528
VWidth: 768
Flags: HW
LayerCount: 2
Fore
SplineSet
19 277 m 0,0,1
 19 317 19 317 32 360.5 c 128,-1,2
 45 404 45 404 68 447 c 128,-1,3
 91 490 91 490 122.5 529 c 128,-1,4
 154 568 154 568 192 598 c 128,-1,5
 230 628 230 628 271.5 645.5 c 0,6,7
 314 663 314 663 356 663 c 0,8,9
 380 663 380 663 392 645 c 128,-1,10
 404 627 404 627 404 605 c 0,11,12
 404 592 404 592 399 575 c 128,-1,13
 394 558 394 558 384 541.5 c 128,-1,14
 374 525 374 525 361.5 513.5 c 128,-1,15
 349 502 349 502 334 502 c 1,16,17
 334 512 334 512 337 521.5 c 128,-1,18
 340 531 340 531 345 539.5 c 128,-1,19
 350 548 350 548 353 557 c 128,-1,20
 356 566 356 566 356 577 c 0,21,22
 356 591 356 591 344.5 593.5 c 128,-1,23
 333 596 333 596 322 596 c 0,24,25
 320 596 320 596 314.5 596 c 0,26,27
 310 596 310 596 308 596 c 0,28,29
 262 578 262 578 218 548.5 c 128,-1,30
 174 519 174 519 140 480.5 c 128,-1,31
 106 442 106 442 86 395.5 c 128,-1,32
 66 349 66 349 66 296 c 0,33,34
 66 262 66 262 72.5 221.5 c 128,-1,35
 79 181 79 181 95 146.5 c 128,-1,36
 111 112 111 112 138.5 89 c 128,-1,37
 166 66 166 66 207 66 c 0,38,39
 241 66 241 66 274.5 72.5 c 128,-1,40
 308 79 308 79 341.5 86.5 c 128,-1,41
 375 94 375 94 408.5 100 c 128,-1,42
 442 106 442 106 476 106 c 0,43,44
 484 106 484 106 492 104 c 128,-1,45
 500 102 500 102 500 92 c 0,46,47
 500 87 500 87 494 79.5 c 128,-1,48
 488 72 488 72 479 65 c 128,-1,49
 470 58 470 58 462 54 c 128,-1,50
 454 50 454 50 452 49 c 2,51,-1
 221 0 l 2,52,53
 219 0 219 0 212.5 -0.5 c 128,-1,54
 206 -1 206 -1 202 -1 c 0,55,56
 169 -1 169 -1 142.5 12.5 c 128,-1,57
 116 26 116 26 95.5 47.5 c 128,-1,58
 75 69 75 69 60.5 97.5 c 128,-1,59
 46 126 46 126 36.5 157 c 128,-1,60
 27 188 27 188 23 219 c 128,-1,61
 19 250 19 250 19 277 c 0,0,1
EndSplineSet
EndChar

StartChar: D
Encoding: 68 68 39
Width: 759
VWidth: 768
Flags: HW
LayerCount: 2
Fore
SplineSet
249 62 m 0,0,1
 249 70 249 70 251.5 78.5 c 128,-1,2
 254 87 254 87 264 87 c 0,3,4
 269 87 269 87 289.5 81.5 c 128,-1,5
 310 76 310 76 334 69 c 128,-1,6
 358 62 358 62 381 56 c 128,-1,7
 404 50 404 50 413 49 c 1,8,-1
 418 49 l 2,9,10
 462 49 462 49 507 65.5 c 128,-1,11
 552 82 552 82 589 112 c 128,-1,12
 626 142 626 142 649.5 181.5 c 128,-1,13
 673 221 673 221 673 267 c 0,14,15
 673 303 673 303 659 337.5 c 128,-1,16
 645 372 645 372 621.5 404 c 128,-1,17
 598 436 598 436 566.5 463 c 128,-1,18
 535 490 535 490 500 511.5 c 128,-1,19
 465 533 465 533 429 548 c 128,-1,20
 393 563 393 563 360 569 c 1,21,22
 361 505 361 505 370.5 448 c 128,-1,23
 380 391 380 391 389.5 338.5 c 128,-1,24
 399 286 399 286 404.5 236.5 c 0,25,26
 410 186 410 186 404 136 c 0,27,28
 404 130 404 130 404 123.5 c 128,-1,29
 404 117 404 117 401.5 110.5 c 128,-1,30
 399 104 399 104 393.5 100 c 128,-1,31
 388 96 388 96 380 96 c 1,32,33
 365 88 365 88 357 102 c 128,-1,34
 349 116 349 116 345 144.5 c 128,-1,35
 341 173 341 173 340 212 c 128,-1,36
 339 251 339 251 336.5 293.5 c 128,-1,37
 334 336 334 336 330 377 c 128,-1,38
 326 418 326 418 317 452 c 1,39,40
 315 464 315 464 312 483 c 128,-1,41
 309 502 309 502 304 522.5 c 128,-1,42
 299 543 299 543 292.5 560.5 c 128,-1,43
 286 578 286 578 279 586 c 1,44,45
 207 586 207 586 164 581.5 c 128,-1,46
 121 577 121 577 95.5 571 c 128,-1,47
 70 565 70 565 58.5 558.5 c 128,-1,48
 47 552 47 552 38 548 c 0,49,-1
 36 547 l 0,50,51
 34 546 34 546 33 546 c 256,52,53
 31 546 31 546 31 547 c 0,54,55
 30 548 30 548 29 548 c 256,56,57
 28 549 28 549 27 552 c 128,-1,58
 26 555 26 555 24.5 559.5 c 128,-1,59
 23 564 23 564 21.5 569 c 128,-1,60
 20 574 20 574 20 576 c 1,61,-1
 20 580 l 2,62,63
 20 594 20 594 34.5 604 c 128,-1,64
 49 614 49 614 70.5 621 c 128,-1,65
 92 628 92 628 118 632.5 c 128,-1,66
 144 637 144 637 166.5 639 c 128,-1,67
 189 641 189 641 204.5 642.5 c 128,-1,68
 220 644 220 644 221 644 c 0,69,70
 272 644 272 644 330 632.5 c 128,-1,71
 388 621 388 621 444.5 599 c 128,-1,72
 501 577 501 577 552.5 544.5 c 128,-1,73
 604 512 604 512 643.5 470 c 128,-1,74
 683 428 683 428 706.5 376 c 128,-1,75
 730 324 730 324 730 264 c 0,76,77
 730 209 730 209 713 165 c 128,-1,78
 696 121 696 121 666 88 c 128,-1,79
 636 55 636 55 596 32.5 c 128,-1,80
 556 10 556 10 511 -0.5 c 128,-1,81
 466 -11 466 -11 418.5 -11 c 128,-1,82
 371 -11 371 -11 326 0 c 0,83,84
 317 3 317 3 304 8.5 c 128,-1,85
 291 14 291 14 278.5 21 c 128,-1,86
 266 28 266 28 257.5 38.5 c 128,-1,87
 249 49 249 49 249 62 c 0,0,1
EndSplineSet
EndChar

StartChar: E
Encoding: 69 69 40
Width: 537
VWidth: 768
Flags: HW
LayerCount: 2
Fore
SplineSet
94 569 m 2,0,1
 90 569 90 569 87 570 c 1,2,3
 92 560 92 560 92 556 c 2,4,-1
 92 375 l 1,5,6
 97 367 97 367 121 367.5 c 128,-1,7
 145 368 145 368 178 371 c 128,-1,8
 211 374 211 374 248 380.5 c 128,-1,9
 285 387 285 387 317 392.5 c 128,-1,10
 349 398 349 398 370.5 401.5 c 0,11,12
 392 406 392 406 394 404 c 1,13,14
 397 404 397 404 405.5 404.5 c 128,-1,15
 414 405 414 405 424 405.5 c 128,-1,16
 434 406 434 406 442 406.5 c 128,-1,17
 450 407 450 407 453 407 c 1,18,19
 453 383 453 383 426.5 368 c 128,-1,20
 400 353 400 353 360 345 c 128,-1,21
 320 337 320 337 273.5 332.5 c 128,-1,22
 227 328 227 328 186.5 325 c 128,-1,23
 146 322 146 322 117.5 318.5 c 0,24,25
 89 316 89 316 87 308 c 0,26,27
 81 292 81 292 78.5 272 c 128,-1,28
 76 252 76 252 75.5 231.5 c 128,-1,29
 75 211 75 211 75.5 190.5 c 128,-1,30
 76 170 76 170 76 154 c 0,31,32
 76 150 76 150 76 140 c 128,-1,33
 76 130 76 130 76 119.5 c 128,-1,34
 76 109 76 109 76 99.5 c 128,-1,35
 76 90 76 90 76 87 c 1,36,37
 80 77 80 77 94 72 c 128,-1,38
 108 67 108 67 124 65.5 c 128,-1,39
 140 64 140 64 154.5 65 c 0,40,41
 170 66 170 66 176 66 c 0,42,43
 210 66 210 66 244 69.5 c 128,-1,44
 278 73 278 73 311.5 76.5 c 128,-1,45
 345 80 345 80 378.5 83.5 c 128,-1,46
 412 87 412 87 446 87 c 2,47,-1
 452 87 l 1,48,49
 454 86 454 86 458 85 c 128,-1,50
 462 84 462 84 466.5 82 c 128,-1,51
 471 80 471 80 474.5 78.5 c 0,52,53
 478 76 478 76 480 76 c 0,54,55
 482 75 482 75 486 72 c 0,56,57
 490 70 490 70 490 68 c 0,58,59
 490 49 490 49 469 36.5 c 128,-1,60
 448 24 448 24 416 16.5 c 128,-1,61
 384 9 384 9 346 5.5 c 128,-1,62
 308 2 308 2 273 0.5 c 128,-1,63
 238 -1 238 -1 213 -1 c 128,-1,64
 188 -1 188 -1 181 -1 c 0,65,66
 141 -1 141 -1 110.5 6 c 128,-1,67
 80 13 80 13 59.5 29.5 c 128,-1,68
 39 46 39 46 29 74.5 c 0,69,70
 19 104 19 104 19 146 c 0,71,72
 19 184 19 184 24.5 222 c 128,-1,73
 30 260 30 260 30 299 c 0,74,75
 30 315 30 315 25 326 c 128,-1,76
 20 337 20 337 20 350 c 2,77,-1
 20 356 l 1,78,79
 22 358 22 358 27 365.5 c 128,-1,80
 32 373 32 373 34 375 c 1,81,-1
 34 596 l 2,82,83
 34 612 34 612 37.5 620 c 128,-1,84
 41 628 41 628 54.5 631 c 128,-1,85
 68 634 68 634 92.5 633 c 128,-1,86
 117 632 117 632 159.5 630 c 128,-1,87
 202 628 202 628 264.5 627 c 0,88,89
 328 626 328 626 416 627 c 1,90,91
 426 623 426 623 436 618.5 c 128,-1,92
 446 614 446 614 454.5 607 c 128,-1,93
 463 600 463 600 468 591 c 128,-1,94
 473 582 473 582 473 569 c 0,95,96
 473 566 473 566 469.5 562 c 128,-1,97
 466 558 466 558 464 559 c 2,98,-1
 416 578 l 1,99,-1
 94 569 l 2,0,1
EndSplineSet
EndChar

StartChar: F
Encoding: 70 70 41
Width: 527
VWidth: 768
Flags: HW
LayerCount: 2
Fore
SplineSet
194 19 m 1,0,1
 188 46 188 46 185 64 c 128,-1,2
 182 82 182 82 180.5 96.5 c 128,-1,3
 179 111 179 111 179 123 c 128,-1,4
 179 135 179 135 178.5 149 c 128,-1,5
 178 163 178 163 176 181.5 c 128,-1,6
 174 200 174 200 170 227 c 0,7,8
 167 247 167 247 156 254.5 c 128,-1,9
 145 262 145 262 130.5 262.5 c 128,-1,10
 116 263 116 263 100.5 260.5 c 128,-1,11
 85 258 85 258 71.5 258 c 128,-1,12
 58 258 58 258 49.5 264.5 c 0,13,14
 41 272 41 272 41 290 c 0,15,16
 41 292 41 292 45.5 295.5 c 128,-1,17
 50 299 50 299 52 299 c 0,18,19
 70 301 70 301 87 301.5 c 128,-1,20
 104 302 104 302 117.5 307 c 128,-1,21
 131 312 131 312 139.5 324.5 c 0,22,23
 148 338 148 338 148 362 c 1,24,25
 140 411 140 411 141 446.5 c 128,-1,26
 142 482 142 482 138.5 505 c 128,-1,27
 135 528 135 528 121 536.5 c 0,28,29
 106 545 106 545 70 540 c 0,30,31
 66 540 66 540 56.5 540 c 128,-1,32
 47 540 47 540 36.5 539.5 c 128,-1,33
 26 539 26 539 16.5 539 c 128,-1,34
 7 539 7 539 3 539 c 1,35,36
 1 537 1 537 -6.5 534 c 128,-1,37
 -14 531 -14 531 -16 530 c 0,38,39
 -18 530 -18 530 -19 530 c 0,40,41
 -21 529 -21 529 -22 529 c 256,42,-1
 -24 530 l 0,43,-1
 -26 530 l 0,44,45
 -28 532 -28 532 -31 539 c 128,-1,46
 -34 546 -34 546 -35 549 c 1,47,-1
 -35 554 l 1,48,49
 -21 568 -21 568 14 579 c 128,-1,50
 49 590 49 590 97 598 c 128,-1,51
 145 606 145 606 202 610 c 128,-1,52
 259 614 259 614 316.5 613.5 c 128,-1,53
 374 613 374 613 429 605.5 c 128,-1,54
 484 598 484 598 527 584.5 c 128,-1,55
 570 571 570 571 598 549 c 0,56,57
 626 526 626 526 629 496 c 1,58,59
 597 496 597 496 566.5 504 c 128,-1,60
 536 512 536 512 505 522 c 128,-1,61
 474 532 474 532 442.5 540 c 128,-1,62
 411 548 411 548 377 548 c 0,63,64
 369 548 369 548 353.5 548.5 c 128,-1,65
 338 549 338 549 318 549.5 c 128,-1,66
 298 550 298 550 277 548.5 c 128,-1,67
 256 547 256 547 238 542.5 c 128,-1,68
 220 538 220 538 209 529.5 c 128,-1,69
 198 521 198 521 198 507 c 0,70,71
 198 492 198 492 196 466 c 128,-1,72
 194 440 194 440 195 412.5 c 128,-1,73
 196 385 196 385 202 361 c 128,-1,74
 208 337 208 337 224 326 c 1,75,76
 226 326 226 326 231 326 c 128,-1,77
 236 326 236 326 242 326 c 128,-1,78
 248 326 248 326 254 326 c 128,-1,79
 260 326 260 326 262 326 c 0,80,81
 337 332 337 332 383.5 329 c 128,-1,82
 430 326 430 326 450 317 c 128,-1,83
 470 308 470 308 464.5 296.5 c 128,-1,84
 459 285 459 285 430.5 275 c 128,-1,85
 402 265 402 265 351 258.5 c 128,-1,86
 300 252 300 252 229 254 c 1,87,88
 231 209 231 209 233 183.5 c 128,-1,89
 235 158 235 158 237.5 143.5 c 128,-1,90
 240 129 240 129 242 120.5 c 128,-1,91
 244 112 244 112 247 100.5 c 128,-1,92
 250 89 250 89 252 69.5 c 128,-1,93
 254 50 254 50 256 12 c 1,94,95
 242 14 242 14 230 14.5 c 128,-1,96
 218 15 218 15 209.5 15 c 128,-1,97
 201 15 201 15 196.5 16 c 128,-1,98
 192 17 192 17 194 19 c 1,0,1
EndSplineSet
EndChar

StartChar: G
Encoding: 71 71 42
Width: 585
VWidth: 768
Flags: HW
LayerCount: 2
Fore
SplineSet
476 45 m 1,0,1
 473 45 473 45 463.5 45.5 c 128,-1,2
 454 46 454 46 452 46 c 0,3,4
 424 46 424 46 394.5 39.5 c 128,-1,5
 365 33 365 33 336 26 c 128,-1,6
 307 19 307 19 277.5 12.5 c 128,-1,7
 248 6 248 6 217 6 c 0,8,9
 175 6 175 6 141 20.5 c 128,-1,10
 107 35 107 35 83 61 c 128,-1,11
 59 87 59 87 46 122.5 c 128,-1,12
 33 158 33 158 33 200 c 0,13,14
 33 244 33 244 52 285 c 128,-1,15
 71 326 71 326 103 362.5 c 128,-1,16
 135 399 135 399 176.5 429.5 c 128,-1,17
 218 460 218 460 263 482.5 c 128,-1,18
 308 505 308 505 353 518.5 c 128,-1,19
 398 532 398 532 437 536 c 0,20,21
 457 538 457 538 475.5 532.5 c 128,-1,22
 494 527 494 527 507 517 c 128,-1,23
 520 507 520 507 528 491.5 c 128,-1,24
 536 476 536 476 536 456 c 1,25,26
 522 456 522 456 509 459.5 c 128,-1,27
 496 463 496 463 483 467.5 c 128,-1,28
 470 472 470 472 456 475 c 128,-1,29
 442 478 442 478 428 478 c 0,30,31
 392 478 392 478 352 467.5 c 128,-1,32
 312 457 312 457 273.5 437 c 128,-1,33
 235 417 235 417 200.5 389.5 c 128,-1,34
 166 362 166 362 139.5 329 c 128,-1,35
 113 296 113 296 97.5 258 c 128,-1,36
 82 220 82 220 82 180 c 0,37,38
 82 152 82 152 96 130 c 128,-1,39
 110 108 110 108 131 93.5 c 128,-1,40
 152 79 152 79 177 71.5 c 128,-1,41
 202 64 202 64 226 64 c 0,42,43
 270 64 270 64 316.5 66.5 c 128,-1,44
 363 69 363 69 401 81.5 c 128,-1,45
 439 94 439 94 463 121 c 128,-1,46
 487 148 487 148 487 197 c 0,47,48
 487 203 487 203 485 216 c 0,49,50
 484 229 484 229 476 237 c 1,51,-1
 293 237 l 2,52,53
 285 237 285 237 278.5 241 c 128,-1,54
 272 245 272 245 266 251.5 c 128,-1,55
 260 258 260 258 257 265.5 c 128,-1,56
 254 273 254 273 254 280 c 0,57,58
 254 288 254 288 256 296.5 c 128,-1,59
 258 305 258 305 268 305 c 128,-1,60
 278 305 278 305 288 301.5 c 128,-1,61
 298 298 298 298 308 294.5 c 128,-1,62
 318 291 318 291 328 287.5 c 128,-1,63
 338 284 338 284 349 284 c 0,64,65
 384 284 384 284 418 290 c 128,-1,66
 452 296 452 296 488 296 c 0,67,68
 496 296 496 296 505 291.5 c 128,-1,69
 514 287 514 287 521 280.5 c 128,-1,70
 528 274 528 274 533 265 c 128,-1,71
 538 256 538 256 538 248 c 2,72,-1
 538 -2 l 1,73,74
 540 -4 540 -4 545 -8 c 128,-1,75
 550 -12 550 -12 555 -16.5 c 128,-1,76
 560 -21 560 -21 565 -25.5 c 128,-1,77
 570 -30 570 -30 572 -32 c 1,78,79
 574 -39 574 -39 570.5 -45.5 c 128,-1,80
 567 -52 567 -52 561 -57.5 c 128,-1,81
 555 -63 555 -63 547.5 -66.5 c 128,-1,82
 540 -70 540 -70 534 -70 c 0,83,84
 513 -70 513 -70 501.5 -57 c 128,-1,85
 490 -44 490 -44 484 -26 c 128,-1,86
 478 -8 478 -8 477 11.5 c 128,-1,87
 476 31 476 31 476 45 c 1,0,1
EndSplineSet
EndChar

StartChar: H
Encoding: 72 72 43
Width: 537
VWidth: 768
Flags: HW
LayerCount: 2
Fore
SplineSet
364 337 m 2,0,1
 355 333 355 333 337.5 324.5 c 128,-1,2
 320 316 320 316 297 305.5 c 128,-1,3
 274 295 274 295 249 283.5 c 128,-1,4
 224 272 224 272 201.5 261 c 128,-1,5
 179 250 179 250 160.5 242 c 128,-1,6
 142 234 142 234 134 230 c 1,7,-1
 136 30 l 2,8,9
 136 27 136 27 129 19.5 c 128,-1,10
 122 12 122 12 118 10 c 0,11,12
 102 6 102 6 95.5 22.5 c 128,-1,13
 89 39 89 39 86.5 65.5 c 128,-1,14
 84 92 84 92 82.5 122 c 128,-1,15
 81 152 81 152 75.5 177 c 128,-1,16
 70 202 70 202 57 215.5 c 128,-1,17
 44 229 44 229 20 221 c 1,18,19
 19 223 19 223 17.5 228 c 128,-1,20
 16 233 16 233 16 235 c 0,21,22
 16 248 16 248 22.5 252 c 128,-1,23
 29 256 29 256 37 259.5 c 128,-1,24
 45 263 45 263 51.5 268.5 c 128,-1,25
 58 274 58 274 58 289 c 0,26,27
 58 329 58 329 55 368 c 128,-1,28
 52 407 52 407 48 447 c 128,-1,29
 44 487 44 487 41 526.5 c 128,-1,30
 38 566 38 566 38 605 c 0,31,32
 38 608 38 608 38 615 c 128,-1,33
 38 622 38 622 38 629.5 c 128,-1,34
 38 637 38 637 38 643.5 c 128,-1,35
 38 650 38 650 38 652 c 1,36,37
 41 660 41 660 46.5 662 c 128,-1,38
 52 664 52 664 58 664 c 0,39,40
 63 664 63 664 69.5 662.5 c 0,41,42
 76 660 76 660 76 652 c 2,43,-1
 116 317 l 2,44,45
 116 315 116 315 119.5 307 c 128,-1,46
 123 299 123 299 125 298 c 1,47,-1
 129 298 l 1,48,-1
 134 298 l 1,49,50
 138 299 138 299 150 302 c 128,-1,51
 162 305 162 305 192 317.5 c 128,-1,52
 222 330 222 330 275 355.5 c 128,-1,53
 328 381 328 381 418 425 c 1,54,-1
 422 652 l 2,55,56
 422 658 422 658 426 665.5 c 128,-1,57
 430 673 430 673 436 679 c 128,-1,58
 442 685 442 685 448 688.5 c 128,-1,59
 454 692 454 692 460 692 c 0,60,61
 469 692 469 692 474.5 689 c 128,-1,62
 480 686 480 686 480 672 c 0,63,64
 480 669 480 669 476 661.5 c 128,-1,65
 472 654 472 654 471 652 c 1,66,67
 471 648 471 648 470.5 638 c 128,-1,68
 470 628 470 628 470 616.5 c 128,-1,69
 470 605 470 605 470 594.5 c 128,-1,70
 470 584 470 584 470 580 c 0,71,72
 470 495 470 495 472 410 c 128,-1,73
 474 325 474 325 480 241 c 0,74,75
 481 231 481 231 483.5 205.5 c 128,-1,76
 486 180 486 180 489 151 c 128,-1,77
 492 122 492 122 495 95.5 c 128,-1,78
 498 69 498 69 500 58 c 0,79,80
 500 56 500 56 501 52 c 128,-1,81
 502 48 502 48 504 43 c 128,-1,82
 506 38 506 38 507 34 c 128,-1,83
 508 30 508 30 509 29 c 1,84,-1
 509 23 l 1,85,-1
 509 20 l 1,86,87
 507 18 507 18 503 14.5 c 128,-1,88
 499 11 499 11 494.5 8 c 128,-1,89
 490 5 490 5 486 2.5 c 128,-1,90
 482 0 482 0 480 0 c 0,91,92
 466 -3 466 -3 457 12 c 128,-1,93
 448 27 448 27 443 47.5 c 128,-1,94
 438 68 438 68 436 87.5 c 0,95,96
 434 108 434 108 433 116 c 0,97,98
 433 117 433 117 432.5 131 c 128,-1,99
 432 145 432 145 431 166.5 c 128,-1,100
 430 188 430 188 428.5 215 c 128,-1,101
 427 242 427 242 425 269 c 128,-1,102
 423 296 423 296 420.5 320 c 128,-1,103
 418 344 418 344 416 360 c 1,104,-1
 364 337 l 2,0,1
EndSplineSet
EndChar

StartChar: I
Encoding: 73 73 44
Width: 172
VWidth: 768
Flags: HW
LayerCount: 2
Fore
SplineSet
96 38 m 0,0,1
 91 75 91 75 86.5 115.5 c 128,-1,2
 82 156 82 156 78 197 c 128,-1,3
 74 238 74 238 69 278.5 c 0,4,5
 64 320 64 320 58 356 c 0,6,7
 55 371 55 371 47.5 396 c 128,-1,8
 40 421 40 421 33 449.5 c 128,-1,9
 26 478 26 478 20.5 507 c 128,-1,10
 15 536 15 536 15 560 c 1,11,12
 27 576 27 576 39 566 c 128,-1,13
 51 556 51 556 63 528.5 c 128,-1,14
 75 501 75 501 86.5 458.5 c 128,-1,15
 98 416 98 416 107.5 368 c 128,-1,16
 117 320 117 320 125.5 269 c 128,-1,17
 134 218 134 218 140 173 c 128,-1,18
 146 128 146 128 150 93 c 128,-1,19
 154 58 154 58 154 40 c 0,20,21
 154 34 154 34 154 28 c 128,-1,22
 154 22 154 22 153 16.5 c 128,-1,23
 152 11 152 11 147.5 6.5 c 128,-1,24
 143 2 143 2 134 0 c 0,25,26
 128 -2 128 -2 122 3.5 c 128,-1,27
 116 9 116 9 110 16 c 128,-1,28
 104 23 104 23 100.5 29.5 c 128,-1,29
 97 36 97 36 96 38 c 0,0,1
EndSplineSet
EndChar

StartChar: J
Encoding: 74 74 45
Width: 450
VWidth: 768
Flags: HW
LayerCount: 2
Fore
SplineSet
325 -1 m 1,0,1
 284 7 284 7 248.5 29.5 c 128,-1,2
 213 52 213 52 182.5 81.5 c 128,-1,3
 152 111 152 111 123 144.5 c 128,-1,4
 94 178 94 178 67 212 c 0,5,6
 59 222 59 222 51 232 c 128,-1,7
 43 242 43 242 36.5 254 c 128,-1,8
 30 266 30 266 26 281 c 128,-1,9
 22 296 22 296 22 315 c 0,10,11
 22 333 22 333 35.5 347.5 c 0,12,13
 48 362 48 362 70 363 c 1,14,15
 81 357 81 357 78 350.5 c 0,16,17
 74 344 74 344 70 334 c 1,18,-1
 70 329 l 2,19,20
 70 303 70 303 83.5 272.5 c 128,-1,21
 97 242 97 242 118.5 212 c 128,-1,22
 140 182 140 182 168 153.5 c 128,-1,23
 196 125 196 125 225 103.5 c 128,-1,24
 254 82 254 82 281.5 69.5 c 128,-1,25
 309 57 309 57 331 57 c 0,26,27
 343 57 343 57 350.5 70.5 c 128,-1,28
 358 84 358 84 363 104.5 c 128,-1,29
 368 125 368 125 371 149.5 c 128,-1,30
 374 174 374 174 374.5 196 c 128,-1,31
 375 218 375 218 375 234.5 c 0,32,33
 375 250 375 250 375 256 c 256,34,35
 375 261 375 261 375 271.5 c 128,-1,36
 375 282 375 282 374.5 291.5 c 128,-1,37
 374 301 374 301 374 308.5 c 128,-1,38
 374 316 374 316 374 317 c 2,39,-1
 321 692 l 1,40,41
 333 723 333 723 344.5 720 c 128,-1,42
 356 717 356 717 366 691.5 c 128,-1,43
 376 666 376 666 385.5 623.5 c 128,-1,44
 395 581 395 581 403 532.5 c 128,-1,45
 411 484 411 484 417 434.5 c 128,-1,46
 423 385 423 385 426.5 345.5 c 128,-1,47
 430 306 430 306 431.5 281.5 c 0,48,49
 433 258 433 258 431 260 c 1,50,51
 432 244 432 244 431.5 218.5 c 128,-1,52
 431 193 431 193 428 164 c 128,-1,53
 425 135 425 135 418.5 105.5 c 128,-1,54
 412 76 412 76 400 52.5 c 128,-1,55
 388 29 388 29 369.5 14 c 128,-1,56
 351 -1 351 -1 325 -1 c 1,0,1
EndSplineSet
EndChar

StartChar: K
Encoding: 75 75 46
Width: 480
VWidth: 768
Flags: HW
LayerCount: 2
Fore
SplineSet
394 10 m 1,0,1
 378 23 378 23 353 39.5 c 128,-1,2
 328 56 328 56 300 75 c 128,-1,3
 272 94 272 94 242 114 c 128,-1,4
 212 134 212 134 185 154 c 128,-1,5
 158 174 158 174 137 193 c 128,-1,6
 116 212 116 212 104 230 c 1,7,8
 100 213 100 213 101.5 188.5 c 128,-1,9
 103 164 103 164 106.5 138 c 128,-1,10
 110 112 110 112 114 87 c 128,-1,11
 118 62 118 62 118 42 c 128,-1,12
 118 22 118 22 113 10 c 128,-1,13
 108 -2 108 -2 94 -2 c 256,14,15
 80 -2 80 -2 71 18 c 128,-1,16
 62 38 62 38 57 69 c 128,-1,17
 52 100 52 100 50 137 c 128,-1,18
 48 174 48 174 48 207 c 128,-1,19
 48 240 48 240 48.5 265 c 128,-1,20
 49 290 49 290 49 298 c 0,21,22
 47 330 47 330 42.5 365 c 128,-1,23
 38 400 38 400 32.5 436 c 128,-1,24
 27 472 27 472 23 507 c 128,-1,25
 19 542 19 542 19 572 c 0,26,27
 19 574 19 574 20.5 578.5 c 128,-1,28
 22 583 22 583 25 587.5 c 128,-1,29
 28 592 28 592 32.5 595 c 128,-1,30
 37 598 37 598 41 598 c 0,31,32
 50 598 50 598 54.5 592 c 128,-1,33
 59 586 59 586 61.5 577.5 c 128,-1,34
 64 569 64 569 65 560.5 c 128,-1,35
 66 552 66 552 68 548 c 0,36,37
 72 532 72 532 74 510 c 128,-1,38
 76 488 76 488 78.5 462.5 c 128,-1,39
 81 437 81 437 83.5 411 c 128,-1,40
 86 385 86 385 89 360 c 1,41,42
 102 374 102 374 119.5 397 c 128,-1,43
 137 420 137 420 158 447 c 128,-1,44
 179 474 179 474 202.5 502 c 128,-1,45
 226 530 226 530 250 552 c 128,-1,46
 274 574 274 574 298 587.5 c 128,-1,47
 322 601 322 601 346 600 c 1,48,49
 353 593 353 593 349.5 583.5 c 128,-1,50
 346 574 346 574 337 562 c 128,-1,51
 328 550 328 550 315 537 c 128,-1,52
 302 524 302 524 288 509 c 1,53,54
 267 484 267 484 242.5 458 c 128,-1,55
 218 432 218 432 194 406 c 128,-1,56
 170 380 170 380 149 354.5 c 0,57,58
 128 330 128 330 115 308 c 1,59,60
 143 269 143 269 178.5 235.5 c 128,-1,61
 214 202 214 202 253 172 c 128,-1,62
 292 142 292 142 333.5 115.5 c 0,63,64
 376 89 376 89 416 63 c 1,65,66
 428 59 428 59 437 51 c 128,-1,67
 446 43 446 43 450.5 33.5 c 128,-1,68
 455 24 455 24 454.5 15.5 c 128,-1,69
 454 7 454 7 447.5 2 c 128,-1,70
 441 -3 441 -3 428 -1.5 c 128,-1,71
 415 0 415 0 394 10 c 1,0,1
EndSplineSet
EndChar

StartChar: L
Encoding: 76 76 47
Width: 355
VWidth: 768
Flags: HW
LayerCount: 2
Fore
SplineSet
19 162 m 1,0,1
 21 197 21 197 23.5 241.5 c 128,-1,2
 26 286 26 286 30 330.5 c 128,-1,3
 34 375 34 375 39 416.5 c 128,-1,4
 44 458 44 458 51 489 c 128,-1,5
 58 520 58 520 66.5 537 c 0,6,7
 76 554 76 554 86 548 c 1,8,9
 100 546 100 546 104 526 c 128,-1,10
 108 506 108 506 106.5 473 c 128,-1,11
 105 440 105 440 99 398 c 128,-1,12
 93 356 93 356 87.5 312 c 128,-1,13
 82 268 82 268 78 224.5 c 128,-1,14
 74 181 74 181 76 145 c 0,15,16
 76 135 76 135 79.5 123.5 c 128,-1,17
 83 112 83 112 89 102 c 128,-1,18
 95 92 95 92 104.5 84.5 c 0,19,20
 114 76 114 76 125 76 c 2,21,-1
 326 58 l 2,22,23
 335 57 335 57 336.5 48 c 128,-1,24
 338 39 338 39 338 34 c 0,25,26
 338 16 338 16 327 10 c 128,-1,27
 316 4 316 4 298 0 c 1,28,29
 294 0 294 0 283.5 -0.5 c 128,-1,30
 273 -1 273 -1 261.5 -1.5 c 128,-1,31
 250 -2 250 -2 240 -2 c 128,-1,32
 230 -2 230 -2 226 -2 c 0,33,34
 180 -2 180 -2 141.5 5 c 128,-1,35
 103 12 103 12 76 30.5 c 128,-1,36
 49 49 49 49 34 80.5 c 128,-1,37
 19 112 19 112 19 162 c 1,0,1
EndSplineSet
EndChar

StartChar: M
Encoding: 77 77 48
Width: 547
VWidth: 768
Flags: HW
LayerCount: 2
Fore
SplineSet
452 20 m 1,0,1
 450 30 450 30 448 52 c 128,-1,2
 446 74 446 74 443 101 c 128,-1,3
 440 128 440 128 437 158.5 c 128,-1,4
 434 189 434 189 431 216.5 c 128,-1,5
 428 244 428 244 425.5 265.5 c 128,-1,6
 423 287 423 287 422 298 c 1,7,8
 420 308 420 308 420.5 323 c 128,-1,9
 421 338 421 338 418.5 354 c 128,-1,10
 416 370 416 370 410.5 384 c 128,-1,11
 405 398 405 398 394 404 c 1,12,13
 358 384 358 384 322 374 c 128,-1,14
 286 364 286 364 246 364 c 0,15,16
 187 364 187 364 128 436 c 1,17,18
 124 436 124 436 122.5 430 c 128,-1,19
 121 424 121 424 120 416 c 128,-1,20
 119 408 119 408 119.5 399 c 128,-1,21
 120 390 120 390 120 384 c 2,22,-1
 119 50 l 2,23,24
 119 44 119 44 115.5 39.5 c 128,-1,25
 112 35 112 35 107 33 c 128,-1,26
 102 31 102 31 96.5 29.5 c 128,-1,27
 91 28 91 28 86 28 c 0,28,29
 70 28 70 28 64.5 41.5 c 128,-1,30
 59 55 59 55 57 68 c 1,31,-1
 57 212 l 2,32,33
 57 278 57 278 62.5 342 c 128,-1,34
 68 406 68 406 68 472 c 0,35,36
 68 492 68 492 60 508 c 128,-1,37
 52 524 52 524 43 539.5 c 128,-1,38
 34 555 34 555 26.5 570.5 c 128,-1,39
 19 586 19 586 19 605 c 0,40,41
 19 626 19 626 39 626 c 0,42,43
 64 626 64 626 81 611 c 128,-1,44
 98 596 98 596 111 575 c 128,-1,45
 124 554 124 554 136 528 c 128,-1,46
 148 502 148 502 164.5 481 c 128,-1,47
 181 460 181 460 202.5 445 c 128,-1,48
 224 430 224 430 256 430 c 1,49,50
 296 428 296 428 322.5 442.5 c 128,-1,51
 349 457 349 457 365.5 479.5 c 128,-1,52
 382 502 382 502 392.5 528.5 c 128,-1,53
 403 555 403 555 411 577.5 c 128,-1,54
 419 600 419 600 428 614 c 0,55,56
 438 628 438 628 452 625 c 1,57,58
 463 627 463 627 468.5 620 c 128,-1,59
 474 613 474 613 477 602.5 c 128,-1,60
 480 592 480 592 480.5 582 c 128,-1,61
 481 572 481 572 481 568 c 0,62,63
 481 530 481 530 475.5 495.5 c 128,-1,64
 470 461 470 461 470 422 c 0,65,66
 470 371 470 371 477 321 c 128,-1,67
 484 271 484 271 493.5 220.5 c 128,-1,68
 503 170 503 170 510.5 120 c 128,-1,69
 518 70 518 70 518 20 c 0,70,71
 518 12 518 12 516 7 c 128,-1,72
 514 2 514 2 510 0 c 128,-1,73
 506 -2 506 -2 501 -2 c 128,-1,74
 496 -2 496 -2 490 -2 c 0,75,76
 477 -2 477 -2 466.5 1 c 128,-1,77
 456 4 456 4 452 20 c 1,0,1
EndSplineSet
EndChar

StartChar: N
Encoding: 78 78 49
Width: 624
VWidth: 768
Flags: HW
LayerCount: 2
Fore
SplineSet
29 61 m 0,0,1
 29 108 29 108 32 155 c 128,-1,2
 35 202 35 202 39.5 248.5 c 128,-1,3
 44 295 44 295 47 341 c 0,4,5
 50 388 50 388 50 434 c 0,6,7
 50 460 50 460 44.5 484 c 128,-1,8
 39 508 39 508 39 533 c 2,9,-1
 39 538 l 1,10,11
 41 539 41 539 46.5 540.5 c 128,-1,12
 52 542 52 542 58 543 c 128,-1,13
 64 544 64 544 69.5 545.5 c 0,14,15
 75 548 75 548 77 548 c 1,16,-1
 87 548 l 1,17,18
 95 512 95 512 108.5 462 c 128,-1,19
 122 412 122 412 141 360 c 128,-1,20
 160 308 160 308 186 256.5 c 128,-1,21
 212 205 212 205 246 164.5 c 128,-1,22
 280 124 280 124 322 99.5 c 128,-1,23
 364 75 364 75 416 76 c 0,24,25
 447 76 447 76 470.5 86.5 c 128,-1,26
 494 97 494 97 509 115.5 c 128,-1,27
 524 134 524 134 531.5 159 c 128,-1,28
 539 184 539 184 539 214 c 0,29,30
 539 253 539 253 523.5 286.5 c 128,-1,31
 508 320 508 320 490 351 c 128,-1,32
 472 382 472 382 456.5 413 c 128,-1,33
 441 444 441 444 441 480 c 0,34,35
 441 494 441 494 444 502 c 128,-1,36
 447 510 447 510 461 510 c 0,37,38
 477 510 477 510 493.5 492 c 128,-1,39
 510 474 510 474 525 446 c 128,-1,40
 540 418 540 418 553 383.5 c 128,-1,41
 566 349 566 349 576 315 c 128,-1,42
 586 281 586 281 591.5 252 c 128,-1,43
 597 223 597 223 597 206 c 0,44,45
 597 163 597 163 583 127.5 c 128,-1,46
 569 92 569 92 543.5 65.5 c 128,-1,47
 518 39 518 39 482.5 24.5 c 128,-1,48
 447 10 447 10 404 10 c 0,49,50
 357 10 357 10 319.5 28 c 128,-1,51
 282 46 282 46 252.5 74.5 c 128,-1,52
 223 103 223 103 200.5 135 c 128,-1,53
 178 167 178 167 162 195.5 c 128,-1,54
 146 224 146 224 134.5 242 c 128,-1,55
 123 260 123 260 116 260 c 0,56,57
 103 260 103 260 97 251 c 128,-1,58
 91 242 91 242 88.5 230 c 128,-1,59
 86 218 86 218 86 204.5 c 128,-1,60
 86 191 86 191 86 184 c 0,61,62
 86 152 86 152 92 124.5 c 128,-1,63
 98 97 98 97 98 66 c 0,64,65
 98 59 98 59 96.5 48 c 128,-1,66
 95 37 95 37 91.5 26 c 128,-1,67
 88 15 88 15 81 7 c 128,-1,68
 74 -1 74 -1 63 -1 c 0,69,70
 53 -1 53 -1 46.5 6.5 c 128,-1,71
 40 14 40 14 36 23.5 c 128,-1,72
 32 33 32 33 30.5 43.5 c 128,-1,73
 29 54 29 54 29 61 c 0,0,1
EndSplineSet
EndChar

StartChar: O
Encoding: 79 79 50
Width: 624
VWidth: 768
Flags: HW
LayerCount: 2
Fore
SplineSet
19 279 m 1,0,1
 17 323 17 323 30.5 361 c 128,-1,2
 44 399 44 399 69 428.5 c 128,-1,3
 94 458 94 458 130 475.5 c 0,4,5
 166 492 166 492 209 496 c 1,6,7
 284 485 284 485 352.5 458 c 128,-1,8
 421 431 421 431 473.5 389 c 128,-1,9
 526 347 526 347 559 291 c 128,-1,10
 592 235 592 235 596 165 c 1,11,12
 586 113 586 113 555 83 c 128,-1,13
 524 53 524 53 482 36.5 c 128,-1,14
 440 20 440 20 392.5 12.5 c 0,15,16
 344 5 344 5 304 -1 c 1,17,18
 242 -1 242 -1 189.5 19.5 c 128,-1,19
 137 40 137 40 99.5 76 c 128,-1,20
 62 112 62 112 40.5 164 c 128,-1,21
 19 216 19 216 19 279 c 1,0,1
66 284 m 0,22,23
 65 238 65 238 85.5 198 c 128,-1,24
 106 158 106 158 139 128 c 128,-1,25
 172 98 172 98 213 78 c 128,-1,26
 254 58 254 58 295 52 c 1,27,28
 309 52 309 52 332 54.5 c 128,-1,29
 355 57 355 57 382 62.5 c 128,-1,30
 409 68 409 68 436.5 77.5 c 128,-1,31
 464 87 464 87 486.5 100.5 c 128,-1,32
 509 114 509 114 523.5 132.5 c 128,-1,33
 538 151 538 151 538 175 c 1,34,35
 531 225 531 225 507.5 264 c 128,-1,36
 484 303 484 303 450 333 c 128,-1,37
 416 363 416 363 376 384 c 128,-1,38
 336 405 336 405 297 417.5 c 128,-1,39
 258 430 258 430 224 433.5 c 0,40,41
 190 438 190 438 168 434 c 1,42,43
 137 423 137 423 117.5 405 c 128,-1,44
 98 387 98 387 86.5 366.5 c 128,-1,45
 75 346 75 346 70.5 325 c 128,-1,46
 66 304 66 304 66 284 c 0,22,23
EndSplineSet
EndChar

StartChar: P
Encoding: 80 80 51
Width: 643
VWidth: 768
Flags: HW
LayerCount: 2
Fore
SplineSet
308 0 m 1,0,1
 294 25 294 25 284.5 64.5 c 128,-1,2
 275 104 275 104 268.5 147 c 128,-1,3
 262 190 262 190 258 228 c 128,-1,4
 254 266 254 266 250 288 c 1,5,-1
 250 460 l 2,6,7
 250 471 250 471 259 480.5 c 128,-1,8
 268 490 268 490 279 490 c 0,9,10
 281 490 281 490 284 490 c 128,-1,11
 287 490 287 490 288 490 c 0,12,13
 292 463 292 463 294 434.5 c 128,-1,14
 296 406 296 406 297.5 378 c 128,-1,15
 299 350 299 350 303.5 322.5 c 0,16,17
 308 294 308 294 317 268 c 1,18,19
 333 264 333 264 351.5 262.5 c 0,20,21
 370 262 370 262 394 260 c 1,22,23
 420 260 420 260 450.5 268.5 c 128,-1,24
 481 277 481 277 507 293 c 128,-1,25
 533 309 533 309 550.5 332.5 c 128,-1,26
 568 356 568 356 568 385 c 0,27,28
 568 417 568 417 547 441.5 c 128,-1,29
 526 466 526 466 493 485 c 128,-1,30
 460 504 460 504 420 518 c 128,-1,31
 380 532 380 532 341.5 540.5 c 128,-1,32
 303 549 303 549 270 553 c 128,-1,33
 237 557 237 557 219 557 c 0,34,35
 213 557 213 557 197 558 c 128,-1,36
 181 559 181 559 161.5 558.5 c 128,-1,37
 142 558 142 558 124 556 c 128,-1,38
 106 554 106 554 96 548 c 0,39,40
 87 543 87 543 79.5 530 c 128,-1,41
 72 517 72 517 65 503.5 c 128,-1,42
 58 490 58 490 50.5 480 c 128,-1,43
 43 470 43 470 34 470 c 0,44,-1
 32 470 l 0,45,46
 31 470 31 470 29 471 c 256,47,48
 27 472 27 472 26 474 c 128,-1,49
 25 476 25 476 23.5 484 c 128,-1,50
 22 492 22 492 21 507 c 128,-1,51
 20 522 20 522 20 548 c 0,52,53
 20 559 20 559 30.5 568.5 c 128,-1,54
 41 578 41 578 58.5 585 c 128,-1,55
 76 592 76 592 96 597.5 c 128,-1,56
 116 603 116 603 134.5 606.5 c 128,-1,57
 153 610 153 610 167.5 612 c 128,-1,58
 182 614 182 614 187 614 c 0,59,60
 221 614 221 614 266.5 610 c 128,-1,61
 312 606 312 606 360.5 595.5 c 128,-1,62
 409 585 409 585 456.5 567.5 c 128,-1,63
 504 550 504 550 541 524.5 c 128,-1,64
 578 499 578 499 601.5 463 c 0,65,66
 625 428 625 428 625 380 c 1,67,68
 630 346 630 346 613 317.5 c 128,-1,69
 596 289 596 289 566.5 266.5 c 128,-1,70
 537 244 537 244 500 227.5 c 128,-1,71
 463 211 463 211 428 201.5 c 128,-1,72
 393 192 393 192 365 189.5 c 128,-1,73
 337 187 337 187 326 192 c 1,74,-1
 326 183 l 2,75,76
 326 148 326 148 332 114 c 128,-1,77
 338 80 338 80 338 45 c 0,78,79
 338 41 338 41 337 32.5 c 128,-1,80
 336 24 336 24 332.5 16 c 128,-1,81
 329 8 329 8 323.5 3 c 128,-1,82
 318 -2 318 -2 308 0 c 1,0,1
EndSplineSet
EndChar

StartChar: Q
Encoding: 81 81 52
Width: 658
VWidth: 768
Flags: HW
LayerCount: 2
Fore
SplineSet
430 12 m 0,0,1
 426 12 426 12 418 11.5 c 0,2,-1
 410 11 l 0,3,4
 407 10 407 10 395.5 9 c 128,-1,5
 384 8 384 8 371 6 c 128,-1,6
 358 4 358 4 346.5 3 c 128,-1,7
 335 2 335 2 332 2 c 2,8,-1
 328 2 l 1,9,10
 268 -3 268 -3 213 17 c 128,-1,11
 158 37 158 37 116 76 c 128,-1,12
 74 115 74 115 50 167.5 c 128,-1,13
 26 220 26 220 26 280 c 2,14,-1
 26 294 l 2,15,16
 26 342 26 342 43.5 388 c 128,-1,17
 61 434 61 434 92 470 c 128,-1,18
 123 506 123 506 165.5 528 c 128,-1,19
 208 550 208 550 258 550 c 0,20,21
 291 550 291 550 331.5 534 c 128,-1,22
 372 518 372 518 413.5 490.5 c 128,-1,23
 455 463 455 463 494.5 427.5 c 128,-1,24
 534 392 534 392 564.5 353.5 c 128,-1,25
 595 315 595 315 613.5 276.5 c 128,-1,26
 632 238 632 238 632 204 c 0,27,28
 632 177 632 177 623 154.5 c 128,-1,29
 614 132 614 132 599.5 113.5 c 128,-1,30
 585 95 585 95 565.5 79.5 c 128,-1,31
 546 64 546 64 524 50 c 1,32,-1
 524 40 l 2,33,34
 524 22 524 22 534.5 7.5 c 128,-1,35
 545 -7 545 -7 561 -18 c 128,-1,36
 577 -29 577 -29 595.5 -39 c 128,-1,37
 614 -49 614 -49 630 -58 c 128,-1,38
 646 -67 646 -67 657.5 -76 c 128,-1,39
 669 -85 669 -85 670 -95 c 1,40,41
 648 -116 648 -116 628.5 -116 c 128,-1,42
 609 -116 609 -116 590.5 -103.5 c 128,-1,43
 572 -91 572 -91 553.5 -70.5 c 128,-1,44
 535 -50 535 -50 515.5 -31 c 128,-1,45
 496 -12 496 -12 474.5 1 c 128,-1,46
 453 14 453 14 430 12 c 0,0,1
82 280 m 1,47,48
 78 233 78 233 95 193.5 c 128,-1,49
 112 154 112 154 144 126 c 128,-1,50
 176 98 176 98 217.5 82 c 0,51,52
 258 66 258 66 304 67 c 0,53,54
 313 67 313 67 323.5 67 c 128,-1,55
 334 67 334 67 342.5 70 c 128,-1,56
 351 73 351 73 356.5 80 c 128,-1,57
 362 87 362 87 362 102 c 1,58,59
 358 121 358 121 345 141 c 128,-1,60
 332 161 332 161 322 179 c 128,-1,61
 312 197 312 197 309 212.5 c 128,-1,62
 306 228 306 228 320 238 c 1,63,64
 336 238 336 238 353 220 c 128,-1,65
 370 202 370 202 387 178.5 c 128,-1,66
 404 155 404 155 419.5 132 c 0,67,68
 435 110 435 110 448 98 c 1,69,70
 450 98 450 98 455 97.5 c 128,-1,71
 460 97 460 97 462 97 c 0,72,73
 476 97 476 97 496 105.5 c 128,-1,74
 516 114 516 114 535 127 c 128,-1,75
 554 140 554 140 568 156.5 c 128,-1,76
 582 173 582 173 582 189 c 0,77,78
 582 210 582 210 575 230.5 c 128,-1,79
 568 251 568 251 557 270.5 c 128,-1,80
 546 290 546 290 532.5 306.5 c 0,81,82
 520 323 520 323 506 338 c 0,83,84
 498 346 498 346 485 359.5 c 128,-1,85
 472 373 472 373 459 385.5 c 128,-1,86
 446 398 446 398 435 406.5 c 128,-1,87
 424 415 424 415 419 415 c 1,88,89
 417 392 417 392 410.5 369.5 c 128,-1,90
 404 347 404 347 390 328 c 0,91,92
 389 328 389 328 387.5 327.5 c 0,93,-1
 386 327 l 2,94,-1
 383 327 l 2,95,96
 382 327 382 327 381 328 c 0,97,98
 380 328 380 328 376 330 c 128,-1,99
 372 332 372 332 367 335 c 128,-1,100
 362 338 362 338 358 340.5 c 0,101,-1
 354 344 l 0,102,103
 372 388 372 388 367 415.5 c 128,-1,104
 362 443 362 443 343.5 459 c 128,-1,105
 325 475 325 475 298.5 481.5 c 128,-1,106
 272 488 272 488 247.5 488 c 128,-1,107
 223 488 223 488 205.5 485.5 c 0,108,109
 188 484 188 484 189 482 c 1,110,111
 155 470 155 470 134 448.5 c 128,-1,112
 113 427 113 427 101.5 400 c 128,-1,113
 90 373 90 373 86 342 c 128,-1,114
 82 311 82 311 82 280 c 1,47,48
EndSplineSet
EndChar

StartChar: R
Encoding: 82 82 53
Width: 593
VWidth: 768
Flags: HW
LayerCount: 2
Fore
SplineSet
198 222 m 1,0,1
 205 177 205 177 214.5 139.5 c 128,-1,2
 224 102 224 102 229 74 c 128,-1,3
 234 46 234 46 231.5 29 c 0,4,5
 230 12 230 12 212 8 c 1,6,7
 210 2 210 2 204 15 c 128,-1,8
 198 28 198 28 190 54.5 c 128,-1,9
 182 81 182 81 173 118 c 128,-1,10
 164 155 164 155 155.5 196.5 c 128,-1,11
 147 238 147 238 140 282 c 128,-1,12
 133 326 133 326 128.5 366 c 128,-1,13
 124 406 124 406 124 439 c 128,-1,14
 124 472 124 472 130 494 c 1,15,16
 142 503 142 503 151.5 498.5 c 128,-1,17
 161 494 161 494 166.5 484 c 128,-1,18
 172 474 172 474 173.5 461 c 0,19,20
 174 448 174 448 172 437 c 1,21,22
 173 433 173 433 175.5 422 c 128,-1,23
 178 411 178 411 181 398.5 c 128,-1,24
 184 386 184 386 187 375 c 128,-1,25
 190 364 190 364 192 360 c 1,26,27
 206 362 206 362 233.5 365.5 c 128,-1,28
 261 369 261 369 293 375.5 c 128,-1,29
 325 382 325 382 358.5 391 c 128,-1,30
 392 400 392 400 419 412 c 128,-1,31
 446 424 446 424 463.5 440 c 128,-1,32
 481 456 481 456 481 476 c 0,33,34
 481 478 481 478 480.5 481 c 0,35,-1
 480 484 l 0,36,37
 452 516 452 516 423 536 c 128,-1,38
 394 556 394 556 361.5 565.5 c 128,-1,39
 329 575 329 575 293 578 c 128,-1,40
 257 581 257 581 216 581 c 0,41,42
 186 581 186 581 153 580.5 c 128,-1,43
 120 580 120 580 92.5 572 c 128,-1,44
 65 564 65 564 47 543 c 128,-1,45
 29 522 29 522 29 482 c 1,46,47
 20 482 20 482 13 488 c 128,-1,48
 6 494 6 494 1 502.5 c 128,-1,49
 -4 511 -4 511 -7 520.5 c 128,-1,50
 -10 530 -10 530 -10 537 c 0,51,52
 -10 551 -10 551 -4 563.5 c 128,-1,53
 2 576 2 576 12 586 c 128,-1,54
 22 596 22 596 34 604.5 c 128,-1,55
 46 613 46 613 58 619 c 1,56,57
 90 625 90 625 114.5 629 c 128,-1,58
 139 633 139 633 161 635.5 c 128,-1,59
 183 638 183 638 205.5 638.5 c 128,-1,60
 228 639 228 639 256 639 c 256,61,62
 284 639 284 639 315 634.5 c 128,-1,63
 346 630 346 630 378 621 c 128,-1,64
 410 612 410 612 438.5 597.5 c 128,-1,65
 467 583 467 583 489.5 562.5 c 128,-1,66
 512 542 512 542 525 515.5 c 128,-1,67
 538 489 538 489 538 456 c 0,68,69
 538 427 538 427 520 405 c 128,-1,70
 502 383 502 383 472 367 c 128,-1,71
 442 351 442 351 405.5 340 c 128,-1,72
 369 329 369 329 332.5 320.5 c 128,-1,73
 296 312 296 312 264 305.5 c 0,74,75
 232 298 232 298 212 292 c 1,76,77
 262 223 262 223 311 175 c 128,-1,78
 360 127 360 127 403 94 c 128,-1,79
 446 61 446 61 481 40.5 c 128,-1,80
 516 20 516 20 538 6 c 128,-1,81
 560 -8 560 -8 566 -16.5 c 0,82,83
 572 -24 572 -24 557 -34 c 1,84,85
 546 -48 546 -48 521 -41 c 128,-1,86
 496 -34 496 -34 463.5 -13.5 c 128,-1,87
 431 7 431 7 394 37.5 c 128,-1,88
 357 68 357 68 321 101 c 128,-1,89
 285 134 285 134 252.5 166 c 128,-1,90
 220 198 220 198 198 222 c 1,0,1
EndSplineSet
EndChar

StartChar: S
Encoding: 83 83 54
Width: 643
VWidth: 768
Flags: HW
LayerCount: 2
Fore
SplineSet
20 178 m 1,0,1
 20 188 20 188 24 199.5 c 128,-1,2
 28 211 28 211 35 221.5 c 128,-1,3
 42 232 42 232 52 239 c 128,-1,4
 62 246 62 246 73 246 c 1,5,6
 73 181 73 181 96 143.5 c 128,-1,7
 119 106 119 106 159.5 86 c 128,-1,8
 200 66 200 66 252.5 59 c 0,9,10
 304 52 304 52 364 49 c 1,11,12
 384 50 384 50 416.5 50.5 c 128,-1,13
 449 51 449 51 479 57.5 c 128,-1,14
 509 64 509 64 530 79 c 128,-1,15
 551 94 551 94 550 125 c 0,16,17
 550 139 550 139 549 150 c 128,-1,18
 548 161 548 161 544.5 169.5 c 128,-1,19
 541 178 541 178 532.5 186 c 128,-1,20
 524 194 524 194 509 202 c 2,21,-1
 212 364 l 2,22,23
 196 373 196 373 181 386.5 c 128,-1,24
 166 400 166 400 156 416.5 c 128,-1,25
 146 433 146 433 140 451.5 c 128,-1,26
 134 470 134 470 134 488 c 0,27,28
 134 526 134 526 154.5 550 c 128,-1,29
 175 574 175 574 205.5 588.5 c 128,-1,30
 236 603 236 603 271.5 609 c 128,-1,31
 307 615 307 615 337 615 c 0,32,33
 351 615 351 615 373 612.5 c 128,-1,34
 395 610 395 610 420 605 c 128,-1,35
 445 600 445 600 469.5 592 c 128,-1,36
 494 584 494 584 513 571.5 c 128,-1,37
 532 559 532 559 544.5 542.5 c 128,-1,38
 557 526 557 526 557 504 c 1,39,40
 543 496 543 496 528.5 499 c 128,-1,41
 514 502 514 502 499 510 c 128,-1,42
 484 518 484 518 468 528 c 128,-1,43
 452 538 452 538 435 548 c 128,-1,44
 418 558 418 558 399 564 c 128,-1,45
 380 570 380 570 359 568 c 1,46,47
 340 568 340 568 310 566 c 128,-1,48
 280 564 280 564 251.5 556.5 c 128,-1,49
 223 549 223 549 202.5 533.5 c 128,-1,50
 182 518 182 518 182 490 c 0,51,52
 182 463 182 463 201 440.5 c 128,-1,53
 220 418 220 418 252.5 397.5 c 128,-1,54
 285 377 285 377 325.5 358.5 c 128,-1,55
 366 340 366 340 407.5 320.5 c 128,-1,56
 449 301 449 301 488.5 280 c 128,-1,57
 528 259 528 259 557.5 234 c 128,-1,58
 587 209 587 209 603.5 180.5 c 128,-1,59
 620 152 620 152 615 116 c 128,-1,60
 610 80 610 80 584 54 c 128,-1,61
 558 28 558 28 518 13.5 c 128,-1,62
 478 -1 478 -1 429 -5.5 c 128,-1,63
 380 -10 380 -10 328 -5 c 128,-1,64
 276 0 276 0 225 14 c 128,-1,65
 174 28 174 28 132 51.5 c 128,-1,66
 90 75 90 75 60 106.5 c 128,-1,67
 30 138 30 138 20 178 c 1,0,1
EndSplineSet
EndChar

StartChar: T
Encoding: 84 84 55
Width: 595
VWidth: 768
Flags: HW
LayerCount: 2
Fore
SplineSet
316 556 m 1,0,1
 246 556 246 556 171.5 565.5 c 128,-1,2
 97 575 97 575 29 586 c 1,3,4
 20 584 20 584 15 588.5 c 128,-1,5
 10 593 10 593 7 600.5 c 128,-1,6
 4 608 4 608 3.5 615 c 128,-1,7
 3 622 3 622 3 626 c 1,8,9
 18 626 18 626 55 626 c 128,-1,10
 92 626 92 626 142.5 625 c 128,-1,11
 193 624 193 624 252.5 622 c 128,-1,12
 312 620 312 620 372 616 c 128,-1,13
 432 612 432 612 488 606.5 c 128,-1,14
 544 601 544 601 587.5 592.5 c 128,-1,15
 631 584 631 584 656.5 573 c 128,-1,16
 682 562 682 562 682 548 c 0,17,18
 682 538 682 538 679 528 c 128,-1,19
 676 518 676 518 664 518 c 1,20,21
 627 520 627 520 591 529 c 128,-1,22
 555 538 555 538 519 546.5 c 128,-1,23
 483 555 483 555 445.5 558.5 c 128,-1,24
 408 562 408 562 369 550 c 1,25,26
 369 504 369 504 374.5 449 c 128,-1,27
 380 394 380 394 387.5 337 c 128,-1,28
 395 280 395 280 404.5 223 c 128,-1,29
 414 166 414 166 423 116 c 0,30,31
 425 103 425 103 431.5 90.5 c 128,-1,32
 438 78 438 78 445 66.5 c 128,-1,33
 452 55 452 55 457 43 c 128,-1,34
 462 31 462 31 462 19 c 0,35,36
 462 11 462 11 457 6.5 c 128,-1,37
 452 2 452 2 445 0.5 c 128,-1,38
 438 -1 438 -1 430 -1 c 128,-1,39
 422 -1 422 -1 417 -1 c 0,40,41
 397 -1 397 -1 385.5 15 c 128,-1,42
 374 31 374 31 368 52.5 c 128,-1,43
 362 74 362 74 360 97 c 128,-1,44
 358 120 358 120 356 134 c 0,45,46
 348 189 348 189 342 240.5 c 128,-1,47
 336 292 336 292 331.5 343.5 c 128,-1,48
 327 395 327 395 323.5 447.5 c 128,-1,49
 320 500 320 500 316 556 c 1,0,1
EndSplineSet
EndChar

StartChar: U
Encoding: 85 85 56
Width: 585
VWidth: 768
Flags: HW
LayerCount: 2
Fore
SplineSet
28 390 m 0,0,1
 28 399 28 399 28.5 414.5 c 128,-1,2
 29 430 29 430 30.5 448.5 c 128,-1,3
 32 467 32 467 36 486.5 c 128,-1,4
 40 506 40 506 48 521.5 c 128,-1,5
 56 537 56 537 68 547 c 128,-1,6
 80 557 80 557 97 557 c 0,7,8
 108 557 108 557 114 551 c 128,-1,9
 120 545 120 545 121 536.5 c 128,-1,10
 122 528 122 528 116 518 c 128,-1,11
 110 508 110 508 97 500 c 1,12,13
 88 500 88 500 84 486.5 c 128,-1,14
 80 473 80 473 78 457 c 128,-1,15
 76 441 76 441 76 426 c 128,-1,16
 76 411 76 411 76 408 c 0,17,18
 76 382 76 382 78 348 c 128,-1,19
 80 314 80 314 86 277.5 c 128,-1,20
 92 241 92 241 103.5 205 c 128,-1,21
 115 169 115 169 133.5 139.5 c 128,-1,22
 152 110 152 110 178 90 c 128,-1,23
 204 70 204 70 241 68 c 0,24,25
 269 66 269 66 306 78 c 128,-1,26
 343 90 343 90 375 112.5 c 128,-1,27
 407 135 407 135 429.5 164.5 c 128,-1,28
 452 194 452 194 452 226 c 2,29,-1
 452 230 l 1,30,31
 445 272 445 272 437.5 300 c 128,-1,32
 430 328 430 328 424.5 351 c 128,-1,33
 419 374 419 374 415.5 398 c 128,-1,34
 412 422 412 422 412 454 c 1,35,36
 415 500 415 500 422.5 522.5 c 128,-1,37
 430 545 430 545 438 547.5 c 128,-1,38
 446 550 446 550 455 536 c 128,-1,39
 464 522 464 522 471 495.5 c 128,-1,40
 478 469 478 469 481 432.5 c 128,-1,41
 484 396 484 396 483 355 c 1,42,43
 484 325 484 325 494.5 289 c 128,-1,44
 505 253 505 253 518 217 c 128,-1,45
 531 181 531 181 544.5 147 c 128,-1,46
 558 113 558 113 565 87.5 c 128,-1,47
 572 62 572 62 569 45.5 c 128,-1,48
 566 29 566 29 548 29 c 0,49,50
 528 29 528 29 518 41 c 128,-1,51
 508 53 508 53 501 67.5 c 128,-1,52
 494 82 494 82 486.5 94 c 0,53,54
 478 106 478 106 466 106 c 0,55,56
 456 106 456 106 442 98.5 c 128,-1,57
 428 91 428 91 410.5 79 c 128,-1,58
 393 67 393 67 372.5 53 c 128,-1,59
 352 39 352 39 330 27 c 128,-1,60
 308 15 308 15 285 7 c 128,-1,61
 262 -1 262 -1 238 -1 c 0,62,63
 195 -1 195 -1 163 19.5 c 128,-1,64
 131 40 131 40 108 73 c 128,-1,65
 85 106 85 106 69.5 148.5 c 128,-1,66
 54 191 54 191 45 234.5 c 128,-1,67
 36 278 36 278 32 318.5 c 128,-1,68
 28 359 28 359 28 390 c 0,0,1
EndSplineSet
EndChar

StartChar: V
Encoding: 86 86 57
Width: 432
VWidth: 768
Flags: HW
LayerCount: 2
Fore
SplineSet
19 514 m 0,0,1
 19 525 19 525 26.5 527.5 c 128,-1,2
 34 530 34 530 42 530 c 0,3,4
 61 530 61 530 77 508 c 128,-1,5
 93 486 93 486 106.5 456.5 c 128,-1,6
 120 427 120 427 130.5 397.5 c 128,-1,7
 141 368 141 368 149 352 c 0,8,9
 152 346 152 346 161 327 c 128,-1,10
 170 308 170 308 181.5 282 c 128,-1,11
 193 256 193 256 205.5 227.5 c 128,-1,12
 218 199 218 199 230 173 c 128,-1,13
 242 147 242 147 250 127.5 c 128,-1,14
 258 108 258 108 261 102 c 1,15,16
 267 108 267 108 273.5 130 c 128,-1,17
 280 152 280 152 287.5 184.5 c 128,-1,18
 295 217 295 217 302 255.5 c 128,-1,19
 309 294 309 294 316.5 333.5 c 128,-1,20
 324 373 324 373 332 409.5 c 128,-1,21
 340 446 340 446 348 474 c 128,-1,22
 356 502 356 502 363.5 517.5 c 128,-1,23
 371 533 371 533 379 530 c 1,24,25
 394 534 394 534 400 515.5 c 128,-1,26
 406 497 406 497 405 463.5 c 128,-1,27
 404 430 404 430 397 384 c 128,-1,28
 390 338 390 338 378.5 289.5 c 128,-1,29
 367 241 367 241 352.5 192 c 128,-1,30
 338 143 338 143 321 103 c 128,-1,31
 304 63 304 63 287 35 c 128,-1,32
 270 7 270 7 254 -1 c 0,33,34
 252 -1 252 -1 247 -0.5 c 128,-1,35
 242 0 242 0 241 0 c 1,36,37
 236 10 236 10 223 34.5 c 128,-1,38
 210 59 210 59 196 86.5 c 128,-1,39
 182 114 182 114 170 138.5 c 0,40,41
 158 162 158 162 154 172 c 0,42,43
 148 185 148 185 135.5 212 c 128,-1,44
 123 239 123 239 108 272.5 c 128,-1,45
 93 306 93 306 77.5 343 c 128,-1,46
 62 380 62 380 48.5 413.5 c 128,-1,47
 35 447 35 447 27 473.5 c 128,-1,48
 19 500 19 500 19 514 c 0,0,1
EndSplineSet
EndChar

StartChar: W
Encoding: 87 87 58
Width: 720
VWidth: 768
Flags: HW
LayerCount: 2
Fore
SplineSet
332 116 m 0,0,1
 331 116 331 116 330.5 116 c 128,-1,2
 330 116 330 116 329 116 c 2,3,-1
 327 116 l 1,4,5
 283 76 283 76 256 54 c 128,-1,6
 229 32 229 32 213 21.5 c 128,-1,7
 197 11 197 11 190 9.5 c 128,-1,8
 183 8 183 8 180 8 c 0,9,10
 142 8 142 8 114.5 29.5 c 128,-1,11
 87 51 87 51 68.5 85 c 128,-1,12
 50 119 50 119 38.5 162.5 c 128,-1,13
 27 206 27 206 21 249 c 128,-1,14
 15 292 15 292 12.5 330 c 128,-1,15
 10 368 10 368 10 394 c 0,16,17
 10 397 10 397 10 415.5 c 128,-1,18
 10 434 10 434 13 455 c 128,-1,19
 16 476 16 476 24.5 493 c 0,20,21
 34 510 34 510 50 510 c 0,22,23
 57 510 57 510 60 491 c 128,-1,24
 63 472 63 472 65.5 442 c 128,-1,25
 68 412 68 412 71 373 c 128,-1,26
 74 334 74 334 77.5 293 c 128,-1,27
 81 252 81 252 87.5 213 c 128,-1,28
 94 174 94 174 104.5 143.5 c 128,-1,29
 115 113 115 113 130.5 94.5 c 128,-1,30
 146 76 146 76 168 76 c 0,31,32
 186 76 186 76 202.5 86 c 128,-1,33
 219 96 219 96 233 110 c 128,-1,34
 247 124 247 124 258.5 139 c 128,-1,35
 270 154 270 154 279 164 c 1,36,37
 285 178 285 178 287.5 196 c 128,-1,38
 290 214 290 214 290.5 233 c 128,-1,39
 291 252 291 252 290.5 269 c 128,-1,40
 290 286 290 286 289 298 c 1,41,42
 294 312 294 312 301 317.5 c 128,-1,43
 308 323 308 323 314 321 c 128,-1,44
 320 319 320 319 326 310.5 c 128,-1,45
 332 302 332 302 337 288 c 1,46,47
 342 256 342 256 355 217 c 128,-1,48
 368 178 368 178 389.5 144.5 c 128,-1,49
 411 111 411 111 442 88.5 c 128,-1,50
 473 66 473 66 514 66 c 0,51,52
 536 66 536 66 559.5 75 c 128,-1,53
 583 84 583 84 601.5 100 c 128,-1,54
 620 116 620 116 632 137 c 128,-1,55
 644 158 644 158 644 182 c 0,56,57
 644 220 644 220 632 256 c 128,-1,58
 620 292 620 292 605 327.5 c 128,-1,59
 590 363 590 363 578 398.5 c 128,-1,60
 566 434 566 434 566 471 c 1,61,62
 579 499 579 499 594.5 494.5 c 128,-1,63
 610 490 610 490 625.5 465 c 128,-1,64
 641 440 641 440 655 400.5 c 128,-1,65
 669 361 669 361 680 320.5 c 128,-1,66
 691 280 691 280 696.5 244.5 c 128,-1,67
 702 209 702 209 701 192 c 1,68,69
 701 154 701 154 685 120 c 128,-1,70
 669 86 669 86 641.5 59 c 128,-1,71
 614 32 614 32 578.5 16 c 128,-1,72
 543 0 543 0 505 0 c 0,73,74
 475 0 475 0 446.5 18 c 128,-1,75
 418 36 418 36 395.5 58 c 128,-1,76
 373 80 373 80 356.5 98 c 128,-1,77
 340 116 340 116 332 116 c 0,0,1
EndSplineSet
EndChar

StartChar: X
Encoding: 88 88 59
Width: 547
VWidth: 768
Flags: HW
LayerCount: 2
Fore
SplineSet
20 -31 m 0,0,1
 20 6 20 6 39.5 47 c 128,-1,2
 59 88 59 88 87.5 129.5 c 128,-1,3
 116 171 116 171 147 209 c 128,-1,4
 178 247 178 247 202 277 c 1,5,6
 202 293 202 293 193.5 312.5 c 128,-1,7
 185 332 185 332 172 352.5 c 128,-1,8
 159 373 159 373 144 394.5 c 128,-1,9
 129 416 129 416 116 436.5 c 128,-1,10
 103 457 103 457 94.5 476.5 c 128,-1,11
 86 496 86 496 86 514 c 0,12,13
 86 526 86 526 89.5 532 c 128,-1,14
 93 538 93 538 106 538 c 1,15,16
 111 537 111 537 120.5 525 c 128,-1,17
 130 513 130 513 141.5 495 c 128,-1,18
 153 477 153 477 165.5 456 c 128,-1,19
 178 435 178 435 189 415.5 c 128,-1,20
 200 396 200 396 209 381.5 c 128,-1,21
 218 367 218 367 222 362 c 1,22,23
 232 344 232 344 242.5 336 c 128,-1,24
 253 328 253 328 272.5 337.5 c 128,-1,25
 292 347 292 347 327 377 c 128,-1,26
 362 407 362 407 420 465 c 0,27,28
 427 471 427 471 445 482 c 128,-1,29
 463 493 463 493 482.5 499.5 c 128,-1,30
 502 506 502 506 519 504 c 128,-1,31
 536 502 536 502 539 482 c 1,32,33
 507 462 507 462 471.5 437 c 128,-1,34
 436 412 436 412 401.5 383.5 c 128,-1,35
 367 355 367 355 335 325 c 128,-1,36
 303 295 303 295 280 266 c 1,37,38
 289 241 289 241 310.5 209.5 c 128,-1,39
 332 178 332 178 356.5 146 c 128,-1,40
 381 114 381 114 404 84.5 c 128,-1,41
 427 55 427 55 438.5 34 c 128,-1,42
 450 13 450 13 446 3.5 c 128,-1,43
 442 -6 442 -6 412 2 c 1,44,45
 386 22 386 22 363 49 c 128,-1,46
 340 76 340 76 319 104.5 c 128,-1,47
 298 133 298 133 276 160.5 c 128,-1,48
 254 188 254 188 231 209 c 1,49,-1
 226 209 l 2,50,51
 220 209 220 209 210 199.5 c 128,-1,52
 200 190 200 190 188.5 176 c 128,-1,53
 177 162 177 162 164.5 144.5 c 128,-1,54
 152 127 152 127 140 109.5 c 128,-1,55
 128 92 128 92 119.5 77.5 c 0,56,57
 110 64 110 64 106 56 c 1,58,59
 100 49 100 49 92 30.5 c 128,-1,60
 84 12 84 12 75 -8 c 128,-1,61
 66 -28 66 -28 56 -44 c 128,-1,62
 46 -60 46 -60 39 -62 c 1,63,64
 27 -62 27 -62 23.5 -53.5 c 128,-1,65
 20 -45 20 -45 20 -31 c 0,0,1
EndSplineSet
EndChar

StartChar: Y
Encoding: 89 89 60
Width: 413
VWidth: 768
Flags: HW
LayerCount: 2
Fore
SplineSet
202 4 m 1,0,1
 202 7 202 7 202 14.5 c 128,-1,2
 202 22 202 22 202 30.5 c 128,-1,3
 202 39 202 39 202 46.5 c 128,-1,4
 202 54 202 54 202 57 c 0,5,6
 202 100 202 100 206.5 133.5 c 128,-1,7
 211 167 211 167 218.5 199 c 128,-1,8
 226 231 226 231 237 264.5 c 128,-1,9
 248 298 248 298 260 340 c 0,10,11
 260 342 260 342 260.5 347.5 c 128,-1,12
 261 353 261 353 261 355 c 1,13,14
 263 356 263 356 243.5 365 c 128,-1,15
 224 374 224 374 196 390.5 c 128,-1,16
 168 407 168 407 135 432 c 128,-1,17
 102 457 102 457 74.5 490 c 128,-1,18
 47 523 47 523 30.5 564 c 128,-1,19
 14 605 14 605 18 655 c 0,20,21
 19 655 19 655 23.5 655.5 c 128,-1,22
 28 656 28 656 33.5 656.5 c 128,-1,23
 39 657 39 657 44 657.5 c 0,24,-1
 50 658 l 0,25,26
 57 638 57 638 69 613 c 128,-1,27
 81 588 81 588 98.5 562 c 128,-1,28
 116 536 116 536 137 511.5 c 128,-1,29
 158 487 158 487 181.5 467.5 c 128,-1,30
 205 448 205 448 230.5 436.5 c 128,-1,31
 256 425 256 425 283 425 c 1,32,33
 301 465 301 465 311.5 488.5 c 128,-1,34
 322 512 322 512 328 525 c 128,-1,35
 334 538 334 538 336 544.5 c 128,-1,36
 338 551 338 551 339 558.5 c 128,-1,37
 340 566 340 566 341 576.5 c 128,-1,38
 342 587 342 587 346 609 c 1,39,40
 346 613 346 613 354 617.5 c 128,-1,41
 362 622 362 622 370.5 623 c 128,-1,42
 379 624 379 624 386.5 621 c 128,-1,43
 394 618 394 618 394 609 c 1,44,45
 394 554 394 554 382 504.5 c 128,-1,46
 370 455 370 455 352 408 c 128,-1,47
 334 361 334 361 314 314.5 c 128,-1,48
 294 268 294 268 279 219 c 128,-1,49
 264 170 264 170 257.5 117 c 128,-1,50
 251 64 251 64 260 4 c 1,51,52
 254 -7 254 -7 248 -11.5 c 128,-1,53
 242 -16 242 -16 232 -16 c 256,54,55
 222 -16 222 -16 215 -11.5 c 128,-1,56
 208 -7 208 -7 202 4 c 1,0,1
EndSplineSet
EndChar

StartChar: Z
Encoding: 90 90 61
Width: 585
VWidth: 768
Flags: HW
LayerCount: 2
Fore
SplineSet
172 72 m 256,0,1
 172 97 172 97 187 119 c 128,-1,2
 202 141 202 141 220 162 c 128,-1,3
 238 183 238 183 253 203.5 c 128,-1,4
 268 224 268 224 268 245 c 2,5,-1
 268 250 l 1,6,7
 267 252 267 252 264 259 c 0,8,9
 262 266 262 266 260 268 c 1,10,11
 258 268 258 268 253 268 c 128,-1,12
 248 268 248 268 242.5 268.5 c 128,-1,13
 237 269 237 269 232 269 c 128,-1,14
 227 269 227 269 226 269 c 0,15,16
 197 269 197 269 168.5 263 c 128,-1,17
 140 257 140 257 110 257 c 1,18,19
 110 271 110 271 114.5 286.5 c 128,-1,20
 119 302 119 302 134 308 c 1,21,22
 167 318 167 318 196.5 322 c 128,-1,23
 226 326 226 326 250 330 c 128,-1,24
 274 334 274 334 293.5 339.5 c 128,-1,25
 313 345 313 345 327 358 c 128,-1,26
 341 371 341 371 350 394.5 c 128,-1,27
 359 418 359 418 363 457 c 1,28,29
 363 493 363 493 345.5 517.5 c 128,-1,30
 328 542 328 542 301 557.5 c 128,-1,31
 274 573 274 573 242 579.5 c 128,-1,32
 210 586 210 586 181 586 c 0,33,34
 157 586 157 586 136 580 c 128,-1,35
 115 574 115 574 96 566.5 c 128,-1,36
 77 559 77 559 60.5 553 c 128,-1,37
 44 547 44 547 27 547 c 0,38,39
 25 547 25 547 22 550.5 c 128,-1,40
 19 554 19 554 17 556 c 1,41,-1
 17 562 l 2,42,43
 17 588 17 588 34.5 602 c 128,-1,44
 52 616 52 616 76 624 c 128,-1,45
 100 632 100 632 124.5 633 c 128,-1,46
 149 634 149 634 165 634 c 0,47,48
 211 634 211 634 256 626 c 128,-1,49
 301 618 301 618 335.5 597 c 128,-1,50
 370 576 370 576 391 540 c 128,-1,51
 412 504 412 504 412 449 c 0,52,53
 412 433 412 433 409 422 c 128,-1,54
 406 411 406 411 402.5 401.5 c 128,-1,55
 399 392 399 392 396.5 381 c 128,-1,56
 394 370 394 370 394 356 c 0,57,58
 394 351 394 351 404 348 c 128,-1,59
 414 345 414 345 429 343.5 c 128,-1,60
 444 342 444 342 461.5 341 c 128,-1,61
 479 340 479 340 494 337 c 128,-1,62
 509 334 509 334 519.5 328 c 128,-1,63
 530 322 530 322 530 312 c 0,64,65
 530 311 530 311 529.5 309.5 c 0,66,-1
 529 308 l 0,67,68
 522 304 522 304 513 299 c 128,-1,69
 504 294 504 294 494 289.5 c 128,-1,70
 484 285 484 285 474 282 c 128,-1,71
 464 279 464 279 456 279 c 0,72,73
 452 279 452 279 449.5 280.5 c 128,-1,74
 447 282 447 282 444.5 283.5 c 128,-1,75
 442 285 442 285 440 286.5 c 128,-1,76
 438 288 438 288 434 288 c 0,77,78
 395 288 395 288 366.5 269 c 128,-1,79
 338 250 338 250 316 221 c 128,-1,80
 294 192 294 192 276 158 c 128,-1,81
 258 124 258 124 241 96 c 1,82,83
 241 94 241 94 239.5 88.5 c 128,-1,84
 238 83 238 83 238 82 c 0,85,86
 238 66 238 66 245 61.5 c 128,-1,87
 252 57 252 57 267 57 c 0,88,89
 303 57 303 57 338.5 65 c 128,-1,90
 374 73 374 73 408.5 82 c 128,-1,91
 443 91 443 91 478 98.5 c 0,92,93
 514 106 514 106 548 106 c 0,94,95
 561 106 561 106 564.5 99 c 128,-1,96
 568 92 568 92 568 81 c 0,97,98
 568 69 568 69 565 62 c 128,-1,99
 562 55 562 55 548 49 c 0,100,101
 484 27 484 27 419.5 13 c 128,-1,102
 355 -1 355 -1 288 -1 c 0,103,104
 284 -1 284 -1 274.5 -1 c 128,-1,105
 265 -1 265 -1 254 -0.5 c 128,-1,106
 243 0 243 0 233.5 0 c 128,-1,107
 224 0 224 0 221 0 c 1,108,109
 196 8 196 8 184 27.5 c 128,-1,110
 172 47 172 47 172 72 c 256,0,1
EndSplineSet
EndChar

StartChar: bracketleft
Encoding: 91 91 62
Width: 489
VWidth: 768
Flags: HW
LayerCount: 2
Fore
SplineSet
20 576 m 1,0,-1
 20 580 l 2,1,2
 20 590 20 590 25 599.5 c 128,-1,3
 30 609 30 609 38 614 c 1,4,5
 82 631 82 631 135 650 c 128,-1,6
 188 669 188 669 243 684.5 c 128,-1,7
 298 700 298 700 353.5 710.5 c 128,-1,8
 409 721 409 721 457 721 c 2,9,-1
 460 721 l 1,10,11
 462 719 462 719 466 712 c 128,-1,12
 470 705 470 705 471 701 c 1,13,-1
 471 696 l 1,14,-1
 471 692 l 1,15,16
 469 690 469 690 465.5 686 c 128,-1,17
 462 682 462 682 460 682 c 0,18,19
 418 673 418 673 371.5 661.5 c 128,-1,20
 325 650 325 650 277.5 637 c 128,-1,21
 230 624 230 624 183.5 608.5 c 128,-1,22
 137 593 137 593 96 576 c 1,23,-1
 88 576 l 1,24,25
 88 567 88 567 91 548.5 c 128,-1,26
 94 530 94 530 99.5 509.5 c 128,-1,27
 105 489 105 489 111.5 470.5 c 128,-1,28
 118 452 118 452 125 442 c 1,29,30
 145 310 145 310 155.5 221.5 c 128,-1,31
 166 133 166 133 173 79.5 c 128,-1,32
 180 26 180 26 186.5 3 c 0,33,34
 194 -20 194 -20 206 -20 c 0,35,36
 264 -20 264 -20 321.5 -14 c 128,-1,37
 379 -8 379 -8 437 -8 c 0,38,39
 441 -8 441 -8 454.5 -8 c 128,-1,40
 468 -8 468 -8 482.5 -8.5 c 128,-1,41
 497 -9 497 -9 510.5 -9 c 128,-1,42
 524 -9 524 -9 529 -9 c 1,43,44
 538 -17 538 -17 547.5 -28.5 c 128,-1,45
 557 -40 557 -40 557 -54 c 0,46,47
 557 -55 557 -55 556.5 -55.5 c 0,48,-1
 556 -56 l 2,49,-1
 556 -58 l 1,50,51
 554 -60 554 -60 547.5 -63 c 128,-1,52
 541 -66 541 -66 538 -67 c 1,53,54
 509 -66 509 -66 466.5 -65.5 c 128,-1,55
 424 -65 424 -65 379 -65.5 c 128,-1,56
 334 -66 334 -66 292 -68.5 c 0,57,58
 250 -70 250 -70 221 -76 c 0,59,60
 219 -76 219 -76 213.5 -78 c 128,-1,61
 208 -80 208 -80 202 -81 c 128,-1,62
 196 -82 196 -82 190.5 -84 c 128,-1,63
 185 -86 185 -86 183 -86 c 0,64,65
 181 -87 181 -87 177 -88.5 c 128,-1,66
 173 -90 173 -90 168.5 -92 c 128,-1,67
 164 -94 164 -94 159 -95 c 0,68,-1
 154 -96 l 256,69,70
 153 -96 153 -96 149.5 -92 c 128,-1,71
 146 -88 146 -88 145 -86 c 0,72,73
 142 -82 142 -82 138 -71.5 c 128,-1,74
 134 -61 134 -61 134 -58 c 0,75,76
 133 -54 133 -54 133 -41 c 128,-1,77
 133 -28 133 -28 131.5 -11.5 c 128,-1,78
 130 5 130 5 129.5 24 c 128,-1,79
 129 43 129 43 128 59.5 c 128,-1,80
 127 76 127 76 126 88.5 c 128,-1,81
 125 101 125 101 125 106 c 0,82,83
 124 111 124 111 121.5 126.5 c 128,-1,84
 119 142 119 142 115.5 163.5 c 128,-1,85
 112 185 112 185 108 210.5 c 128,-1,86
 104 236 104 236 100 260 c 128,-1,87
 96 284 96 284 92.5 304 c 128,-1,88
 89 324 89 324 87 337 c 0,89,90
 86 338 86 338 84.5 342 c 128,-1,91
 83 346 83 346 81.5 350.5 c 128,-1,92
 80 355 80 355 78 359 c 0,93,94
 76 362 76 362 76 364 c 2,95,-1
 76 375 l 1,96,-1
 20 576 l 1,0,-1
EndSplineSet
EndChar

StartChar: backslash
Encoding: 92 92 63
Width: 441
VWidth: 768
Flags: HW
LayerCount: 2
Fore
SplineSet
337 87 m 1,0,1
 327 98 327 98 307 123 c 128,-1,2
 287 148 287 148 262.5 179 c 128,-1,3
 238 210 238 210 211 244.5 c 128,-1,4
 184 279 184 279 159.5 310.5 c 128,-1,5
 135 342 135 342 115.5 367 c 128,-1,6
 96 392 96 392 87 404 c 0,7,8
 83 410 83 410 70 426 c 128,-1,9
 57 442 57 442 43.5 463 c 128,-1,10
 30 484 30 484 20 505.5 c 128,-1,11
 10 527 10 527 10 542 c 0,12,13
 10 550 10 550 16.5 553.5 c 128,-1,14
 23 557 23 557 29 557 c 0,15,16
 31 557 31 557 48.5 538.5 c 128,-1,17
 66 520 66 520 94 490 c 128,-1,18
 122 460 122 460 157 420 c 128,-1,19
 192 380 192 380 229 336 c 128,-1,20
 266 292 266 292 301 248 c 128,-1,21
 336 204 336 204 363.5 164.5 c 128,-1,22
 391 125 391 125 407.5 94.5 c 128,-1,23
 424 64 424 64 424 46 c 0,24,25
 424 40 424 40 421 31.5 c 128,-1,26
 418 23 418 23 412.5 15.5 c 128,-1,27
 407 8 407 8 400 3 c 128,-1,28
 393 -2 393 -2 385 0 c 0,29,30
 367 4 367 4 360 13.5 c 128,-1,31
 353 23 353 23 351 36 c 128,-1,32
 349 49 349 49 347 62.5 c 128,-1,33
 345 76 345 76 337 87 c 1,0,1
EndSplineSet
EndChar

StartChar: bracketright
Encoding: 93 93 64
Width: 441
VWidth: 768
Flags: HW
LayerCount: 2
Fore
SplineSet
66 -47 m 0,0,1
 66 -43 66 -43 66.5 -36.5 c 0,2,3
 68 -30 68 -30 68 -28 c 1,4,-1
 87 -20 l 1,5,-1
 346 -20 l 2,6,7
 354 -20 354 -20 355 -13 c 128,-1,8
 356 -6 356 -6 356 -2 c 0,9,10
 356 48 356 48 357 111 c 128,-1,11
 358 174 358 174 357.5 243 c 128,-1,12
 357 312 357 312 354.5 383.5 c 128,-1,13
 352 455 352 455 344.5 522 c 128,-1,14
 337 589 337 589 323.5 647.5 c 128,-1,15
 310 706 310 706 289 748 c 1,16,17
 275 756 275 756 249.5 762 c 128,-1,18
 224 768 224 768 192.5 773 c 128,-1,19
 161 778 161 778 128.5 783 c 128,-1,20
 96 788 96 788 69.5 795 c 128,-1,21
 43 802 43 802 26 810 c 128,-1,22
 9 818 9 818 9 830 c 1,23,24
 13 841 13 841 32.5 845.5 c 128,-1,25
 52 850 52 850 78.5 849.5 c 128,-1,26
 105 849 105 849 135.5 845 c 128,-1,27
 166 841 166 841 193.5 836.5 c 128,-1,28
 221 832 221 832 241.5 829 c 128,-1,29
 262 826 262 826 269 826 c 1,30,31
 304 819 304 819 324.5 801.5 c 128,-1,32
 345 784 345 784 356.5 759 c 128,-1,33
 368 734 368 734 373 704.5 c 0,34,35
 378 676 378 676 385 644 c 1,36,37
 386 624 386 624 387.5 588.5 c 128,-1,38
 389 553 389 553 391.5 506.5 c 128,-1,39
 394 460 394 460 397 406.5 c 128,-1,40
 400 353 400 353 403 298 c 128,-1,41
 406 243 406 243 409 189.5 c 128,-1,42
 412 136 412 136 415 90 c 128,-1,43
 418 44 418 44 420 8 c 128,-1,44
 422 -28 422 -28 423 -47 c 1,45,-1
 423 -65 l 2,46,47
 423 -73 423 -73 417.5 -78.5 c 128,-1,48
 412 -84 412 -84 405 -88 c 128,-1,49
 398 -92 398 -92 390 -94 c 128,-1,50
 382 -96 382 -96 375 -96 c 2,51,-1
 106 -96 l 2,52,53
 80 -96 80 -96 73 -82.5 c 128,-1,54
 66 -69 66 -69 66 -47 c 0,0,1
EndSplineSet
EndChar

StartChar: asciicircum
Encoding: 94 94 65
Width: 384
VWidth: 768
Flags: HW
LayerCount: 2
Fore
SplineSet
192 634 m 1,0,1
 173 610 173 610 151.5 586.5 c 128,-1,2
 130 563 130 563 110.5 550.5 c 128,-1,3
 91 538 91 538 74.5 541 c 128,-1,4
 58 544 58 544 50 572 c 1,5,6
 78 598 78 598 98 614 c 128,-1,7
 118 630 118 630 131.5 646 c 128,-1,8
 145 662 145 662 154.5 683 c 128,-1,9
 164 704 164 704 172 740 c 0,10,11
 174 748 174 748 180.5 748.5 c 128,-1,12
 187 749 187 749 193 749 c 0,13,14
 207 749 207 749 214 742.5 c 128,-1,15
 221 736 221 736 230 721 c 0,16,17
 236 711 236 711 247 698.5 c 128,-1,18
 258 686 258 686 269.5 672.5 c 128,-1,19
 281 659 281 659 291.5 646.5 c 128,-1,20
 302 634 302 634 308 626 c 0,21,22
 315 615 315 615 318.5 608 c 128,-1,23
 322 601 322 601 324 595.5 c 128,-1,24
 326 590 326 590 327 584 c 128,-1,25
 328 578 328 578 328 568 c 0,26,27
 328 554 328 554 325 546 c 128,-1,28
 322 538 322 538 308 538 c 0,29,30
 293 538 293 538 280.5 549 c 128,-1,31
 268 560 268 560 255 575 c 128,-1,32
 242 590 242 590 226.5 606.5 c 128,-1,33
 211 623 211 623 192 634 c 1,0,1
EndSplineSet
EndChar

StartChar: underscore
Encoding: 95 95 66
Width: 672
VWidth: 768
Flags: HW
LayerCount: 2
Fore
SplineSet
28 87 m 0,0,1
 28 103 28 103 40 104.5 c 128,-1,2
 52 106 52 106 67 106 c 0,3,4
 103 106 103 106 139.5 98.5 c 128,-1,5
 176 91 176 91 212 87 c 1,6,-1
 221 87 l 2,7,8
 225 87 225 87 240.5 86 c 128,-1,9
 256 85 256 85 275.5 83.5 c 128,-1,10
 295 82 295 82 317.5 81 c 128,-1,11
 340 80 340 80 359.5 79 c 128,-1,12
 379 78 379 78 393.5 77 c 128,-1,13
 408 76 408 76 413 76 c 0,14,15
 417 76 417 76 431.5 76 c 128,-1,16
 446 76 446 76 464.5 76 c 128,-1,17
 483 76 483 76 504.5 76 c 128,-1,18
 526 76 526 76 544.5 76 c 128,-1,19
 563 76 563 76 577.5 76 c 128,-1,20
 592 76 592 76 596 76 c 0,21,22
 607 76 607 76 617.5 73 c 128,-1,23
 628 70 628 70 636 64.5 c 128,-1,24
 644 59 644 59 649 50 c 128,-1,25
 654 41 654 41 654 29 c 0,26,27
 654 19 654 19 647.5 9.5 c 128,-1,28
 641 0 641 0 631 0 c 0,29,30
 605 0 605 0 565.5 2 c 128,-1,31
 526 4 526 4 479 7 c 128,-1,32
 432 10 432 10 380 14.5 c 128,-1,33
 328 19 328 19 278 25 c 128,-1,34
 228 31 228 31 183 38 c 128,-1,35
 138 45 138 45 103.5 53 c 128,-1,36
 69 61 69 61 48.5 69.5 c 128,-1,37
 28 78 28 78 28 87 c 0,0,1
EndSplineSet
EndChar

StartChar: grave
Encoding: 96 96 67
Width: 177
VWidth: 768
Flags: HW
LayerCount: 2
Fore
SplineSet
88 548 m 1,0,1
 100 538 100 538 106.5 532 c 128,-1,2
 113 526 113 526 118.5 521 c 128,-1,3
 124 516 124 516 130.5 510 c 128,-1,4
 137 504 137 504 149 494 c 0,5,6
 151 492 151 492 155 485 c 128,-1,7
 159 478 159 478 159 476 c 0,8,9
 159 456 159 456 152 451 c 0,10,11
 144 446 144 446 130 446 c 0,12,13
 128 446 128 446 125 447 c 128,-1,14
 122 448 122 448 112 455.5 c 128,-1,15
 102 463 102 463 85 477.5 c 128,-1,16
 68 492 68 492 40 519 c 1,17,18
 32 530 32 530 25.5 543 c 128,-1,19
 19 556 19 556 20.5 563 c 128,-1,20
 22 570 22 570 37 568 c 128,-1,21
 52 566 52 566 88 548 c 1,0,1
EndSplineSet
EndChar

StartChar: a
Encoding: 97 97 68
Width: 518
VWidth: 768
Flags: HW
LayerCount: 2
Fore
SplineSet
19 169 m 1,0,1
 20 186 20 186 29 208 c 128,-1,2
 38 230 38 230 57 251 c 128,-1,3
 76 272 76 272 105 288.5 c 128,-1,4
 134 305 134 305 173.5 312 c 128,-1,5
 213 319 213 319 263.5 313 c 128,-1,6
 314 307 314 307 376 283 c 1,7,8
 376 284 376 284 375.5 293 c 0,9,-1
 375 302 l 0,10,11
 375 328 375 328 360 355 c 128,-1,12
 345 382 345 382 321.5 403.5 c 128,-1,13
 298 425 298 425 271 438.5 c 128,-1,14
 244 452 244 452 219 452 c 0,15,16
 209 452 209 452 201.5 449 c 128,-1,17
 194 446 194 446 187 441.5 c 128,-1,18
 180 437 180 437 173.5 433.5 c 128,-1,19
 167 430 167 430 158 430 c 0,20,21
 156 430 156 430 156 431 c 256,22,23
 155 432 155 432 154 433 c 0,24,25
 152 435 152 435 148.5 438 c 128,-1,26
 145 441 145 441 145 442 c 0,27,28
 145 460 145 460 151.5 473 c 128,-1,29
 158 486 158 486 169.5 494 c 128,-1,30
 181 502 181 502 195.5 506.5 c 128,-1,31
 210 511 210 511 226 511 c 1,32,33
 266 507 266 507 302.5 486.5 c 128,-1,34
 339 466 339 466 369.5 435 c 128,-1,35
 400 404 400 404 423 363.5 c 128,-1,36
 446 323 446 323 461.5 279.5 c 128,-1,37
 477 236 477 236 482.5 191.5 c 0,38,39
 488 146 488 146 483 106 c 0,40,41
 482 106 482 106 477 106.5 c 128,-1,42
 472 107 472 107 466 107.5 c 128,-1,43
 460 108 460 108 455.5 109 c 0,44,-1
 451 110 l 1,45,46
 430 157 430 157 404 186 c 128,-1,47
 378 215 378 215 352.5 231.5 c 128,-1,48
 327 248 327 248 305 254.5 c 128,-1,49
 283 261 283 261 269 264 c 1,50,51
 254 264 254 264 233.5 262 c 128,-1,52
 213 260 213 260 191 255 c 128,-1,53
 169 250 169 250 146.5 241.5 c 128,-1,54
 124 233 124 233 106.5 221 c 128,-1,55
 89 209 89 209 78.5 192.5 c 128,-1,56
 68 176 68 176 68 154 c 0,57,58
 68 130 68 130 87 113.5 c 128,-1,59
 106 97 106 97 133 86.5 c 128,-1,60
 160 76 160 76 188 72 c 128,-1,61
 216 68 216 68 233 68 c 0,62,63
 261 68 261 68 288 71 c 128,-1,64
 315 74 315 74 341.5 78 c 128,-1,65
 368 82 368 82 394 85 c 128,-1,66
 420 88 420 88 446 88 c 0,67,68
 448 88 448 88 453 88 c 128,-1,69
 458 88 458 88 463.5 87.5 c 128,-1,70
 469 87 469 87 473.5 87 c 128,-1,71
 478 87 478 87 480 87 c 0,72,73
 488 84 488 84 489 78 c 128,-1,74
 490 72 490 72 490 66 c 256,75,76
 490 60 490 60 477.5 53 c 128,-1,77
 465 46 465 46 445 39 c 128,-1,78
 425 32 425 32 400.5 24.5 c 128,-1,79
 376 17 376 17 353.5 12 c 128,-1,80
 331 7 331 7 311.5 3.5 c 128,-1,81
 292 0 292 0 284 0 c 0,82,83
 242 0 242 0 195 7 c 128,-1,84
 148 14 148 14 109 32.5 c 128,-1,85
 70 51 70 51 44.5 84 c 128,-1,86
 19 117 19 117 19 169 c 1,0,1
EndSplineSet
EndChar

StartChar: b
Encoding: 98 98 69
Width: 509
VWidth: 768
Flags: HW
LayerCount: 2
Fore
SplineSet
29 480 m 0,0,1
 24 524 24 524 17 555 c 128,-1,2
 10 586 10 586 10.5 606 c 128,-1,3
 11 626 11 626 23 637 c 0,4,5
 36 648 36 648 68 652 c 1,6,7
 70 642 70 642 73 614 c 128,-1,8
 76 586 76 586 79.5 550.5 c 128,-1,9
 83 515 83 515 87.5 476.5 c 128,-1,10
 92 438 92 438 96 406 c 128,-1,11
 100 374 100 374 105 353.5 c 0,12,13
 110 332 110 332 114 334 c 1,14,15
 132 334 132 334 149.5 340 c 128,-1,16
 167 346 167 346 187 346 c 0,17,18
 217 346 217 346 251 340.5 c 128,-1,19
 285 335 285 335 318.5 324 c 128,-1,20
 352 313 352 313 383.5 295.5 c 128,-1,21
 415 278 415 278 438.5 255 c 128,-1,22
 462 232 462 232 476 202 c 128,-1,23
 490 172 490 172 490 136 c 0,24,25
 490 90 490 90 467.5 62.5 c 128,-1,26
 445 35 445 35 410 21 c 128,-1,27
 375 7 375 7 334 3 c 0,28,29
 292 -1 292 -1 256 -1 c 0,30,31
 206 -1 206 -1 173 11.5 c 128,-1,32
 140 24 140 24 119 46 c 128,-1,33
 98 68 98 68 87 97 c 128,-1,34
 76 126 76 126 71 160.5 c 128,-1,35
 66 195 66 195 64 232.5 c 128,-1,36
 62 270 62 270 58 308 c 0,37,38
 57 315 57 315 53 339.5 c 128,-1,39
 49 364 49 364 43.5 393.5 c 128,-1,40
 38 423 38 423 34 448 c 128,-1,41
 30 473 30 473 29 480 c 0,0,1
125 218 m 1,42,43
 115 174 115 174 130.5 142 c 128,-1,44
 146 110 146 110 175.5 89.5 c 128,-1,45
 205 69 205 69 243.5 61 c 128,-1,46
 282 53 282 53 320 58.5 c 128,-1,47
 358 64 358 64 388.5 82.5 c 0,48,49
 420 101 420 101 434 134 c 1,50,51
 434 161 434 161 421.5 183 c 128,-1,52
 409 205 409 205 389 222 c 128,-1,53
 369 239 369 239 343.5 251.5 c 128,-1,54
 318 264 318 264 291.5 272 c 128,-1,55
 265 280 265 280 239 284.5 c 128,-1,56
 213 289 213 289 193 289 c 0,57,58
 160 289 160 289 142.5 270 c 128,-1,59
 125 251 125 251 125 218 c 1,42,43
EndSplineSet
EndChar

StartChar: c
Encoding: 99 99 70
Width: 460
VWidth: 768
Flags: HW
LayerCount: 2
Fore
SplineSet
19 223 m 0,0,1
 19 267 19 267 36 308.5 c 128,-1,2
 53 350 53 350 82.5 382 c 128,-1,3
 112 414 112 414 151 433 c 128,-1,4
 190 452 190 452 234 452 c 0,5,6
 254 452 254 452 276.5 447.5 c 128,-1,7
 299 443 299 443 319 433 c 128,-1,8
 339 423 339 423 352 406.5 c 128,-1,9
 365 390 365 390 365 365 c 0,10,11
 365 361 365 361 362.5 349 c 128,-1,12
 360 337 360 337 356 325 c 128,-1,13
 352 313 352 313 346.5 303.5 c 128,-1,14
 341 294 341 294 337 294 c 1,15,16
 337 341 337 341 311 372.5 c 128,-1,17
 285 404 285 404 235 404 c 0,18,19
 197 404 197 404 167 388 c 128,-1,20
 137 372 137 372 117 346 c 128,-1,21
 97 320 97 320 86.5 287.5 c 128,-1,22
 76 255 76 255 76 221 c 0,23,24
 76 175 76 175 91 145 c 128,-1,25
 106 115 106 115 132 96.5 c 128,-1,26
 158 78 158 78 192 69 c 128,-1,27
 226 60 226 60 264 57 c 128,-1,28
 302 54 302 54 340 55 c 128,-1,29
 378 56 378 56 413 58 c 0,30,31
 416 58 416 58 423 54 c 128,-1,32
 430 50 430 50 433 49 c 1,33,-1
 433 46 l 2,34,35
 433 44 433 44 433.5 44 c 128,-1,36
 434 44 434 44 434 43 c 0,37,38
 434 32 434 32 423 24 c 128,-1,39
 412 16 412 16 396 11 c 128,-1,40
 380 6 380 6 361 4 c 128,-1,41
 342 2 342 2 323.5 0.5 c 128,-1,42
 305 -1 305 -1 291 -1 c 128,-1,43
 277 -1 277 -1 271 -1 c 0,44,45
 213 -1 213 -1 166.5 12 c 128,-1,46
 120 25 120 25 87.5 52.5 c 128,-1,47
 55 80 55 80 37 122.5 c 128,-1,48
 19 165 19 165 19 223 c 0,0,1
EndSplineSet
EndChar

StartChar: d
Encoding: 100 100 71
Width: 537
VWidth: 768
Flags: HW
LayerCount: 2
Fore
SplineSet
19 227 m 0,0,1
 19 264 19 264 28.5 305 c 128,-1,2
 38 346 38 346 58.5 381 c 128,-1,3
 79 416 79 416 110.5 438.5 c 128,-1,4
 142 461 142 461 188 461 c 0,5,6
 212 461 212 461 236 454 c 128,-1,7
 260 447 260 447 285.5 434 c 128,-1,8
 311 421 311 421 338.5 403.5 c 128,-1,9
 366 386 366 386 397 365 c 1,10,11
 401 405 401 405 394 447.5 c 128,-1,12
 387 490 387 490 376 531 c 128,-1,13
 365 572 365 572 353.5 608.5 c 128,-1,14
 342 645 342 645 337 674 c 128,-1,15
 332 703 332 703 336 722 c 128,-1,16
 340 741 340 741 360 746 c 1,17,18
 387 726 387 726 406.5 689.5 c 128,-1,19
 426 653 426 653 440 605 c 128,-1,20
 454 557 454 557 463 502.5 c 128,-1,21
 472 448 472 448 478 392 c 128,-1,22
 484 336 484 336 487.5 283 c 128,-1,23
 491 230 491 230 495 185.5 c 128,-1,24
 499 141 499 141 502.5 109.5 c 128,-1,25
 506 78 506 78 513 65 c 1,26,27
 513 49 513 49 501.5 45 c 128,-1,28
 490 41 490 41 478 41 c 0,29,30
 468 41 468 41 461 48.5 c 128,-1,31
 454 56 454 56 450 66 c 128,-1,32
 446 76 446 76 442.5 88.5 c 128,-1,33
 439 101 439 101 435 111.5 c 128,-1,34
 431 122 431 122 426 129 c 128,-1,35
 421 136 421 136 413 136 c 0,36,37
 411 136 411 136 407.5 135.5 c 128,-1,38
 404 135 404 135 404 134 c 0,39,40
 385 108 385 108 359.5 83.5 c 128,-1,41
 334 59 334 59 303.5 40.5 c 128,-1,42
 273 22 273 22 239.5 11 c 128,-1,43
 206 0 206 0 172 0 c 0,44,45
 134 0 134 0 105.5 25 c 128,-1,46
 77 50 77 50 57.5 85 c 128,-1,47
 38 120 38 120 28.5 159 c 128,-1,48
 19 198 19 198 19 227 c 0,0,1
81 209 m 1,49,50
 91 173 91 173 99 146 c 128,-1,51
 107 119 107 119 118.5 102 c 128,-1,52
 130 85 130 85 146 76.5 c 128,-1,53
 162 68 162 68 188 68 c 0,54,55
 220 68 220 68 256 86.5 c 128,-1,56
 292 105 292 105 323 134 c 128,-1,57
 354 163 354 163 374 197.5 c 128,-1,58
 394 232 394 232 394 264 c 0,59,60
 394 267 394 267 394 276 c 128,-1,61
 394 285 394 285 394 288 c 1,62,63
 341 340 341 340 296.5 362.5 c 128,-1,64
 252 385 252 385 217 385.5 c 128,-1,65
 182 386 182 386 156 370 c 128,-1,66
 130 354 130 354 113 328 c 128,-1,67
 96 302 96 302 88 270 c 128,-1,68
 80 238 80 238 81 209 c 1,49,50
EndSplineSet
EndChar

StartChar: e
Encoding: 101 101 72
Width: 528
VWidth: 768
Flags: HW
LayerCount: 2
Fore
SplineSet
19 268 m 0,0,1
 19 320 19 320 34.5 367.5 c 128,-1,2
 50 415 50 415 79.5 451 c 128,-1,3
 109 487 109 487 151.5 508.5 c 128,-1,4
 194 530 194 530 250 530 c 1,5,6
 283 526 283 526 307.5 512 c 128,-1,7
 332 498 332 498 347.5 477.5 c 128,-1,8
 363 457 363 457 370 430.5 c 0,9,10
 376 404 376 404 376 374 c 1,11,12
 376 338 376 338 355 309 c 128,-1,13
 334 280 334 280 302 260.5 c 128,-1,14
 270 241 270 241 233 230.5 c 128,-1,15
 196 220 196 220 164 220 c 0,16,17
 152 220 152 220 139.5 220 c 128,-1,18
 127 220 127 220 117 224 c 128,-1,19
 107 228 107 228 101 236 c 128,-1,20
 95 244 95 244 95 260 c 0,21,22
 95 265 95 265 96.5 268.5 c 128,-1,23
 98 272 98 272 105 273.5 c 128,-1,24
 112 275 112 275 125.5 274 c 0,25,26
 140 272 140 272 164 268 c 1,27,28
 178 268 178 268 204.5 277.5 c 128,-1,29
 231 287 231 287 258.5 302 c 128,-1,30
 286 317 286 317 306 336.5 c 128,-1,31
 326 356 326 356 326 375 c 256,32,33
 326 395 326 395 319.5 414.5 c 128,-1,34
 313 434 313 434 300 449 c 128,-1,35
 287 464 287 464 269.5 473 c 128,-1,36
 252 482 252 482 230 480 c 0,37,38
 195 477 195 477 166.5 461 c 128,-1,39
 138 445 138 445 118 419.5 c 128,-1,40
 98 394 98 394 87 363 c 128,-1,41
 76 332 76 332 76 298 c 0,42,43
 76 272 76 272 77 246 c 128,-1,44
 78 220 78 220 84.5 195 c 128,-1,45
 91 170 91 170 105.5 147 c 128,-1,46
 120 124 120 124 147.5 106.5 c 128,-1,47
 175 89 175 89 217 77.5 c 128,-1,48
 259 66 259 66 321 63 c 1,49,-1
 500 75 l 1,50,51
 484 53 484 53 459.5 39 c 128,-1,52
 435 25 435 25 407.5 16.5 c 128,-1,53
 380 8 380 8 353 4 c 128,-1,54
 326 0 326 0 302 0 c 0,55,56
 244 0 244 0 193 19 c 128,-1,57
 142 38 142 38 103 72.5 c 128,-1,58
 64 107 64 107 41.5 156.5 c 128,-1,59
 19 206 19 206 19 268 c 0,0,1
EndSplineSet
EndChar

StartChar: f
Encoding: 102 102 73
Width: 386
VWidth: 768
Flags: HW
LayerCount: 2
Fore
SplineSet
338 318 m 1,0,1
 359 318 359 318 356 298 c 1,2,3
 365 287 365 287 355.5 277.5 c 128,-1,4
 346 268 346 268 324 263.5 c 128,-1,5
 302 259 302 259 269 259.5 c 128,-1,6
 236 260 236 260 197 268 c 1,7,8
 197 230 197 230 214.5 197 c 128,-1,9
 232 164 232 164 253 134 c 128,-1,10
 274 104 274 104 292 76 c 128,-1,11
 310 48 310 48 310 20 c 0,12,13
 310 7 310 7 302.5 3 c 0,14,15
 296 -1 296 -1 284 -1 c 0,16,17
 274 -1 274 -1 262.5 6.5 c 128,-1,18
 251 14 251 14 241.5 25 c 128,-1,19
 232 36 232 36 224.5 47.5 c 0,20,21
 217 60 217 60 213 68 c 128,-1,22
 209 76 209 76 201.5 91 c 128,-1,23
 194 106 194 106 184 126 c 128,-1,24
 174 146 174 146 164 167.5 c 128,-1,25
 154 189 154 189 144.5 209 c 128,-1,26
 135 229 135 229 127.5 245 c 0,27,28
 120 260 120 260 117 268 c 1,29,-1
 106 279 l 1,30,31
 101 277 101 277 87.5 274.5 c 128,-1,32
 74 272 74 272 59 269 c 128,-1,33
 44 266 44 266 30 263 c 128,-1,34
 16 260 16 260 10 260 c 1,35,-1
 5 260 l 2,36,37
 -3 260 -3 260 -6 265.5 c 128,-1,38
 -9 271 -9 271 -9 279 c 0,39,40
 -9 296 -9 296 3 305 c 128,-1,41
 15 314 15 314 32 318 c 128,-1,42
 49 322 49 322 67.5 323.5 c 128,-1,43
 86 325 86 325 98 326 c 1,44,45
 96 356 96 356 95 397 c 128,-1,46
 94 438 94 438 99 482 c 128,-1,47
 104 526 104 526 115.5 568.5 c 128,-1,48
 127 611 127 611 148.5 645 c 128,-1,49
 170 679 170 679 203 700 c 128,-1,50
 236 721 236 721 284 721 c 0,51,52
 311 721 311 721 343 707.5 c 128,-1,53
 375 694 375 694 402.5 672 c 128,-1,54
 430 650 430 650 448 622.5 c 128,-1,55
 466 595 466 595 466 567 c 1,56,-1
 443 567 l 2,57,58
 423 567 423 567 407.5 582 c 128,-1,59
 392 597 392 597 375 615.5 c 128,-1,60
 358 634 358 634 339 649 c 128,-1,61
 320 664 320 664 296 664 c 0,62,63
 262 664 262 664 234 649 c 128,-1,64
 206 634 206 634 186 609 c 128,-1,65
 166 584 166 584 156 553 c 128,-1,66
 146 522 146 522 146 490 c 2,67,-1
 146 480 l 1,68,-1
 164 337 l 1,69,70
 166 335 166 335 175 333.5 c 128,-1,71
 184 332 184 332 203.5 329.5 c 128,-1,72
 223 327 223 327 255.5 324 c 128,-1,73
 288 321 288 321 338 318 c 1,0,1
EndSplineSet
EndChar

StartChar: g
Encoding: 103 103 74
Width: 375
VWidth: 768
Flags: HW
LayerCount: 2
Fore
SplineSet
-134 -278 m 1,0,1
 -138 -264 -138 -264 -133.5 -253 c 128,-1,2
 -129 -242 -129 -242 -121 -235 c 128,-1,3
 -113 -228 -113 -228 -103.5 -226 c 128,-1,4
 -94 -224 -94 -224 -87.5 -228.5 c 128,-1,5
 -81 -233 -81 -233 -79.5 -245 c 128,-1,6
 -78 -257 -78 -257 -86 -278 c 1,7,8
 -86 -300 -86 -300 -67.5 -321 c 128,-1,9
 -49 -342 -49 -342 -19.5 -359 c 128,-1,10
 10 -376 10 -376 45 -390 c 128,-1,11
 80 -404 80 -404 113 -414 c 128,-1,12
 146 -424 146 -424 171.5 -429 c 0,13,14
 196 -434 196 -434 208 -434 c 0,15,16
 233 -434 233 -434 250.5 -421 c 128,-1,17
 268 -408 268 -408 280.5 -387 c 128,-1,18
 293 -366 293 -366 300.5 -339.5 c 128,-1,19
 308 -313 308 -313 312 -286.5 c 128,-1,20
 316 -260 316 -260 317 -235 c 128,-1,21
 318 -210 318 -210 318 -193 c 0,22,23
 318 -185 318 -185 316.5 -163.5 c 128,-1,24
 315 -142 315 -142 312 -114 c 128,-1,25
 309 -86 309 -86 305 -56 c 128,-1,26
 301 -26 301 -26 296 0 c 128,-1,27
 291 26 291 26 285.5 42 c 128,-1,28
 280 58 280 58 274 58 c 0,29,30
 264 58 264 58 250.5 52 c 128,-1,31
 237 46 237 46 222.5 39 c 128,-1,32
 208 32 208 32 193 26 c 128,-1,33
 178 20 178 20 164 20 c 0,34,35
 136 20 136 20 109 32 c 128,-1,36
 82 44 82 44 62.5 63 c 128,-1,37
 43 82 43 82 31 108 c 128,-1,38
 19 134 19 134 19 162 c 0,39,40
 19 206 19 206 36.5 252 c 128,-1,41
 54 298 54 298 84.5 336 c 128,-1,42
 115 374 115 374 156.5 398 c 128,-1,43
 198 422 198 422 245 422 c 1,44,45
 281 412 281 412 303.5 376.5 c 128,-1,46
 326 341 326 341 338.5 289 c 128,-1,47
 351 237 351 237 356.5 173.5 c 128,-1,48
 362 110 362 110 364 44 c 128,-1,49
 366 -22 366 -22 367.5 -85.5 c 128,-1,50
 369 -149 369 -149 375 -201 c 1,51,52
 375 -224 375 -224 372.5 -255.5 c 128,-1,53
 370 -287 370 -287 364 -320 c 128,-1,54
 358 -353 358 -353 347.5 -385.5 c 128,-1,55
 337 -418 337 -418 320 -443.5 c 128,-1,56
 303 -469 303 -469 278.5 -484.5 c 128,-1,57
 254 -500 254 -500 222 -500 c 0,58,59
 196 -500 196 -500 159.5 -494 c 128,-1,60
 123 -488 123 -488 83.5 -475 c 128,-1,61
 44 -462 44 -462 5 -443 c 128,-1,62
 -34 -424 -34 -424 -65 -399.5 c 128,-1,63
 -96 -375 -96 -375 -115 -344.5 c 128,-1,64
 -134 -314 -134 -314 -134 -278 c 1,0,1
76 179 m 0,65,66
 76 161 76 161 81.5 144.5 c 128,-1,67
 87 128 87 128 97.5 115 c 128,-1,68
 108 102 108 102 123.5 94.5 c 128,-1,69
 139 87 139 87 158 87 c 0,70,71
 209 87 209 87 235.5 107 c 128,-1,72
 262 127 262 127 272 157 c 128,-1,73
 282 187 282 187 281.5 221 c 0,74,75
 281 256 281 256 279 284 c 1,76,77
 279 298 279 298 277 312 c 128,-1,78
 275 326 275 326 269 338 c 128,-1,79
 263 350 263 350 252.5 357 c 128,-1,80
 242 364 242 364 226 364 c 0,81,82
 193 364 193 364 165 345.5 c 128,-1,83
 137 327 137 327 117.5 299.5 c 128,-1,84
 98 272 98 272 87 239.5 c 128,-1,85
 76 207 76 207 76 179 c 0,65,66
EndSplineSet
EndChar

StartChar: h
Encoding: 104 104 75
Width: 438
VWidth: 768
Flags: HW
LayerCount: 2
Fore
SplineSet
328 18 m 1,0,1
 330 44 330 44 332 72 c 128,-1,2
 334 100 334 100 335.5 128 c 128,-1,3
 337 156 337 156 337.5 183 c 128,-1,4
 338 210 338 210 338 232 c 0,5,6
 338 264 338 264 329 293 c 128,-1,7
 320 322 320 322 303 343.5 c 128,-1,8
 286 365 286 365 260.5 377.5 c 128,-1,9
 235 390 235 390 200 390 c 0,10,11
 186 390 186 390 176 388 c 128,-1,12
 166 386 166 386 156 381.5 c 128,-1,13
 146 377 146 377 134.5 369.5 c 0,14,15
 122 362 122 362 106 351 c 1,16,17
 106 349 106 349 105.5 343.5 c 128,-1,18
 105 338 105 338 105 337 c 0,19,20
 105 315 105 315 109.5 278.5 c 128,-1,21
 114 242 114 242 119 202.5 c 128,-1,22
 124 163 124 163 129 126 c 128,-1,23
 134 89 134 89 134 66 c 0,24,25
 134 64 134 64 134 58 c 128,-1,26
 134 52 134 52 133.5 45 c 128,-1,27
 133 38 133 38 133 32 c 128,-1,28
 133 26 133 26 133 23 c 1,29,30
 127 9 127 9 118.5 5.5 c 128,-1,31
 110 2 110 2 98 2 c 1,32,33
 86 0 86 0 80 19 c 128,-1,34
 74 38 74 38 71 74 c 128,-1,35
 68 110 68 110 65.5 161 c 128,-1,36
 63 212 63 212 58.5 273 c 128,-1,37
 54 334 54 334 45.5 402.5 c 128,-1,38
 37 471 37 471 21 543 c 1,39,40
 13 571 13 571 8.5 590.5 c 128,-1,41
 4 610 4 610 0 625.5 c 128,-1,42
 -4 641 -4 641 -7 657.5 c 128,-1,43
 -10 674 -10 674 -14 697 c 1,44,-1
 -14 701 l 2,45,46
 -14 705 -14 705 -9 708.5 c 128,-1,47
 -4 712 -4 712 2.5 715 c 128,-1,48
 9 718 9 718 15.5 719.5 c 128,-1,49
 22 721 22 721 26 721 c 1,50,51
 45 671 45 671 56.5 636.5 c 128,-1,52
 68 602 68 602 75 577 c 128,-1,53
 82 552 82 552 85 535 c 128,-1,54
 88 518 88 518 90 502 c 128,-1,55
 92 486 92 486 93 469 c 128,-1,56
 94 452 94 452 97 428 c 1,57,58
 149 460 149 460 191.5 463 c 128,-1,59
 234 466 234 466 267 450.5 c 128,-1,60
 300 435 300 435 324.5 403 c 128,-1,61
 349 371 349 371 365 331 c 128,-1,62
 381 291 381 291 389.5 246 c 128,-1,63
 398 201 398 201 400.5 159 c 128,-1,64
 403 117 403 117 398.5 81.5 c 128,-1,65
 394 46 394 46 385 24.5 c 128,-1,66
 376 3 376 3 361 -0.5 c 128,-1,67
 346 -4 346 -4 328 18 c 1,0,1
EndSplineSet
EndChar

StartChar: i
Encoding: 105 105 76
Width: 179
VWidth: 768
Flags: HW
LayerCount: 2
Fore
SplineSet
63 346 m 0,0,1
 63 350 63 350 63 361 c 128,-1,2
 63 372 63 372 63.5 384 c 128,-1,3
 64 396 64 396 64 407 c 128,-1,4
 64 418 64 418 64 422 c 0,5,6
 60 453 60 453 82 453 c 0,7,8
 92 453 92 453 99 448 c 128,-1,9
 106 443 106 443 112 433 c 1,10,11
 109 381 109 381 116.5 332.5 c 128,-1,12
 124 284 124 284 133.5 236.5 c 128,-1,13
 143 189 143 189 151.5 141 c 128,-1,14
 160 93 160 93 160 41 c 0,15,16
 160 27 160 27 151.5 13 c 128,-1,17
 143 -1 143 -1 126 -1 c 0,18,19
 113 -1 113 -1 103.5 21.5 c 128,-1,20
 94 44 94 44 87 78.5 c 128,-1,21
 80 113 80 113 75 155 c 128,-1,22
 70 197 70 197 67.5 235.5 c 128,-1,23
 65 274 65 274 64 304.5 c 128,-1,24
 63 335 63 335 63 346 c 0,0,1
12 597 m 0,25,26
 12 609 12 609 19 612.5 c 128,-1,27
 26 616 26 616 37 616 c 1,28,29
 44 617 44 617 55.5 607.5 c 128,-1,30
 67 598 67 598 74.5 586 c 128,-1,31
 82 574 82 574 83 563.5 c 0,32,33
 84 552 84 552 68 550 c 1,34,-1
 63 550 l 2,35,36
 48 550 48 550 38 552 c 128,-1,37
 28 554 28 554 22.5 558.5 c 128,-1,38
 17 563 17 563 14.5 572 c 128,-1,39
 12 581 12 581 12 597 c 0,25,26
EndSplineSet
EndChar

StartChar: j
Encoding: 106 106 77
Width: 205
VWidth: 768
Flags: HW
LayerCount: 2
Fore
SplineSet
146 -459 m 1,0,1
 98 -446 98 -446 54 -416 c 128,-1,2
 10 -386 10 -386 -25 -345 c 128,-1,3
 -60 -304 -60 -304 -83 -254.5 c 128,-1,4
 -106 -205 -106 -205 -112 -153 c 1,5,6
 -112 -146 -112 -146 -112.5 -140 c 128,-1,7
 -113 -134 -113 -134 -112 -128 c 128,-1,8
 -111 -122 -111 -122 -107 -117 c 128,-1,9
 -103 -112 -103 -112 -94 -110 c 1,10,11
 -81 -117 -81 -117 -68.5 -138.5 c 128,-1,12
 -56 -160 -56 -160 -42 -190 c 128,-1,13
 -28 -220 -28 -220 -12 -253 c 128,-1,14
 4 -286 4 -286 25 -313 c 128,-1,15
 46 -340 46 -340 73 -358 c 128,-1,16
 100 -376 100 -376 134 -376 c 0,17,18
 145 -376 145 -376 152.5 -370 c 128,-1,19
 160 -364 160 -364 164.5 -355.5 c 128,-1,20
 169 -347 169 -347 170.5 -337 c 128,-1,21
 172 -327 172 -327 172 -319 c 0,22,23
 176 -231 176 -231 165 -143.5 c 128,-1,24
 154 -56 154 -56 138 31 c 128,-1,25
 122 118 122 118 105 204.5 c 0,26,27
 88 290 88 290 81 376 c 1,28,29
 83 383 83 383 83 388 c 128,-1,30
 83 393 83 393 85.5 396.5 c 128,-1,31
 88 400 88 400 93 402 c 128,-1,32
 98 404 98 404 110 404 c 1,33,34
 120 397 120 397 131.5 368 c 128,-1,35
 143 339 143 339 155 294 c 128,-1,36
 167 249 167 249 179 191.5 c 128,-1,37
 191 134 191 134 201 71 c 128,-1,38
 211 8 211 8 218 -57 c 128,-1,39
 225 -122 225 -122 227.5 -183 c 128,-1,40
 230 -244 230 -244 227.5 -297 c 128,-1,41
 225 -350 225 -350 215.5 -387.5 c 128,-1,42
 206 -425 206 -425 189 -444.5 c 128,-1,43
 172 -464 172 -464 146 -459 c 1,0,1
29 578 m 0,44,45
 29 582 29 582 36.5 589 c 128,-1,46
 44 596 44 596 49 597 c 0,47,48
 63 600 63 600 72.5 593.5 c 128,-1,49
 82 587 82 587 88 576.5 c 128,-1,50
 94 566 94 566 97 553 c 128,-1,51
 100 540 100 540 100 530 c 1,52,53
 89 520 89 520 76.5 519 c 128,-1,54
 64 518 64 518 53.5 525 c 128,-1,55
 43 532 43 532 36 546 c 128,-1,56
 29 560 29 560 29 578 c 0,44,45
EndSplineSet
EndChar

StartChar: k
Encoding: 107 107 78
Width: 413
VWidth: 768
Flags: HW
LayerCount: 2
Fore
SplineSet
50 29 m 0,0,1
 50 31 50 31 51 39.5 c 128,-1,2
 52 48 52 48 54 58 c 128,-1,3
 56 68 56 68 57 76.5 c 128,-1,4
 58 85 58 85 58 87 c 128,-1,5
 58 89 58 89 58 97.5 c 128,-1,6
 58 106 58 106 58.5 117 c 128,-1,7
 59 128 59 128 59 140 c 128,-1,8
 59 152 59 152 59 158 c 128,-1,9
 59 164 59 164 59 174 c 128,-1,10
 59 184 59 184 58.5 194.5 c 128,-1,11
 58 205 58 205 58 212.5 c 128,-1,12
 58 220 58 220 58 221 c 0,13,14
 55 267 55 267 46.5 318.5 c 128,-1,15
 38 370 38 370 28.5 421 c 128,-1,16
 19 472 19 472 10.5 521 c 128,-1,17
 2 570 2 570 -2 611 c 1,18,19
 7 635 7 635 17.5 627.5 c 128,-1,20
 28 620 28 620 39 592 c 128,-1,21
 50 564 50 564 61 522.5 c 128,-1,22
 72 481 72 481 80.5 438 c 128,-1,23
 89 395 89 395 96 357 c 0,24,25
 102 319 102 319 106 298 c 1,26,27
 108 296 108 296 113.5 296 c 128,-1,28
 119 296 119 296 121 296 c 0,29,30
 141 296 141 296 156 308 c 128,-1,31
 171 320 171 320 184.5 338.5 c 128,-1,32
 198 357 198 357 211 378.5 c 128,-1,33
 224 400 224 400 238 418 c 128,-1,34
 252 436 252 436 269 448.5 c 128,-1,35
 286 461 286 461 308 461 c 0,36,37
 322 461 322 461 325 452.5 c 128,-1,38
 328 444 328 444 327 433 c 1,39,40
 313 422 313 422 295 404 c 128,-1,41
 277 386 277 386 256.5 365 c 128,-1,42
 236 344 236 344 215.5 321 c 128,-1,43
 195 298 195 298 179.5 276.5 c 128,-1,44
 164 255 164 255 153.5 235 c 128,-1,45
 143 215 143 215 143 200 c 0,46,47
 143 178 143 178 157.5 160 c 128,-1,48
 172 142 172 142 194.5 127 c 128,-1,49
 217 112 217 112 245 101.5 c 128,-1,50
 273 91 273 91 301 83.5 c 128,-1,51
 329 76 329 76 354 72 c 0,52,53
 378 68 378 68 394 68 c 1,54,55
 403 66 403 66 404 58 c 128,-1,56
 405 50 405 50 405 43 c 0,57,58
 405 28 405 28 395.5 21 c 128,-1,59
 386 14 386 14 372.5 11 c 128,-1,60
 359 8 359 8 344.5 8 c 128,-1,61
 330 8 330 8 320 8 c 0,62,63
 298 8 298 8 269.5 22 c 128,-1,64
 241 36 241 36 214.5 52.5 c 128,-1,65
 188 69 188 69 167.5 83 c 0,66,67
 148 97 148 97 140 97 c 0,68,69
 124 97 124 97 118.5 81.5 c 128,-1,70
 113 66 113 66 111 48 c 128,-1,71
 109 30 109 30 104.5 14.5 c 128,-1,72
 100 -1 100 -1 85 -1 c 0,73,74
 72 -1 72 -1 61 6 c 128,-1,75
 50 13 50 13 50 29 c 0,0,1
EndSplineSet
EndChar

StartChar: l
Encoding: 108 108 79
Width: 123
VWidth: 768
Flags: HW
LayerCount: 2
Fore
SplineSet
41 8 m 1,0,1
 31 79 31 79 28.5 149.5 c 128,-1,2
 26 220 26 220 26 291 c 128,-1,3
 26 362 26 362 28 432 c 128,-1,4
 30 502 30 502 29 572 c 0,5,6
 29 580 29 580 35 583 c 128,-1,7
 41 586 41 586 49 586 c 0,8,9
 58 586 58 586 65 579.5 c 128,-1,10
 72 573 72 573 77 563.5 c 128,-1,11
 82 554 82 554 84.5 544.5 c 128,-1,12
 87 535 87 535 87 529 c 0,13,14
 93 386 93 386 95 290.5 c 128,-1,15
 97 195 97 195 95 136.5 c 128,-1,16
 93 78 93 78 88.5 50 c 128,-1,17
 84 22 84 22 77 12 c 128,-1,18
 70 2 70 2 60.5 4 c 128,-1,19
 51 6 51 6 41 8 c 1,0,1
EndSplineSet
EndChar

StartChar: m
Encoding: 109 109 80
Width: 768
VWidth: 768
Flags: HW
LayerCount: 2
Fore
SplineSet
671 35 m 0,0,1
 671 38 671 38 671.5 43 c 128,-1,2
 672 48 672 48 672 53 c 128,-1,3
 672 58 672 58 672.5 62.5 c 0,4,-1
 673 68 l 0,5,6
 673 71 673 71 674.5 85 c 128,-1,7
 676 99 676 99 678 115 c 128,-1,8
 680 131 680 131 681 145.5 c 128,-1,9
 682 160 682 160 682 164 c 0,10,11
 680 185 680 185 673 219 c 128,-1,12
 666 253 666 253 651.5 286 c 128,-1,13
 637 319 637 319 615 343 c 128,-1,14
 593 367 593 367 563 367 c 0,15,16
 536 367 536 367 506.5 353.5 c 128,-1,17
 477 340 477 340 451.5 318.5 c 128,-1,18
 426 297 426 297 409.5 269 c 0,19,20
 393 242 393 242 393 212 c 0,21,22
 393 197 393 197 398 182.5 c 128,-1,23
 403 168 403 168 408.5 154 c 128,-1,24
 414 140 414 140 419 125 c 128,-1,25
 424 110 424 110 424 94 c 0,26,27
 424 82 424 82 419.5 70 c 128,-1,28
 415 58 415 58 398 58 c 0,29,30
 380 58 380 58 368.5 79 c 128,-1,31
 357 100 357 100 347.5 132.5 c 128,-1,32
 338 165 338 165 327.5 202 c 128,-1,33
 317 239 317 239 301.5 271.5 c 128,-1,34
 286 304 286 304 263.5 325 c 128,-1,35
 241 346 241 346 206 346 c 0,36,37
 179 346 179 346 158 334.5 c 128,-1,38
 137 323 137 323 123.5 304 c 128,-1,39
 110 285 110 285 102.5 261 c 128,-1,40
 95 237 95 237 95 212 c 0,41,42
 95 172 95 172 100.5 133.5 c 128,-1,43
 106 95 106 95 106 56 c 0,44,45
 106 42 106 42 103 30.5 c 128,-1,46
 100 19 100 19 83 19 c 0,47,48
 72 19 72 19 64.5 24.5 c 128,-1,49
 57 30 57 30 52 38.5 c 128,-1,50
 47 47 47 47 44 57.5 c 128,-1,51
 41 68 41 68 39 76 c 1,52,53
 41 117 41 117 39.5 152 c 128,-1,54
 38 187 38 187 35.5 218.5 c 128,-1,55
 33 250 33 250 30.5 282 c 128,-1,56
 28 314 28 314 28 350 c 0,57,58
 28 352 28 352 28 357 c 128,-1,59
 28 362 28 362 28.5 367.5 c 128,-1,60
 29 373 29 373 29 377.5 c 128,-1,61
 29 382 29 382 29 384 c 0,62,63
 30 386 30 386 34 389 c 128,-1,64
 38 392 38 392 39 394 c 1,65,-1
 44 394 l 2,66,67
 61 394 61 394 69 382.5 c 0,68,69
 77 372 77 372 77 356 c 1,70,71
 93 373 93 373 105.5 382.5 c 128,-1,72
 118 392 118 392 129.5 397 c 128,-1,73
 141 402 141 402 153.5 403 c 128,-1,74
 166 404 166 404 184 404 c 0,75,76
 213 404 213 404 236.5 398 c 128,-1,77
 260 392 260 392 279 380.5 c 128,-1,78
 298 369 298 369 314.5 350.5 c 0,79,80
 330 332 330 332 346 308 c 0,81,82
 347 308 347 308 348.5 307.5 c 128,-1,83
 350 307 350 307 351 307 c 256,84,85
 352 307 352 307 361 316.5 c 128,-1,86
 370 326 370 326 385 339.5 c 128,-1,87
 400 353 400 353 420 369.5 c 128,-1,88
 440 386 440 386 462 400 c 128,-1,89
 484 414 484 414 507 423.5 c 128,-1,90
 530 433 530 433 552 433 c 0,91,92
 586 433 586 433 612.5 419 c 128,-1,93
 639 405 639 405 660 381.5 c 128,-1,94
 681 358 681 358 696 328.5 c 128,-1,95
 711 299 711 299 721 267.5 c 128,-1,96
 731 236 731 236 735.5 205 c 128,-1,97
 740 174 740 174 740 148 c 0,98,99
 740 138 740 138 739.5 113.5 c 128,-1,100
 739 89 739 89 734.5 63.5 c 128,-1,101
 730 38 730 38 720 18.5 c 128,-1,102
 710 -1 710 -1 692 -1 c 0,103,104
 683 -1 683 -1 679 2.5 c 128,-1,105
 675 6 675 6 673 11 c 128,-1,106
 671 16 671 16 671 22 c 128,-1,107
 671 28 671 28 671 35 c 0,0,1
EndSplineSet
EndChar

StartChar: n
Encoding: 110 110 81
Width: 471
VWidth: 768
Flags: HW
LayerCount: 2
Fore
SplineSet
29 390 m 0,0,1
 29 399 29 399 35.5 401.5 c 128,-1,2
 42 404 42 404 50 404 c 0,3,4
 56 404 56 404 58.5 401 c 128,-1,5
 61 398 61 398 62 394 c 128,-1,6
 63 390 63 390 65 386.5 c 128,-1,7
 67 383 67 383 72 383 c 0,8,9
 86 383 86 383 106 394 c 128,-1,10
 126 405 126 405 149.5 418 c 128,-1,11
 173 431 173 431 199.5 442 c 128,-1,12
 226 453 226 453 252 453 c 0,13,14
 286 453 286 453 314.5 435.5 c 128,-1,15
 343 418 343 418 365.5 389 c 128,-1,16
 388 360 388 360 404 324 c 128,-1,17
 420 288 420 288 431 250.5 c 128,-1,18
 442 213 442 213 447 177.5 c 128,-1,19
 452 142 452 142 452 116 c 0,20,21
 452 107 452 107 450.5 89 c 128,-1,22
 449 71 449 71 445.5 53 c 128,-1,23
 442 35 442 35 434 21.5 c 128,-1,24
 426 8 426 8 414 8 c 0,25,26
 412 8 412 8 407 8.5 c 128,-1,27
 402 9 402 9 397 10.5 c 128,-1,28
 392 12 392 12 388.5 14 c 128,-1,29
 385 16 385 16 385 20 c 0,30,31
 394 97 394 97 385 164.5 c 128,-1,32
 376 232 376 232 356 283 c 128,-1,33
 336 334 336 334 307 364 c 128,-1,34
 278 394 278 394 245 394 c 0,35,36
 214 394 214 394 187 384 c 128,-1,37
 160 374 160 374 140 355 c 128,-1,38
 120 336 120 336 108.5 309 c 128,-1,39
 97 282 97 282 97 250 c 0,40,41
 97 218 97 218 103 186.5 c 128,-1,42
 109 155 109 155 116.5 123.5 c 128,-1,43
 124 92 124 92 130 60 c 128,-1,44
 136 28 136 28 136 -4 c 1,45,46
 108 -4 108 -4 89 19 c 128,-1,47
 70 42 70 42 58.5 78 c 128,-1,48
 47 114 47 114 40.5 159 c 128,-1,49
 34 204 34 204 31.5 247.5 c 128,-1,50
 29 291 29 291 29 329.5 c 128,-1,51
 29 368 29 368 29 390 c 0,0,1
EndSplineSet
EndChar

StartChar: o
Encoding: 111 111 82
Width: 499
VWidth: 768
Flags: HW
LayerCount: 2
Fore
SplineSet
19 204 m 0,0,1
 19 259 19 259 43 300 c 128,-1,2
 67 341 67 341 106 369 c 128,-1,3
 145 397 145 397 193.5 410.5 c 128,-1,4
 242 424 242 424 291 424 c 0,5,6
 317 424 317 424 339.5 414.5 c 128,-1,7
 362 405 362 405 382.5 388.5 c 128,-1,8
 403 372 403 372 419 350.5 c 128,-1,9
 435 329 435 329 446.5 306 c 128,-1,10
 458 283 458 283 464 259.5 c 128,-1,11
 470 236 470 236 470 214 c 0,12,13
 470 163 470 163 450 123 c 128,-1,14
 430 83 430 83 396 55.5 c 128,-1,15
 362 28 362 28 319 13.5 c 128,-1,16
 276 -1 276 -1 231 -1 c 0,17,18
 185 -1 185 -1 146.5 13.5 c 128,-1,19
 108 28 108 28 79.5 54 c 128,-1,20
 51 80 51 80 35 118.5 c 128,-1,21
 19 157 19 157 19 204 c 0,0,1
68 212 m 0,22,23
 68 181 68 181 79.5 152.5 c 128,-1,24
 91 124 91 124 111.5 103 c 128,-1,25
 132 82 132 82 160 69.5 c 128,-1,26
 188 57 188 57 220 57 c 1,27,28
 237 55 237 55 261.5 62.5 c 128,-1,29
 286 70 286 70 310.5 84.5 c 128,-1,30
 335 99 335 99 357.5 119.5 c 128,-1,31
 380 140 380 140 395 164.5 c 128,-1,32
 410 189 410 189 413.5 215.5 c 128,-1,33
 417 242 417 242 404.5 268.5 c 128,-1,34
 392 295 392 295 359 319.5 c 128,-1,35
 326 344 326 344 268 365 c 1,36,37
 235 365 235 365 199.5 355.5 c 128,-1,38
 164 346 164 346 135 327 c 128,-1,39
 106 308 106 308 87 279 c 128,-1,40
 68 250 68 250 68 212 c 0,22,23
EndSplineSet
EndChar

StartChar: p
Encoding: 112 112 83
Width: 533
VWidth: 768
Flags: HW
LayerCount: 2
Fore
SplineSet
19 131 m 0,0,1
 19 194 19 194 41 237 c 128,-1,2
 63 280 63 280 99.5 306 c 128,-1,3
 136 332 136 332 184.5 344 c 128,-1,4
 233 356 233 356 286 356 c 0,5,6
 329 356 329 356 369.5 342 c 128,-1,7
 410 328 410 328 442 303 c 128,-1,8
 474 278 474 278 493 242 c 128,-1,9
 512 206 512 206 512 160 c 0,10,11
 512 120 512 120 497 94.5 c 128,-1,12
 482 69 482 69 456 54.5 c 128,-1,13
 430 40 430 40 398.5 34 c 128,-1,14
 367 28 367 28 334 28 c 0,15,16
 302 28 302 28 268.5 31 c 128,-1,17
 235 34 235 34 207 45 c 128,-1,18
 179 56 179 56 161 78 c 128,-1,19
 143 100 143 100 143 140 c 1,20,21
 164 140 164 140 183.5 131.5 c 128,-1,22
 203 123 203 123 223 113.5 c 128,-1,23
 243 104 243 104 263 95.5 c 0,24,25
 282 87 282 87 304 87 c 0,26,27
 320 87 320 87 346.5 90 c 128,-1,28
 373 93 373 93 396.5 101.5 c 128,-1,29
 420 110 420 110 437 125 c 128,-1,30
 454 140 454 140 454 163 c 0,31,32
 454 197 454 197 439 222 c 128,-1,33
 424 247 424 247 400 263.5 c 128,-1,34
 376 280 376 280 346 289 c 128,-1,35
 316 298 316 298 286 298 c 0,36,37
 282 298 282 298 266.5 296 c 128,-1,38
 251 294 251 294 231 289.5 c 128,-1,39
 211 285 211 285 189 278.5 c 128,-1,40
 167 272 167 272 148.5 262.5 c 128,-1,41
 130 253 130 253 118 241 c 128,-1,42
 106 229 106 229 106 214 c 2,43,-1
 106 202 l 1,44,45
 107 191 107 191 108.5 172.5 c 128,-1,46
 110 154 110 154 111 135.5 c 128,-1,47
 112 117 112 117 114 103 c 128,-1,48
 116 89 116 89 116 87 c 0,49,50
 118 71 118 71 123 37.5 c 128,-1,51
 128 4 128 4 134 -37.5 c 128,-1,52
 140 -79 140 -79 147.5 -125 c 128,-1,53
 155 -171 155 -171 162 -212.5 c 128,-1,54
 169 -254 169 -254 174.5 -287 c 128,-1,55
 180 -320 180 -320 183 -335 c 0,56,57
 183 -337 183 -337 183.5 -338.5 c 128,-1,58
 184 -340 184 -340 184 -341 c 128,-1,59
 184 -342 184 -342 183.5 -342.5 c 0,60,-1
 183 -344 l 2,61,-1
 183 -346 l 1,62,63
 181 -349 181 -349 173.5 -356 c 0,64,65
 166 -362 166 -362 164 -364 c 1,66,-1
 158 -364 l 2,67,68
 148 -364 148 -364 137 -345.5 c 128,-1,69
 126 -327 126 -327 114.5 -295.5 c 128,-1,70
 103 -264 103 -264 91.5 -223 c 128,-1,71
 80 -182 80 -182 69 -138 c 128,-1,72
 58 -94 58 -94 49 -51 c 128,-1,73
 40 -8 40 -8 33 29 c 128,-1,74
 26 66 26 66 22.5 93 c 128,-1,75
 19 120 19 120 19 131 c 0,0,1
EndSplineSet
EndChar

StartChar: q
Encoding: 113 113 84
Width: 422
VWidth: 768
Flags: HW
LayerCount: 2
Fore
SplineSet
260 29 m 1,0,1
 258 28 258 28 249 27 c 128,-1,2
 240 26 240 26 230 24 c 128,-1,3
 220 22 220 22 212 21 c 128,-1,4
 204 20 204 20 202 20 c 0,5,6
 153 20 153 20 118.5 38.5 c 128,-1,7
 84 57 84 57 62 88 c 128,-1,8
 40 119 40 119 29.5 159 c 128,-1,9
 19 199 19 199 19 241 c 0,10,11
 19 291 19 291 34.5 339.5 c 128,-1,12
 50 388 50 388 80 426 c 128,-1,13
 110 464 110 464 152.5 487 c 128,-1,14
 195 510 195 510 248 510 c 0,15,16
 268 510 268 510 292 503 c 128,-1,17
 316 496 316 496 336 483 c 128,-1,18
 356 470 356 470 370 450 c 128,-1,19
 384 430 384 430 384 404 c 1,20,-1
 354 58 l 1,21,22
 354 14 354 14 357.5 -29.5 c 128,-1,23
 361 -73 361 -73 365 -116.5 c 128,-1,24
 369 -160 369 -160 372.5 -204 c 128,-1,25
 376 -248 376 -248 376 -291 c 0,26,27
 376 -306 376 -306 374.5 -316.5 c 0,28,29
 374 -327 374 -327 356 -327 c 0,30,31
 340 -327 340 -327 330 -311.5 c 128,-1,32
 320 -296 320 -296 315 -271 c 128,-1,33
 310 -246 310 -246 309 -214 c 128,-1,34
 308 -182 308 -182 307 -149 c 128,-1,35
 306 -116 306 -116 305 -84 c 128,-1,36
 304 -52 304 -52 301 -27 c 128,-1,37
 298 -2 298 -2 290.5 13.5 c 128,-1,38
 283 29 283 29 269 29 c 2,39,-1
 260 29 l 1,0,1
66 238 m 0,40,41
 66 209 66 209 75 181.5 c 128,-1,42
 84 154 84 154 101 133 c 128,-1,43
 118 112 118 112 142.5 99 c 0,44,45
 168 86 168 86 200 86 c 0,46,47
 222 86 222 86 245 89.5 c 128,-1,48
 268 93 268 93 288 106 c 1,49,50
 293 137 293 137 294.5 172.5 c 128,-1,51
 296 208 296 208 299 245 c 128,-1,52
 302 282 302 282 308 319 c 128,-1,53
 314 356 314 356 327 391 c 1,54,55
 327 408 327 408 317.5 421 c 128,-1,56
 308 434 308 434 294 443 c 128,-1,57
 280 452 280 452 263 456 c 128,-1,58
 246 460 246 460 230 460 c 0,59,60
 192 460 192 460 162 437 c 128,-1,61
 132 414 132 414 110.5 380 c 128,-1,62
 89 346 89 346 77.5 307.5 c 128,-1,63
 66 269 66 269 66 238 c 0,40,41
EndSplineSet
EndChar

StartChar: r
Encoding: 114 114 85
Width: 355
VWidth: 768
Flags: HW
LayerCount: 2
Fore
SplineSet
110 0 m 1,0,1
 88 40 88 40 72 87 c 128,-1,2
 56 134 56 134 45 182 c 128,-1,3
 34 230 34 230 27.5 275.5 c 128,-1,4
 21 321 21 321 19 358 c 0,5,6
 19 365 19 365 18 373.5 c 128,-1,7
 17 382 17 382 17.5 391 c 128,-1,8
 18 400 18 400 20.5 408 c 128,-1,9
 23 416 23 416 29 422 c 1,10,-1
 31 422 l 2,11,12
 32 422 32 422 32 422.5 c 128,-1,13
 32 423 32 423 33 423 c 256,14,15
 34 423 34 423 34 422.5 c 128,-1,16
 34 422 34 422 36 422 c 2,17,-1
 38 422 l 1,18,19
 40 421 40 421 48 418 c 128,-1,20
 56 415 56 415 58 413 c 1,21,22
 76 419 76 419 95 427.5 c 128,-1,23
 114 436 114 436 133.5 443.5 c 128,-1,24
 153 451 153 451 173 456 c 128,-1,25
 193 461 193 461 212 461 c 0,26,27
 226 461 226 461 236.5 460 c 128,-1,28
 247 459 247 459 257.5 456.5 c 128,-1,29
 268 454 268 454 280 450.5 c 128,-1,30
 292 447 292 447 308 442 c 1,31,32
 316 436 316 436 322.5 430.5 c 128,-1,33
 329 425 329 425 334.5 418 c 128,-1,34
 340 411 340 411 343 401 c 128,-1,35
 346 391 346 391 346 375 c 1,36,37
 330 373 330 373 308.5 377.5 c 128,-1,38
 287 382 287 382 263.5 389 c 128,-1,39
 240 396 240 396 215 401 c 128,-1,40
 190 406 190 406 167 405 c 128,-1,41
 144 404 144 404 123.5 392.5 c 0,42,43
 103 382 103 382 87 356 c 1,44,45
 80 327 80 327 81 299 c 128,-1,46
 82 271 82 271 88 244.5 c 128,-1,47
 94 218 94 218 103.5 191.5 c 128,-1,48
 113 165 113 165 121.5 138.5 c 128,-1,49
 130 112 130 112 137 86 c 128,-1,50
 144 60 144 60 146 33 c 0,51,52
 146 23 146 23 135 11.5 c 128,-1,53
 124 0 124 0 110 0 c 1,0,1
EndSplineSet
EndChar

StartChar: s
Encoding: 115 115 86
Width: 527
VWidth: 768
Flags: HW
LayerCount: 2
Fore
SplineSet
17 121 m 1,0,1
 25 127 25 127 31.5 128.5 c 128,-1,2
 38 130 38 130 46 130 c 256,3,4
 55 130 55 130 64 125.5 c 128,-1,5
 73 121 73 121 80.5 114.5 c 128,-1,6
 88 108 88 108 96 101.5 c 0,7,8
 104 96 104 96 113 92 c 0,9,10
 139 81 139 81 154.5 74 c 128,-1,11
 170 67 170 67 183 63 c 128,-1,12
 196 59 196 59 213 58 c 128,-1,13
 230 57 230 57 257 57 c 0,14,15
 278 57 278 57 308 56.5 c 128,-1,16
 338 56 338 56 365 61.5 c 128,-1,17
 392 67 392 67 411 81.5 c 128,-1,18
 430 96 430 96 430 126 c 1,19,20
 431 155 431 155 414.5 171.5 c 128,-1,21
 398 188 398 188 370 197 c 128,-1,22
 342 206 342 206 307 209.5 c 128,-1,23
 272 213 272 213 235 217 c 128,-1,24
 198 221 198 221 162.5 228.5 c 128,-1,25
 127 236 127 236 99 252 c 128,-1,26
 71 268 71 268 54 295.5 c 0,27,28
 37 324 37 324 36 368 c 1,29,30
 42 400 42 400 67.5 421.5 c 128,-1,31
 93 443 93 443 128.5 454.5 c 128,-1,32
 164 466 164 466 204 466.5 c 128,-1,33
 244 467 244 467 277.5 456.5 c 128,-1,34
 311 446 311 446 333.5 423 c 128,-1,35
 356 400 356 400 357 366 c 1,36,37
 359 346 359 346 354 333 c 128,-1,38
 349 320 349 320 340.5 313.5 c 128,-1,39
 332 307 332 307 323 307.5 c 128,-1,40
 314 308 314 308 309 314.5 c 128,-1,41
 304 321 304 321 304.5 333.5 c 128,-1,42
 305 346 305 346 316 365 c 1,43,44
 312 384 312 384 293 395 c 128,-1,45
 274 406 274 406 249 410.5 c 128,-1,46
 224 415 224 415 195.5 412.5 c 128,-1,47
 167 410 167 410 143.5 402 c 128,-1,48
 120 394 120 394 105.5 381 c 128,-1,49
 91 368 91 368 93 351 c 1,50,51
 93 321 93 321 110.5 304.5 c 128,-1,52
 128 288 128 288 156 279 c 128,-1,53
 184 270 184 270 220.5 266 c 128,-1,54
 257 262 257 262 295.5 258.5 c 128,-1,55
 334 255 334 255 370 248.5 c 128,-1,56
 406 242 406 242 435 227 c 128,-1,57
 464 212 464 212 481 186.5 c 128,-1,58
 498 161 498 161 498 120 c 0,59,60
 498 89 498 89 482 66.5 c 128,-1,61
 466 44 466 44 441.5 29 c 128,-1,62
 417 14 417 14 388 7 c 128,-1,63
 359 0 359 0 333 0 c 128,-1,64
 307 0 307 0 277.5 0.5 c 128,-1,65
 248 1 248 1 217.5 4 c 128,-1,66
 187 7 187 7 156 13.5 c 128,-1,67
 125 20 125 20 98.5 33.5 c 128,-1,68
 72 47 72 47 51 68 c 128,-1,69
 30 89 30 89 17 121 c 1,0,1
EndSplineSet
EndChar

StartChar: t
Encoding: 116 116 87
Width: 336
VWidth: 768
Flags: HW
LayerCount: 2
Fore
SplineSet
136 344 m 1,0,1
 128 344 128 344 108 344 c 128,-1,2
 88 344 88 344 66.5 347.5 c 128,-1,3
 45 351 45 351 27.5 359 c 128,-1,4
 10 367 10 367 10 382 c 0,5,6
 10 386 10 386 11.5 393.5 c 128,-1,7
 13 401 13 401 21 401 c 2,8,-1
 124 410 l 1,9,10
 128 447 128 447 130 470.5 c 128,-1,11
 132 494 132 494 131 514.5 c 128,-1,12
 130 535 130 535 128.5 557.5 c 128,-1,13
 127 580 127 580 126 616 c 0,14,15
 126 623 126 623 129 627 c 128,-1,16
 132 631 132 631 136.5 633 c 128,-1,17
 141 635 141 635 146.5 636 c 128,-1,18
 152 637 152 637 155 637 c 0,19,20
 161 637 161 637 167.5 633 c 128,-1,21
 174 629 174 629 179 623 c 128,-1,22
 184 617 184 617 187 610.5 c 128,-1,23
 190 604 190 604 190 598 c 2,24,-1
 198 411 l 1,25,-1
 284 407 l 1,26,27
 301 409 301 409 315.5 400.5 c 128,-1,28
 330 392 330 392 331 369 c 1,29,30
 319 356 319 356 302 353.5 c 128,-1,31
 285 351 285 351 266.5 351.5 c 128,-1,32
 248 352 248 352 230 351.5 c 128,-1,33
 212 351 212 351 198 342 c 1,34,35
 198 336 198 336 199 309 c 128,-1,36
 200 282 200 282 201 245 c 128,-1,37
 202 208 202 208 203.5 166 c 128,-1,38
 205 124 205 124 206 88.5 c 128,-1,39
 207 53 207 53 207.5 28 c 128,-1,40
 208 3 208 3 208 0 c 1,41,42
 185 -14 185 -14 171 2.5 c 128,-1,43
 157 19 157 19 148.5 51.5 c 128,-1,44
 140 84 140 84 136.5 127.5 c 128,-1,45
 133 171 133 171 132.5 213.5 c 128,-1,46
 132 256 132 256 133 292 c 128,-1,47
 134 328 134 328 136 344 c 1,0,1
EndSplineSet
EndChar

StartChar: u
Encoding: 117 117 88
Width: 514
VWidth: 768
Flags: HW
LayerCount: 2
Fore
SplineSet
384 145 m 1,0,1
 361 132 361 132 344.5 113.5 c 128,-1,2
 328 95 328 95 311 78.5 c 128,-1,3
 294 62 294 62 273.5 50 c 128,-1,4
 253 38 253 38 221 38 c 0,5,6
 185 38 185 38 156 53.5 c 128,-1,7
 127 69 127 69 104.5 95.5 c 128,-1,8
 82 122 82 122 65.5 155.5 c 128,-1,9
 49 189 49 189 38.5 224.5 c 128,-1,10
 28 260 28 260 22.5 294.5 c 128,-1,11
 17 329 17 329 17 357 c 1,12,13
 9 411 9 411 20 441.5 c 128,-1,14
 31 472 31 472 46.5 480.5 c 128,-1,15
 62 489 62 489 73 476.5 c 128,-1,16
 84 464 84 464 76 433 c 0,17,18
 74 429 74 429 73 420.5 c 128,-1,19
 72 412 72 412 71 403 c 128,-1,20
 70 394 70 394 69 386 c 128,-1,21
 68 378 68 378 68 375 c 0,22,23
 68 354 68 354 72 325.5 c 128,-1,24
 76 297 76 297 84.5 266 c 128,-1,25
 93 235 93 235 106 204.5 c 128,-1,26
 119 174 119 174 137 150 c 128,-1,27
 155 126 155 126 178.5 111 c 128,-1,28
 202 96 202 96 230 96 c 0,29,30
 248 96 248 96 271 113.5 c 128,-1,31
 294 131 294 131 314.5 155.5 c 128,-1,32
 335 180 335 180 349.5 206 c 128,-1,33
 364 232 364 232 364 250 c 0,34,35
 364 260 364 260 364.5 283 c 128,-1,36
 365 306 365 306 365 332 c 128,-1,37
 365 358 365 358 364.5 381 c 128,-1,38
 364 404 364 404 364 413 c 1,39,40
 370 423 370 423 377 428.5 c 128,-1,41
 384 434 384 434 394 434 c 0,42,43
 406 434 406 434 414 418 c 128,-1,44
 422 402 422 402 427 377 c 128,-1,45
 432 352 432 352 434 323 c 128,-1,46
 436 294 436 294 437 267 c 128,-1,47
 438 240 438 240 439 219.5 c 128,-1,48
 440 199 440 199 442 192 c 0,49,50
 447 172 447 172 456.5 147 c 128,-1,51
 466 122 466 122 475 98.5 c 128,-1,52
 484 75 484 75 491 55.5 c 128,-1,53
 498 36 498 36 498 26 c 0,54,55
 498 11 498 11 489.5 8 c 128,-1,56
 481 5 481 5 468 5 c 0,57,58
 452 5 452 5 444.5 13 c 128,-1,59
 437 21 437 21 433.5 33.5 c 128,-1,60
 430 46 430 46 428 61 c 128,-1,61
 426 76 426 76 421.5 92 c 128,-1,62
 417 108 417 108 408.5 122 c 128,-1,63
 400 136 400 136 384 145 c 1,0,1
EndSplineSet
EndChar

StartChar: v
Encoding: 118 118 89
Width: 399
VWidth: 768
Flags: HW
LayerCount: 2
Fore
SplineSet
10 356 m 1,0,1
 11 359 11 359 13 363.5 c 128,-1,2
 15 368 15 368 18.5 373 c 128,-1,3
 22 378 22 378 25.5 381.5 c 128,-1,4
 29 385 29 385 34 385 c 0,5,6
 35 385 35 385 35 384.5 c 128,-1,7
 35 384 35 384 37 384 c 2,8,-1
 39 384 l 1,9,10
 62 373 62 373 77 352.5 c 128,-1,11
 92 332 92 332 103.5 306 c 128,-1,12
 115 280 115 280 125 250.5 c 128,-1,13
 135 221 135 221 147.5 192.5 c 128,-1,14
 160 164 160 164 177 137 c 128,-1,15
 194 110 194 110 220 89 c 1,16,17
 229 119 229 119 238 147.5 c 128,-1,18
 247 176 247 176 258.5 205 c 128,-1,19
 270 234 270 234 285.5 265 c 128,-1,20
 301 296 301 296 321 332 c 1,21,22
 345 342 345 342 359.5 344 c 128,-1,23
 374 346 374 346 380 340.5 c 128,-1,24
 386 335 386 335 382 324 c 128,-1,25
 378 313 378 313 365 298 c 1,26,27
 357 291 357 291 346.5 266 c 128,-1,28
 336 241 336 241 324 207 c 128,-1,29
 312 173 312 173 298.5 136 c 128,-1,30
 285 99 285 99 271 68.5 c 128,-1,31
 257 38 257 38 243.5 18 c 128,-1,32
 230 -2 230 -2 217 -1 c 1,33,34
 203 -1 203 -1 185.5 20.5 c 128,-1,35
 168 42 168 42 148 76 c 128,-1,36
 128 110 128 110 108 150.5 c 128,-1,37
 88 191 88 191 69.5 231 c 128,-1,38
 51 271 51 271 35.5 304.5 c 128,-1,39
 20 338 20 338 10 356 c 1,0,1
EndSplineSet
EndChar

StartChar: w
Encoding: 119 119 90
Width: 672
VWidth: 768
Flags: HW
LayerCount: 2
Fore
SplineSet
346 96 m 1,0,1
 306 42 306 42 265.5 20.5 c 128,-1,2
 225 -1 225 -1 188.5 1.5 c 128,-1,3
 152 4 152 4 119.5 28 c 128,-1,4
 87 52 87 52 63.5 88 c 128,-1,5
 40 124 40 124 25.5 169.5 c 128,-1,6
 11 215 11 215 10 262 c 128,-1,7
 9 309 9 309 22.5 353.5 c 128,-1,8
 36 398 36 398 68 433 c 1,9,10
 84 427 84 427 86 417 c 0,11,12
 88 406 88 406 88 394 c 0,13,14
 88 377 88 377 84.5 361.5 c 128,-1,15
 81 346 81 346 77 330 c 128,-1,16
 73 314 73 314 69.5 297 c 128,-1,17
 66 280 66 280 66 262 c 0,18,19
 66 249 66 249 69 229.5 c 128,-1,20
 72 210 72 210 77.5 188 c 128,-1,21
 83 166 83 166 92 144.5 c 128,-1,22
 101 123 101 123 113.5 105.5 c 128,-1,23
 126 88 126 88 141 76.5 c 128,-1,24
 156 65 156 65 175 65 c 0,25,26
 192 65 192 65 215.5 75.5 c 128,-1,27
 239 86 239 86 260.5 102 c 128,-1,28
 282 118 282 118 296.5 138 c 128,-1,29
 311 158 311 158 311 178 c 1,30,-1
 317 308 l 2,31,32
 317 311 317 311 321 314 c 128,-1,33
 325 317 325 317 329.5 319.5 c 128,-1,34
 334 322 334 322 339 324 c 128,-1,35
 344 326 344 326 346 326 c 0,36,37
 360 326 360 326 365 308 c 128,-1,38
 370 290 370 290 373 261.5 c 128,-1,39
 376 233 376 233 380 201 c 128,-1,40
 384 169 384 169 394.5 140.5 c 128,-1,41
 405 112 405 112 426 94 c 0,42,43
 446 76 446 76 484 76 c 1,44,45
 521 77 521 77 543 91.5 c 128,-1,46
 565 106 565 106 575 130 c 128,-1,47
 585 154 585 154 584.5 183.5 c 128,-1,48
 584 213 584 213 576.5 242.5 c 128,-1,49
 569 272 569 272 556.5 299 c 128,-1,50
 544 326 544 326 529 346 c 1,51,52
 527 354 527 354 529 357.5 c 128,-1,53
 531 361 531 361 534.5 362.5 c 128,-1,54
 538 364 538 364 543 364.5 c 128,-1,55
 548 365 548 365 551 365 c 1,56,57
 567 361 567 361 585.5 338.5 c 128,-1,58
 604 316 604 316 618 285 c 128,-1,59
 632 254 632 254 639.5 216 c 128,-1,60
 647 178 647 178 643.5 141 c 128,-1,61
 640 104 640 104 622 72 c 128,-1,62
 604 40 604 40 567 20 c 1,63,64
 523 17 523 17 495 16.5 c 128,-1,65
 467 16 467 16 448.5 18.5 c 128,-1,66
 430 21 430 21 419 27 c 128,-1,67
 408 33 408 33 398 42.5 c 128,-1,68
 388 52 388 52 376.5 65 c 128,-1,69
 365 78 365 78 346 96 c 1,0,1
EndSplineSet
EndChar

StartChar: x
Encoding: 120 120 91
Width: 459
VWidth: 768
Flags: HW
LayerCount: 2
Fore
SplineSet
393 -52 m 0,0,1
 366 -29 366 -29 343 -3 c 128,-1,2
 320 23 320 23 296 49.5 c 128,-1,3
 272 76 272 76 247 99.5 c 128,-1,4
 222 123 222 123 191 140 c 1,5,6
 177 140 177 140 165.5 130.5 c 128,-1,7
 154 121 154 121 143 105.5 c 128,-1,8
 132 90 132 90 122.5 71.5 c 128,-1,9
 113 53 113 53 104.5 37 c 128,-1,10
 96 21 96 21 89 9 c 128,-1,11
 82 -3 82 -3 76 -5 c 1,12,13
 57 -4 57 -4 57 14 c 0,14,15
 57 42 57 42 72 67.5 c 128,-1,16
 87 93 87 93 105.5 115.5 c 128,-1,17
 124 138 124 138 139 157.5 c 128,-1,18
 154 177 154 177 154 193 c 0,19,20
 154 194 154 194 153.5 195 c 128,-1,21
 153 196 153 196 153 197 c 0,22,23
 136 213 136 213 114 234 c 128,-1,24
 92 255 92 255 69.5 278.5 c 128,-1,25
 47 302 47 302 28.5 325.5 c 0,26,27
 10 348 10 348 -1 370 c 1,28,29
 -3 378 -3 378 -0.5 382 c 128,-1,30
 2 386 2 386 6 388.5 c 128,-1,31
 10 391 10 391 15 391.5 c 128,-1,32
 20 392 20 392 23 392 c 1,33,34
 48 383 48 383 70.5 363 c 128,-1,35
 93 343 93 343 114 321 c 128,-1,36
 135 299 135 299 155.5 278 c 128,-1,37
 176 257 176 257 196 246 c 1,38,39
 216 249 216 249 241 266.5 c 128,-1,40
 266 284 266 284 293 306 c 128,-1,41
 320 328 320 328 346 350.5 c 128,-1,42
 372 373 372 373 394 385.5 c 128,-1,43
 416 398 416 398 431 397 c 128,-1,44
 446 396 446 396 452 371 c 1,45,46
 452 366 452 366 438.5 354.5 c 128,-1,47
 425 343 425 343 405 327 c 128,-1,48
 385 311 385 311 360 293 c 128,-1,49
 335 275 335 275 311.5 258 c 128,-1,50
 288 241 288 241 268.5 224.5 c 128,-1,51
 249 208 249 208 239 197 c 1,52,53
 260 177 260 177 288.5 151 c 128,-1,54
 317 125 317 125 345 95.5 c 128,-1,55
 373 66 373 66 396.5 35 c 128,-1,56
 420 4 420 4 431 -23 c 1,57,58
 427 -33 427 -33 421 -43 c 128,-1,59
 415 -53 415 -53 403 -53 c 0,60,61
 401 -53 401 -53 397.5 -52.5 c 128,-1,62
 394 -52 394 -52 393 -52 c 0,0,1
EndSplineSet
EndChar

StartChar: y
Encoding: 121 121 92
Width: 499
VWidth: 768
Flags: HWO
LayerCount: 2
Fore
SplineSet
46 -312 m 0,0,1
 46 -305 46 -305 46 -298.5 c 128,-1,2
 46 -292 46 -292 48 -287.5 c 128,-1,3
 50 -283 50 -283 54.5 -280.5 c 0,4,5
 60 -278 60 -278 68 -278 c 1,6,7
 83 -295 83 -295 106.5 -321.5 c 128,-1,8
 130 -348 130 -348 160 -373 c 128,-1,9
 190 -398 190 -398 223 -417 c 128,-1,10
 256 -436 256 -436 290 -436 c 1,11,12
 318 -435 318 -435 338 -421.5 c 128,-1,13
 358 -408 358 -408 372 -386 c 128,-1,14
 386 -364 386 -364 395 -336 c 128,-1,15
 404 -308 404 -308 409.5 -279 c 128,-1,16
 415 -250 415 -250 417.5 -223 c 128,-1,17
 420 -196 420 -196 423 -176 c 0,18,19
 425 -166 425 -166 427.5 -142.5 c 128,-1,20
 430 -119 430 -119 432.5 -90.5 c 128,-1,21
 435 -62 435 -62 436.5 -31 c 128,-1,22
 438 0 438 0 436 25.5 c 128,-1,23
 434 51 434 51 428 67.5 c 128,-1,24
 422 84 422 84 410 84 c 0,25,26
 393 84 393 84 374 74 c 128,-1,27
 355 64 355 64 334.5 51.5 c 128,-1,28
 314 39 314 39 293 29 c 128,-1,29
 272 19 272 19 252 19 c 0,30,31
 214 19 214 19 182.5 34.5 c 128,-1,32
 151 50 151 50 125 75 c 128,-1,33
 99 100 99 100 79 133.5 c 128,-1,34
 59 167 59 167 45.5 203 c 128,-1,35
 32 239 32 239 25.5 275 c 128,-1,36
 19 311 19 311 19 343 c 0,37,38
 19 350 19 350 17.5 366 c 128,-1,39
 16 382 16 382 18 399 c 128,-1,40
 20 416 20 416 27 429 c 128,-1,41
 34 442 34 442 49 442 c 0,42,43
 53 442 53 442 55.5 426 c 128,-1,44
 58 410 58 410 61.5 384.5 c 128,-1,45
 65 359 65 359 70.5 326 c 128,-1,46
 76 293 76 293 85 259 c 128,-1,47
 94 225 94 225 107 192 c 128,-1,48
 120 159 120 159 139 133.5 c 128,-1,49
 158 108 158 108 184.5 92 c 128,-1,50
 211 76 211 76 245 76 c 0,51,52
 267 76 267 76 291 85.5 c 128,-1,53
 315 95 315 95 336.5 110 c 128,-1,54
 358 125 358 125 375.5 144.5 c 0,55,56
 394 164 394 164 404 183 c 1,57,58
 404 187 404 187 403 202 c 128,-1,59
 402 217 402 217 401 236.5 c 128,-1,60
 400 256 400 256 399 279 c 128,-1,61
 398 302 398 302 397 322.5 c 128,-1,62
 396 343 396 343 395.5 358 c 128,-1,63
 395 373 395 373 395 377 c 0,64,65
 397 438 397 438 404 451.5 c 128,-1,66
 411 465 411 465 421 443 c 128,-1,67
 431 421 431 421 442 369 c 128,-1,68
 453 317 453 317 462.5 247.5 c 128,-1,69
 472 178 472 178 477.5 96 c 128,-1,70
 483 14 483 14 482 -68.5 c 128,-1,71
 481 -151 481 -151 471.5 -228 c 128,-1,72
 462 -305 462 -305 441 -364.5 c 128,-1,73
 420 -424 420 -424 386 -461 c 128,-1,74
 352 -498 352 -498 302 -500 c 5,75,76
 282 -500 282 -500 254.5 -492.5 c 128,-1,77
 227 -485 227 -485 199 -472 c 128,-1,78
 171 -459 171 -459 143.5 -441 c 128,-1,79
 116 -423 116 -423 94.5 -402 c 128,-1,80
 73 -381 73 -381 59.5 -358 c 128,-1,81
 46 -335 46 -335 46 -312 c 0,0,1
EndSplineSet
EndChar

StartChar: z
Encoding: 122 122 93
Width: 471
VWidth: 768
Flags: HW
LayerCount: 2
Fore
SplineSet
86 68 m 0,0,1
 86 85 86 85 96.5 106 c 128,-1,2
 107 127 107 127 122.5 147.5 c 128,-1,3
 138 168 138 168 154 186.5 c 128,-1,4
 170 205 170 205 181 217 c 1,5,-1
 49 221 l 2,6,7
 45 221 45 221 42.5 224 c 128,-1,8
 40 227 40 227 39 231.5 c 128,-1,9
 38 236 38 236 38 240 c 128,-1,10
 38 244 38 244 38 245 c 0,11,12
 38 254 38 254 39 258.5 c 128,-1,13
 40 263 40 263 44 265 c 128,-1,14
 48 267 48 267 53.5 267.5 c 0,15,16
 60 268 60 268 68 268 c 0,17,18
 78 269 78 269 102 272 c 128,-1,19
 126 275 126 275 154 278 c 128,-1,20
 182 281 182 281 206.5 283.5 c 128,-1,21
 231 286 231 286 241 288 c 1,22,23
 255 308 255 308 264 322.5 c 128,-1,24
 273 337 273 337 278.5 349.5 c 128,-1,25
 284 362 284 362 286.5 375 c 128,-1,26
 289 388 289 388 289 406 c 0,27,28
 289 414 289 414 287.5 425 c 128,-1,29
 286 436 286 436 281.5 446.5 c 128,-1,30
 277 457 277 457 269.5 464 c 128,-1,31
 262 471 262 471 250 471 c 2,32,-1
 125 471 l 2,33,34
 114 471 114 471 104.5 463 c 128,-1,35
 95 455 95 455 87.5 446 c 128,-1,36
 80 437 80 437 72.5 429.5 c 0,37,38
 64 422 64 422 58 422 c 0,39,40
 41 422 41 422 30 431 c 128,-1,41
 19 440 19 440 19 457 c 0,42,43
 19 473 19 473 30.5 484 c 128,-1,44
 42 495 42 495 61 503.5 c 128,-1,45
 80 512 80 512 102 516.5 c 128,-1,46
 124 521 124 521 146 524 c 128,-1,47
 168 527 168 527 186.5 528.5 c 128,-1,48
 205 530 205 530 215 530 c 0,49,50
 243 530 243 530 267.5 522 c 128,-1,51
 292 514 292 514 309 498.5 c 128,-1,52
 326 483 326 483 336 461 c 128,-1,53
 346 439 346 439 346 410 c 0,54,55
 346 392 346 392 342 377 c 128,-1,56
 338 362 338 362 333 347 c 128,-1,57
 328 332 328 332 324 317 c 128,-1,58
 320 302 320 302 320 285 c 1,59,60
 321 285 321 285 332.5 286.5 c 128,-1,61
 344 288 344 288 358 288.5 c 128,-1,62
 372 289 372 289 383 286.5 c 128,-1,63
 394 284 394 284 394 275 c 0,64,65
 394 273 394 273 394 272.5 c 128,-1,66
 394 272 394 272 394 271 c 2,67,-1
 394 268 l 1,68,69
 391 263 391 263 383.5 254 c 128,-1,70
 376 245 376 245 375 245 c 2,71,-1
 268 235 l 1,72,73
 260 221 260 221 245 204.5 c 128,-1,74
 230 188 230 188 215 170.5 c 128,-1,75
 200 153 200 153 188 136 c 128,-1,76
 176 119 176 119 174 105 c 128,-1,77
 172 91 172 91 184 80.5 c 128,-1,78
 196 70 196 70 230 66 c 1,79,80
 252 66 252 66 277.5 70 c 128,-1,81
 303 74 303 74 329 81 c 128,-1,82
 355 88 355 88 379 97 c 128,-1,83
 403 106 403 106 422 116 c 1,84,85
 430 110 430 110 436 101 c 128,-1,86
 442 92 442 92 442 82 c 0,87,88
 442 67 442 67 428 55.5 c 128,-1,89
 414 44 414 44 392 35 c 128,-1,90
 370 26 370 26 343 19 c 128,-1,91
 316 12 316 12 289.5 8 c 128,-1,92
 263 4 263 4 240.5 2 c 128,-1,93
 218 0 218 0 206 0 c 0,94,95
 192 0 192 0 171.5 4 c 128,-1,96
 151 8 151 8 131.5 15.5 c 128,-1,97
 112 23 112 23 99 36 c 128,-1,98
 86 49 86 49 86 68 c 0,0,1
EndSplineSet
EndChar

StartChar: braceleft
Encoding: 123 123 94
Width: 403
VWidth: 768
Flags: HW
LayerCount: 2
Fore
SplineSet
66 72 m 0,0,1
 66 109 66 109 82 135.5 c 128,-1,2
 98 162 98 162 122 184 c 128,-1,3
 146 206 146 206 173 224.5 c 128,-1,4
 200 243 200 243 224 263.5 c 128,-1,5
 248 284 248 284 264 308 c 128,-1,6
 280 332 280 332 280 364 c 0,7,8
 280 366 280 366 280 370.5 c 128,-1,9
 280 375 280 375 279.5 379.5 c 128,-1,10
 279 384 279 384 279 388 c 128,-1,11
 279 392 279 392 279 394 c 1,12,13
 277 396 277 396 269 399.5 c 0,14,15
 262 404 262 404 260 404 c 1,16,-1
 254 404 l 2,17,18
 234 404 234 404 208 394.5 c 128,-1,19
 182 385 182 385 154.5 372 c 128,-1,20
 127 359 127 359 103.5 346 c 128,-1,21
 80 333 80 333 68 326 c 0,22,23
 66 326 66 326 62.5 326 c 128,-1,24
 59 326 59 326 58 326 c 0,25,26
 45 326 45 326 41.5 332 c 128,-1,27
 38 338 38 338 38 350 c 0,28,29
 38 352 38 352 38 357.5 c 0,30,31
 38 362 38 362 38 364 c 1,32,33
 52 371 52 371 75 381.5 c 128,-1,34
 98 392 98 392 120 405.5 c 128,-1,35
 142 419 142 419 160 435.5 c 128,-1,36
 178 452 178 452 183 471 c 1,37,38
 143 478 143 478 112.5 500.5 c 128,-1,39
 82 523 82 523 61 554 c 128,-1,40
 40 585 40 585 29.5 621.5 c 128,-1,41
 19 658 19 658 19 694 c 0,42,43
 19 739 19 739 44.5 779 c 128,-1,44
 70 819 70 819 109.5 849 c 128,-1,45
 149 879 149 879 195.5 896.5 c 128,-1,46
 242 914 242 914 284 914 c 0,47,48
 298 914 298 914 314.5 910 c 128,-1,49
 331 906 331 906 344.5 897.5 c 128,-1,50
 358 889 358 889 367 875.5 c 128,-1,51
 376 862 376 862 376 844 c 0,52,53
 376 836 376 836 373 825 c 128,-1,54
 370 814 370 814 360 814 c 0,55,56
 354 814 354 814 346.5 822 c 128,-1,57
 339 830 339 830 329.5 839.5 c 128,-1,58
 320 849 320 849 309 857 c 128,-1,59
 298 865 298 865 284 865 c 1,60,61
 241 861 241 861 205.5 845.5 c 128,-1,62
 170 830 170 830 142.5 804.5 c 128,-1,63
 115 779 115 779 95.5 745.5 c 128,-1,64
 76 712 76 712 66 672 c 1,65,66
 66 641 66 641 78 618.5 c 128,-1,67
 90 596 90 596 110 578.5 c 128,-1,68
 130 561 130 561 156 548 c 128,-1,69
 182 535 182 535 208.5 524 c 128,-1,70
 235 513 235 513 260.5 502.5 c 128,-1,71
 286 492 286 492 308 480 c 1,72,73
 302 461 302 461 307.5 446 c 128,-1,74
 313 431 313 431 321.5 417.5 c 128,-1,75
 330 404 330 404 338 389 c 128,-1,76
 346 374 346 374 346 356 c 0,77,78
 346 321 346 321 329 294.5 c 128,-1,79
 312 268 312 268 286.5 246.5 c 128,-1,80
 261 225 261 225 231 206 c 128,-1,81
 201 187 201 187 175.5 165 c 128,-1,82
 150 143 150 143 133 117.5 c 128,-1,83
 116 92 116 92 116 58 c 2,84,-1
 116 49 l 1,85,86
 128 28 128 28 141 10 c 128,-1,87
 154 -8 154 -8 171 -20.5 c 128,-1,88
 188 -33 188 -33 208.5 -40 c 128,-1,89
 229 -47 229 -47 254 -47 c 2,90,-1
 260 -47 l 1,91,92
 297 -40 297 -40 332.5 -34 c 128,-1,93
 368 -28 368 -28 406 -28 c 1,94,95
 406 -45 406 -45 394.5 -57 c 128,-1,96
 383 -69 383 -69 365 -76.5 c 128,-1,97
 347 -84 347 -84 325 -88 c 128,-1,98
 303 -92 303 -92 281.5 -94 c 128,-1,99
 260 -96 260 -96 242.5 -96.5 c 128,-1,100
 225 -97 225 -97 216 -97 c 1,101,102
 180 -104 180 -104 152 -89.5 c 128,-1,103
 124 -75 124 -75 105 -48.5 c 128,-1,104
 86 -22 86 -22 76 10.5 c 128,-1,105
 66 43 66 43 66 72 c 0,0,1
EndSplineSet
EndChar

StartChar: bar
Encoding: 124 124 95
Width: 153
VWidth: 768
Flags: HW
LayerCount: 2
Fore
SplineSet
76 10 m 0,0,1
 75 18 75 18 74.5 38 c 128,-1,2
 74 58 74 58 72 81 c 128,-1,3
 70 104 70 104 69 125 c 128,-1,4
 68 146 68 146 68 154 c 0,5,6
 66 200 66 200 66.5 239.5 c 128,-1,7
 67 279 67 279 65.5 317.5 c 128,-1,8
 64 356 64 356 61 395 c 128,-1,9
 58 434 58 434 49 480 c 1,10,11
 41 514 41 514 30 551.5 c 0,12,13
 19 590 19 590 19 626 c 0,14,15
 19 632 19 632 19.5 642 c 0,16,-1
 20 652 l 0,17,18
 20 654 20 654 23.5 658.5 c 128,-1,19
 27 663 27 663 29 663 c 0,20,21
 32 663 32 663 39 659 c 0,22,23
 46 654 46 654 49 652 c 1,24,25
 75 581 75 581 90.5 509 c 128,-1,26
 106 437 106 437 114.5 364 c 128,-1,27
 123 291 123 291 125.5 216.5 c 128,-1,28
 128 142 128 142 125 68 c 1,29,30
 126 66 126 66 127.5 62 c 128,-1,31
 129 58 129 58 130.5 53.5 c 128,-1,32
 132 49 132 49 133 44.5 c 128,-1,33
 134 40 134 40 134 38 c 0,34,35
 134 16 134 16 122.5 8 c 0,36,37
 112 0 112 0 92 0 c 2,38,-1
 87 0 l 1,39,40
 85 1 85 1 81 4.5 c 128,-1,41
 77 8 77 8 76 10 c 0,0,1
EndSplineSet
EndChar

